SplineFontDB: 3.2
FontName: MontenegrinGothicOne-Regular
FullName: Montenegrin Gothic One Regular
FamilyName: Montenegrin Gothic One
Weight: Regular
Copyright: Copyright 2014 The Montenegrin Gothic One Project Authors (https://github.com/MagicformDesign/montenegrin-gothic-one)
Version: 1.002 2026
ItalicAngle: 0
UnderlinePosition: -100
UnderlineWidth: 50
Ascent: 750
Descent: 250
InvalidEm: 0
sfntRevision: 0x00010083
LayerCount: 3
Layer: 0 1 "Back" 1
Layer: 1 1 "Fore" 0
Layer: 2 0 "Back 2" 1
XUID: [1021 183 393909584 26100]
StyleMap: 0x0040
FSType: 0
OS2Version: 3
OS2_WeightWidthSlopeOnly: 0
OS2_UseTypoMetrics: 1
CreationTime: 1409659526
ModificationTime: 1777205122
PfmFamily: 17
TTFWeight: 400
TTFWidth: 5
LineGap: 0
VLineGap: 0
Panose: 2 14 7 5 2 2 6 2 4 4
OS2TypoAscent: 950
OS2TypoAOffset: 0
OS2TypoDescent: -350
OS2TypoDOffset: 0
OS2TypoLinegap: 0
OS2WinAscent: 780
OS2WinAOffset: 0
OS2WinDescent: 225
OS2WinDOffset: 0
HheadAscent: 950
HheadAOffset: 0
HheadDescent: -350
HheadDOffset: 0
OS2SubXSize: 700
OS2SubYSize: 650
OS2SubXOff: 0
OS2SubYOff: 140
OS2SupXSize: 700
OS2SupYSize: 650
OS2SupXOff: 0
OS2SupYOff: 477
OS2StrikeYSize: 50
OS2StrikeYPos: 250
OS2CapHeight: 599
OS2XHeight: 493
OS2FamilyClass: 2305
OS2Vendor: 'MAGI'
OS2CodePages: 20000111.40000000
OS2UnicodeRanges: 8000002f.0000204a.00000000.00000000
Lookup: 258 0 0 "'kern' Horizontal Kerning in Latin lookup 0" { "'kern' Horizontal Kerning in Latin lookup 0 per glyph data 0"  "'kern' Horizontal Kerning in Latin lookup 0 per glyph data 1"  "'kern' Horizontal Kerning in Latin lookup 0 per glyph data 2"  "'kern' Horizontal Kerning in Latin lookup 0 per glyph data 3"  } ['kern' ('latn' <'dflt' > ) ]
MarkAttachClasses: 1
DEI: 91125
TtTable: prep
PUSHW_1
 20
CALL
SVTCA[y-axis]
PUSHW_3
 3
 4
 27
CALL
PUSHW_1
 2
DUP
RCVT
RDTG
ROUND[Black]
RTG
WCVTP
PUSHW_1
 10
CALL
PUSHW_1
 0
CALL
EndTTInstrs
TtTable: fpgm
PUSHW_1
 0
FDEF
MPPEM
PUSHW_1
 9
LT
IF
PUSHB_2
 1
 1
INSTCTRL
EIF
PUSHW_1
 511
SCANCTRL
PUSHW_1
 68
SCVTCI
PUSHW_2

StartChar: .notdef
Encoding: 1114112 -1 0
Width: 673
GlyphClass: 1
Flags: W
LayerCount: 3
Fore
SplineSet
476 521 m 1,0,-1
 99 521 l 1,1,-1
 99 99 l 1,2,-1
 476 99 l 1,3,-1
 476 521 l 1,0,-1
575 620 m 1,4,-1
 575 0 l 1,5,-1
 0 0 l 1,6,-1
 0 620 l 1,7,-1
 575 620 l 1,4,-1
EndSplineSet
Validated: 1
EndChar

StartChar: B
Encoding: 66 66 4
Width: 721
GlyphClass: 1
Flags: W
LayerCount: 3
Fore
SplineSet
562 561 m 0,0,1
 615 519 615 519 615 436 c 128,-1,2
 615 353 615 353 534 314 c 1,3,4
 633 277 633 277 635 173 c 0,5,6
 635 88 635 88 577 44 c 128,-1,7
 519 0 519 0 410 0 c 2,8,-1
 0 0 l 1,9,-1
 0 27 l 1,10,11
 12 29 12 29 20 38 c 128,-1,12
 28 47 28 47 28 58 c 2,13,-1
 28 541 l 2,14,15
 28 554 28 554 19 563 c 128,-1,16
 10 572 10 572 0 572 c 1,17,-1
 0 599 l 1,18,-1
 406 599 l 2,19,20
 494 598 494 598 534 578 c 0,21,22
 548 570 548 570 562 561 c 0,0,1
159 363 m 1,23,-1
 395 363 l 2,24,25
 400 363 400 363 404 363 c 0,26,27
 439 363 439 363 452 370 c 0,28,29
 484 386 484 386 484 432 c 256,30,31
 484 478 484 478 454 492 c 0,32,33
 437 500 437 500 395 501 c 2,34,-1
 159 501 l 1,35,-1
 159 363 l 1,23,-1
408 99 m 2,36,37
 448 100 448 100 466 108 c 0,38,39
 506 127 506 127 506 181.5 c 128,-1,40
 506 236 506 236 468 255 c 0,41,42
 448 265 448 265 408 265 c 2,43,-1
 159 265 l 1,44,-1
 159 99 l 1,45,-1
 408 99 l 2,36,37
EndSplineSet
Validated: 1
EndChar

StartChar: H
Encoding: 72 72 5
Width: 746
GlyphClass: 1
Flags: W
LayerCount: 3
Fore
SplineSet
633 541 m 2,0,-1
 633 58 l 2,1,2
 633 47 633 47 641 38 c 128,-1,3
 649 29 649 29 661 27 c 1,4,-1
 661 0 l 1,5,-1
 474 0 l 1,6,-1
 474 27 l 1,7,8
 486 29 486 29 494 38 c 128,-1,9
 502 47 502 47 502 58 c 2,10,-1
 502 250 l 1,11,-1
 159 250 l 1,12,-1
 159 58 l 2,13,14
 159 47 159 47 167 38 c 128,-1,15
 175 29 175 29 187 27 c 1,16,-1
 187 0 l 1,17,-1
 0 0 l 1,18,-1
 0 27 l 1,19,20
 12 29 12 29 20 38 c 128,-1,21
 28 47 28 47 28 58 c 6,22,-1
 28 541 l 6,23,24
 28 554 28 554 19 563 c 128,-1,25
 10 572 10 572 0 572 c 1,26,-1
 0 599 l 1,27,-1
 187 599 l 1,28,-1
 187 572 l 1,29,30
 177 572 177 572 168 563 c 128,-1,31
 159 554 159 554 159 541 c 2,32,-1
 159 349 l 1,33,-1
 502 349 l 1,34,-1
 502 541 l 2,35,36
 502 554 502 554 493 563 c 128,-1,37
 484 572 484 572 474 572 c 1,38,-1
 474 599 l 1,39,-1
 661 599 l 1,40,-1
 661 572 l 1,41,42
 651 572 651 572 642 563 c 128,-1,43
 633 554 633 554 633 541 c 2,0,-1
EndSplineSet
Validated: 1
EndChar

StartChar: S
Encoding: 83 83 6
Width: 673
GlyphClass: 1
Flags: W
LayerCount: 3
Fore
SplineSet
472 433 m 1,0,1
 475 441 475 441 475 448 c 0,2,3
 475 478 475 478 419 495 c 0,4,5
 368 511 368 511 312 511 c 0,6,7
 292 511 292 511 271 509 c 0,8,9
 191 502 191 502 162 468 c 0,10,11
 150 454 150 454 150 436 c 0,12,13
 150 398 150 398 194 381 c 0,14,15
 226 369 226 369 249.5 365 c 128,-1,16
 273 361 273 361 301 356.5 c 128,-1,17
 329 352 329 352 340 351 c 0,18,19
 430 336 430 336 492 306 c 0,20,21
 530 288 530 288 552.5 254.5 c 128,-1,22
 575 221 575 221 575 179 c 0,23,24
 575 87 575 87 490 37 c 0,25,26
 419 -5 419 -5 298 -10 c 0,27,28
 286 -10 286 -10 275 -10 c 0,29,30
 168 -10 168 -10 82 31 c 0,31,32
 48 47 48 47 39 47 c 0,33,34
 39 47 39 47 38 47 c 0,35,36
 29 46 29 46 22 37 c 1,37,-1
 0 51 l 1,38,-1
 78 183 l 1,39,-1
 101 170 l 1,40,41
 100 164 100 164 100 159 c 0,42,43
 100 142 100 142 114 130 c 0,44,45
 150 100 150 100 238 92 c 0,46,47
 260 90 260 90 281 90 c 0,48,49
 296 90 296 90 311 91 c 0,50,51
 444 100 444 100 444 168 c 0,52,53
 444 208 444 208 377 228 c 0,54,55
 342 238 342 238 294 246 c 128,-1,56
 246 254 246 254 231 257 c 0,57,58
 133 275 133 275 85 305 c 0,59,60
 19 345 19 345 19 421 c 0,61,62
 19 471 19 471 45 510.5 c 128,-1,63
 71 550 71 550 118 573 c 0,64,65
 193 610 193 610 295 610 c 0,66,67
 322 610 322 610 351 608 c 0,68,69
 417 602 417 602 456.5 585.5 c 128,-1,70
 496 569 496 569 507.5 564 c 128,-1,71
 519 559 519 559 530 555.5 c 128,-1,72
 541 552 541 552 551 566 c 1,73,-1
 574 552 l 1,74,-1
 495 419 l 1,75,-1
 472 433 l 1,0,1
EndSplineSet
Validated: 1
EndChar

StartChar: M
Encoding: 77 77 7
Width: 849
GlyphClass: 1
Flags: W
LayerCount: 3
Fore
SplineSet
733 541 m 2,0,-1
 733 58 l 2,1,2
 733 46 733 46 741.5 37 c 128,-1,3
 750 28 750 28 761 27 c 1,4,-1
 761 0 l 1,5,-1
 585 0 l 1,6,-1
 585 27 l 1,7,8
 596 28 596 28 604.5 36.5 c 128,-1,9
 613 45 613 45 613 58 c 2,10,-1
 613 439 l 1,11,-1
 381 2 l 1,12,-1
 380 2 l 1,13,-1
 148 439 l 1,14,-1
 148 58 l 2,15,16
 148 45 148 45 156.5 36.5 c 128,-1,17
 165 28 165 28 176 27 c 1,18,-1
 176 0 l 1,19,-1
 0 0 l 1,20,-1
 0 27 l 1,21,22
 11 28 11 28 19.5 37 c 128,-1,23
 28 46 28 46 28 58 c 2,24,-1
 28 541 l 2,25,26
 28 555 28 555 18.5 563.5 c 128,-1,27
 9 572 9 572 0 572 c 1,28,-1
 0 599 l 1,29,-1
 243 599 l 1,30,-1
 243 572 l 1,31,32
 225 570 225 570 225 557 c 0,33,34
 225 548 225 548 234 532 c 2,35,-1
 380 257 l 1,36,-1
 527 532 l 2,37,38
 536 547 536 547 536 557 c 0,39,40
 536 571 536 571 518 572 c 1,41,-1
 518 599 l 1,42,-1
 761 599 l 1,43,-1
 761 572 l 1,44,45
 752 572 752 572 742.5 563.5 c 128,-1,46
 733 555 733 555 733 541 c 2,0,-1
EndSplineSet
Validated: 1
EndChar

StartChar: I
Encoding: 73 73 8
Width: 275
GlyphClass: 1
Flags: W
LayerCount: 3
Fore
SplineSet
159 58 m 6,0,1
 159 47 159 47 167 38 c 132,-1,2
 175 29 175 29 187 27 c 5,3,-1
 187 0 l 5,4,-1
 0 0 l 5,5,-1
 0 27 l 5,6,7
 12 29 12 29 20 38 c 132,-1,8
 28 47 28 47 28 58 c 6,9,-1
 28 541 l 6,10,11
 28 554 28 554 19 563 c 132,-1,12
 10 572 10 572 0 572 c 5,13,-1
 0 599 l 5,14,-1
 187 599 l 5,15,-1
 187 572 l 5,16,17
 177 572 177 572 168 563 c 132,-1,18
 159 554 159 554 159 541 c 6,19,-1
 159 58 l 6,0,1
EndSplineSet
Validated: 1
EndChar

StartChar: V
Encoding: 86 86 9
Width: 758
GlyphClass: 1
Flags: W
LayerCount: 3
Fore
SplineSet
666 541 m 2,0,-1
 440 58 l 2,1,2
 434 44 434 44 439.5 36 c 128,-1,3
 445 28 445 28 453 26 c 1,4,-1
 453 0 l 1,5,-1
 255 0 l 1,6,-1
 255 26 l 1,7,8
 263 28 263 28 269 36 c 128,-1,9
 275 44 275 44 269 58 c 2,10,-1
 43 541 l 2,11,12
 33 560 33 560 25 564 c 128,-1,13
 17 568 17 568 0 572 c 1,14,-1
 0 599 l 1,15,-1
 187 599 l 1,16,-1
 187 572 l 1,17,18
 175 570 175 570 172 560 c 128,-1,19
 169 550 169 550 174 541 c 2,20,-1
 354 155 l 1,21,-1
 535 541 l 2,22,23
 540 552 540 552 536.5 561 c 128,-1,24
 533 570 533 570 522 572 c 1,25,-1
 522 599 l 1,26,-1
 709 599 l 1,27,-1
 709 572 l 1,28,29
 692 568 692 568 683.5 564 c 128,-1,30
 675 560 675 560 666 541 c 2,0,-1
EndSplineSet
Validated: 1
EndChar

StartChar: R
Encoding: 82 82 10
Width: 716
GlyphClass: 1
Flags: W
LayerCount: 3
Fore
SplineSet
585 58 m 2,0,1
 598 31 598 31 628 27 c 1,2,-1
 628 0 l 1,3,-1
 441 0 l 1,4,-1
 441 27 l 1,5,6
 452 29 452 29 456 37.5 c 128,-1,7
 460 46 460 46 454 58 c 2,8,-1
 369 242 l 1,9,-1
 159 242 l 1,10,-1
 159 58 l 2,11,12
 159 47 159 47 167 38 c 128,-1,13
 175 29 175 29 187 27 c 1,14,-1
 187 0 l 1,15,-1
 0 0 l 1,16,-1
 0 27 l 1,17,18
 12 29 12 29 20 38 c 128,-1,19
 28 47 28 47 28 58 c 2,20,-1
 28 541 l 2,21,22
 28 554 28 554 19 563 c 128,-1,23
 10 572 10 572 0 572 c 1,24,-1
 0 599 l 1,25,-1
 360 599 l 2,26,27
 499 599 499 599 555 549 c 0,28,29
 611 497 611 497 611 420.5 c 128,-1,30
 611 344 611 344 555 292 c 0,31,32
 531 270 531 270 491 258 c 1,33,-1
 585 58 l 2,0,1
396 341 m 2,34,35
 436 341 436 341 457.5 361.5 c 128,-1,36
 479 382 479 382 479 420.5 c 128,-1,37
 479 459 479 459 457.5 479.5 c 128,-1,38
 436 500 436 500 396 500 c 2,39,-1
 159 500 l 1,40,-1
 159 341 l 1,41,-1
 396 341 l 2,34,35
EndSplineSet
Validated: 1
EndChar

StartChar: P
Encoding: 80 80 11
Width: 671
GlyphClass: 1
Flags: W
LayerCount: 3
Fore
SplineSet
555 549 m 0,0,1
 611 497 611 497 611 420.5 c 128,-1,2
 611 344 611 344 555 292 c 0,3,4
 499 242 499 242 360 242 c 2,5,-1
 159 242 l 1,6,-1
 159 58 l 2,7,8
 159 47 159 47 167 38 c 128,-1,9
 175 29 175 29 187 27 c 1,10,-1
 187 0 l 1,11,-1
 0 0 l 1,12,-1
 0 27 l 1,13,14
 12 29 12 29 20 38 c 128,-1,15
 28 47 28 47 28 58 c 2,16,-1
 28 541 l 2,17,18
 28 554 28 554 19 563 c 128,-1,19
 10 572 10 572 0 572 c 1,20,-1
 0 599 l 1,21,-1
 360 599 l 2,22,23
 499 599 499 599 555 549 c 0,0,1
396 341 m 2,24,25
 436 341 436 341 457.5 361.5 c 128,-1,26
 479 382 479 382 479 420.5 c 128,-1,27
 479 459 479 459 457.5 479.5 c 128,-1,28
 436 500 436 500 396 500 c 2,29,-1
 159 500 l 1,30,-1
 159 341 l 1,31,-1
 396 341 l 2,24,25
EndSplineSet
Validated: 1
EndChar

StartChar: F
Encoding: 70 70 12
Width: 647
GlyphClass: 1
Flags: W
LayerCount: 3
Fore
SplineSet
575 627 m 1,0,-1
 575 473 l 1,1,-1
 548 473 l 1,2,3
 546 485 546 485 537.5 493 c 128,-1,4
 529 501 529 501 517 501 c 2,5,-1
 159 501 l 1,6,-1
 159 349 l 1,7,-1
 363 349 l 2,8,9
 376 349 376 349 384 357 c 128,-1,10
 392 365 392 365 394 377 c 1,11,-1
 421 377 l 1,12,-1
 421 222 l 1,13,-1
 394 222 l 1,14,15
 393 233 393 233 384.5 241.5 c 128,-1,16
 376 250 376 250 363 250 c 2,17,-1
 159 250 l 1,18,-1
 159 58 l 2,19,20
 159 47 159 47 167 38 c 128,-1,21
 175 29 175 29 187 27 c 1,22,-1
 187 0 l 1,23,-1
 0 0 l 1,24,-1
 0 27 l 1,25,26
 12 29 12 29 20 38 c 128,-1,27
 28 47 28 47 28 58 c 2,28,-1
 28 541 l 2,29,30
 28 554 28 554 19 563 c 128,-1,31
 10 572 10 572 0 572 c 1,32,-1
 0 599 l 1,33,-1
 517 599 l 2,34,35
 529 599 529 599 537.5 607.5 c 128,-1,36
 546 616 546 616 548 627 c 1,37,-1
 575 627 l 1,0,-1
EndSplineSet
Validated: 1
EndChar

StartChar: E
Encoding: 69 69 13
Width: 655
GlyphClass: 1
Flags: W
LayerCount: 3
Fore
SplineSet
585 127 m 1,0,-1
 585 -28 l 1,1,-1
 558 -28 l 1,2,3
 556 -16 556 -16 547 -8 c 128,-1,4
 538 0 538 0 527 0 c 2,5,-1
 0 0 l 1,6,-1
 0 27 l 1,7,8
 12 29 12 29 20 38 c 128,-1,9
 28 47 28 47 28 58 c 2,10,-1
 28 541 l 2,11,12
 28 554 28 554 19 563 c 128,-1,13
 10 572 10 572 0 572 c 1,14,-1
 0 599 l 1,15,-1
 517 599 l 2,16,17
 529 599 529 599 537.5 607.5 c 128,-1,18
 546 616 546 616 548 627 c 1,19,-1
 575 627 l 1,20,-1
 575 473 l 1,21,-1
 548 473 l 1,22,23
 546 485 546 485 537.5 493 c 128,-1,24
 529 501 529 501 517 501 c 2,25,-1
 159 501 l 1,26,-1
 159 349 l 1,27,-1
 363 349 l 2,28,29
 376 349 376 349 384 357 c 128,-1,30
 392 365 392 365 394 377 c 1,31,-1
 421 377 l 1,32,-1
 421 222 l 1,33,-1
 394 222 l 1,34,35
 393 233 393 233 384.5 241.5 c 128,-1,36
 376 250 376 250 363 250 c 2,37,-1
 159 250 l 1,38,-1
 159 99 l 1,39,-1
 527 99 l 2,40,41
 540 99 540 99 548.5 107.5 c 128,-1,42
 557 116 557 116 558 127 c 1,43,-1
 585 127 l 1,0,-1
EndSplineSet
Validated: 1
EndChar

StartChar: O
Encoding: 79 79 14
Width: 760
GlyphClass: 1
Flags: W
LayerCount: 3
Fore
SplineSet
344 610 m 0,0,1
 430 610 430 610 495 585.5 c 128,-1,2
 560 561 560 561 603 519 c 0,3,4
 689 435 689 435 689 300 c 0,5,6
 689 164 689 164 603 80 c 0,7,8
 511 -10 511 -10 345 -10 c 256,9,10
 178 -10 178 -10 86 80 c 0,11,12
 0 164 0 164 0 300 c 0,13,14
 0 435 0 435 86 519 c 0,15,16
 178 610 178 610 344 610 c 0,0,1
195 150 m 256,17,18
 257 88 257 88 344.5 88 c 128,-1,19
 432 88 432 88 494 150 c 128,-1,20
 556 212 556 212 556 300 c 0,21,22
 556 387 556 387 494 449 c 256,23,24
 432 511 432 511 344.5 511 c 128,-1,25
 257 511 257 511 195 449 c 128,-1,26
 133 387 133 387 133 299.5 c 128,-1,27
 133 212 133 212 195 150 c 256,17,18
EndSplineSet
Validated: 1
EndChar

StartChar: Q
Encoding: 81 81 15
Width: 760
GlyphClass: 1
Flags: W
LayerCount: 3
Fore
SplineSet
594 72 m 1,0,-1
 631 29 l 1,1,2
 640 18 640 18 653 18 c 0,3,4
 662 18 662 18 672 23 c 1,5,-1
 689 2 l 1,6,-1
 571 -97 l 1,7,-1
 553 -76 l 1,8,9
 560 -69 560 -69 562 -57.5 c 128,-1,10
 564 -46 564 -46 555 -34 c 2,11,-1
 510 20 l 1,12,13
 441 -10 441 -10 350 -10 c 0,14,15
 178 -10 178 -10 89 77 c 128,-1,16
 0 164 0 164 0 299.5 c 128,-1,17
 0 435 0 435 89 522.5 c 128,-1,18
 178 610 178 610 344 610 c 128,-1,19
 510 610 510 610 599.5 522.5 c 128,-1,20
 689 435 689 435 689 296 c 128,-1,21
 689 157 689 157 594 72 c 1,0,-1
512 170 m 1,22,23
 556 229 556 229 556 308 c 128,-1,24
 556 387 556 387 494 449 c 256,25,26
 432 511 432 511 344.5 511 c 128,-1,27
 257 511 257 511 195 449 c 128,-1,28
 133 387 133 387 133 299.5 c 128,-1,29
 133 212 133 212 195 150 c 256,30,31
 257 88 257 88 345 88 c 0,32,33
 392 88 392 88 435 108 c 1,34,-1
 413 134 l 1,35,36
 404 146 404 146 392 146 c 0,37,38
 383 146 383 146 372 140 c 1,39,-1
 354 161 l 1,40,-1
 473 260 l 1,41,-1
 490 239 l 1,42,43
 482 231 482 231 481 219 c 128,-1,44
 480 207 480 207 489 197 c 2,45,-1
 512 170 l 1,22,23
EndSplineSet
Validated: 1
EndChar

StartChar: X
Encoding: 88 88 16
Width: 682
GlyphClass: 1
Flags: W
LayerCount: 3
Fore
SplineSet
581 541 m 2,0,-1
 393 299 l 1,1,-1
 581 58 l 2,2,3
 592 44 592 44 606 36.5 c 128,-1,4
 620 29 620 29 633 27 c 1,5,-1
 633 0 l 1,6,-1
 427 0 l 1,7,-1
 427 27 l 1,8,9
 437 28 437 28 439 36 c 128,-1,10
 441 44 441 44 430 58 c 2,11,-1
 316 203 l 1,12,-1
 203 58 l 2,13,14
 192 44 192 44 194 36 c 128,-1,15
 196 28 196 28 206 27 c 1,16,-1
 206 0 l 1,17,-1
 0 0 l 1,18,-1
 0 27 l 1,19,20
 13 29 13 29 27 36.5 c 128,-1,21
 41 44 41 44 52 58 c 2,22,-1
 240 299 l 1,23,-1
 52 541 l 2,24,25
 41 555 41 555 27 562.5 c 128,-1,26
 13 570 13 570 0 572 c 1,27,-1
 0 599 l 1,28,-1
 206 599 l 1,29,-1
 206 572 l 1,30,31
 196 571 196 571 194 563 c 128,-1,32
 192 555 192 555 203 541 c 2,33,-1
 316 396 l 1,34,-1
 430 541 l 2,35,36
 441 555 441 555 439 563 c 128,-1,37
 437 571 437 571 427 572 c 1,38,-1
 427 599 l 1,39,-1
 633 599 l 1,40,-1
 633 572 l 1,41,42
 620 570 620 570 606 562.5 c 128,-1,43
 592 555 592 555 581 541 c 2,0,-1
EndSplineSet
Validated: 1
EndChar

StartChar: Y
Encoding: 89 89 17
Width: 683
GlyphClass: 1
Flags: W
LayerCount: 3
Fore
SplineSet
633 599 m 1,0,-1
 633 572 l 1,1,2
 620 570 620 570 606 562.5 c 128,-1,3
 592 555 592 555 581 541 c 2,4,-1
 382 286 l 1,5,-1
 382 58 l 2,6,7
 382 45 382 45 390.5 36.5 c 128,-1,8
 399 28 399 28 410 27 c 1,9,-1
 410 0 l 1,10,-1
 223 0 l 1,11,-1
 223 27 l 1,12,13
 233 28 233 28 242 37 c 128,-1,14
 251 46 251 46 251 58 c 2,15,-1
 251 286 l 1,16,-1
 52 541 l 2,17,18
 41 555 41 555 27 562.5 c 128,-1,19
 13 570 13 570 0 572 c 1,20,-1
 0 599 l 1,21,-1
 206 599 l 1,22,-1
 206 572 l 1,23,24
 196 571 196 571 194 563 c 128,-1,25
 192 555 192 555 203 541 c 2,26,-1
 316 396 l 1,27,-1
 430 541 l 2,28,29
 441 555 441 555 439 563 c 128,-1,30
 437 571 437 571 427 572 c 1,31,-1
 427 599 l 1,32,-1
 633 599 l 1,0,-1
EndSplineSet
Validated: 1
EndChar

StartChar: N
Encoding: 78 78 18
Width: 749
GlyphClass: 1
Flags: W
LayerCount: 3
Fore
SplineSet
633 541 m 2,0,-1
 633 58 l 2,1,2
 633 46 633 46 641.5 37 c 128,-1,3
 650 28 650 28 661 27 c 1,4,-1
 661 0 l 1,5,-1
 462 0 l 1,6,-1
 462 26 l 1,7,8
 480 31 480 31 480 46 c 0,9,10
 480 57 480 57 468 69 c 2,11,-1
 148 402 l 1,12,-1
 148 58 l 2,13,14
 148 47 148 47 156 38 c 128,-1,15
 164 29 164 29 176 27 c 1,16,-1
 176 0 l 1,17,-1
 0 0 l 1,18,-1
 0 27 l 1,19,20
 12 29 12 29 20 38 c 128,-1,21
 28 47 28 47 28 58 c 2,22,-1
 28 541 l 2,23,24
 28 554 28 554 19 563 c 128,-1,25
 10 572 10 572 0 572 c 1,26,-1
 0 599 l 1,27,-1
 199 599 l 1,28,-1
 199 573 l 1,29,30
 181 568 181 568 181 553 c 0,31,32
 181 542 181 542 193 530 c 2,33,-1
 513 197 l 1,34,-1
 513 541 l 2,35,36
 513 555 513 555 504 563.5 c 128,-1,37
 495 572 495 572 485 572 c 1,38,-1
 485 599 l 1,39,-1
 661 599 l 1,40,-1
 661 572 l 1,41,42
 652 572 652 572 642.5 563.5 c 128,-1,43
 633 555 633 555 633 541 c 2,0,-1
EndSplineSet
Validated: 1
EndChar

StartChar: L
Encoding: 76 76 19
Width: 647
GlyphClass: 1
Flags: W
LayerCount: 3
Fore
SplineSet
575 127 m 1,0,-1
 575 -28 l 1,1,-1
 548 -28 l 1,2,3
 546 -16 546 -16 537 -8 c 128,-1,4
 528 0 528 0 517 0 c 2,5,-1
 0 0 l 1,6,-1
 0 27 l 1,7,8
 12 29 12 29 20 38 c 128,-1,9
 28 47 28 47 28 58 c 2,10,-1
 28 541 l 2,11,12
 28 554 28 554 19 563 c 128,-1,13
 10 572 10 572 0 572 c 1,14,-1
 0 599 l 1,15,-1
 187 599 l 1,16,-1
 187 572 l 1,17,18
 177 572 177 572 168 563 c 128,-1,19
 159 554 159 554 159 541 c 2,20,-1
 159 99 l 1,21,-1
 517 99 l 2,22,23
 530 99 530 99 538.5 107.5 c 128,-1,24
 547 116 547 116 548 127 c 1,25,-1
 575 127 l 1,0,-1
EndSplineSet
Validated: 1
EndChar

StartChar: W
Encoding: 87 87 20
Width: 1116
GlyphClass: 1
Flags: W
LayerCount: 3
Fore
SplineSet
1066 599 m 1,0,-1
 1066 572 l 1,1,2
 1037 570 1037 570 1025 541 c 2,3,-1
 830 58 l 2,4,5
 825 45 825 45 830.5 36.5 c 128,-1,6
 836 28 836 28 846 27 c 1,7,-1
 846 0 l 1,8,-1
 658 0 l 1,9,-1
 658 27 l 1,10,11
 668 28 668 28 673.5 36.5 c 128,-1,12
 679 45 679 45 674 58 c 2,13,-1
 533 407 l 1,14,-1
 392 58 l 2,15,16
 387 45 387 45 392.5 36.5 c 128,-1,17
 398 28 398 28 408 27 c 1,18,-1
 408 0 l 1,19,-1
 220 0 l 1,20,-1
 220 27 l 1,21,22
 230 28 230 28 235.5 36.5 c 128,-1,23
 241 45 241 45 236 58 c 2,24,-1
 41 541 l 2,25,26
 29 570 29 570 0 572 c 1,27,-1
 0 599 l 1,28,-1
 187 599 l 1,29,-1
 187 572 l 1,30,31
 177 572 177 572 171.5 563.5 c 128,-1,32
 166 555 166 555 172 541 c 2,33,-1
 314 189 l 1,34,-1
 456 541 l 2,35,36
 462 555 462 555 456.5 563.5 c 128,-1,37
 451 572 451 572 441 572 c 1,38,-1
 441 599 l 1,39,-1
 625 599 l 1,40,-1
 625 572 l 1,41,42
 615 572 615 572 609.5 563.5 c 128,-1,43
 604 555 604 555 610 541 c 2,44,-1
 752 189 l 1,45,-1
 894 541 l 2,46,47
 900 555 900 555 894.5 563.5 c 128,-1,48
 889 572 889 572 879 572 c 1,49,-1
 879 599 l 1,50,-1
 1066 599 l 1,0,-1
EndSplineSet
Validated: 1
EndChar

StartChar: K
Encoding: 75 75 21
Width: 696
GlyphClass: 1
Flags: W
LayerCount: 3
Fore
SplineSet
646 27 m 1,0,-1
 646 0 l 1,1,-1
 435 0 l 1,2,-1
 435 27 l 1,3,4
 444 27 444 27 449 36.5 c 128,-1,5
 454 46 454 46 443 58 c 2,6,-1
 267 284 l 1,7,-1
 159 198 l 1,8,-1
 159 58 l 2,9,10
 159 47 159 47 167 38 c 128,-1,11
 175 29 175 29 187 27 c 1,12,-1
 187 0 l 1,13,-1
 0 0 l 1,14,-1
 0 27 l 1,15,16
 12 29 12 29 20 38 c 128,-1,17
 28 47 28 47 28 58 c 2,18,-1
 28 541 l 2,19,20
 28 554 28 554 19 563 c 128,-1,21
 10 572 10 572 0 572 c 1,22,-1
 0 599 l 1,23,-1
 187 599 l 1,24,-1
 187 572 l 1,25,26
 177 572 177 572 168 563 c 128,-1,27
 159 554 159 554 159 541 c 2,28,-1
 159 335 l 1,29,-1
 401 532 l 2,30,31
 415 544 415 544 415 555 c 0,32,33
 414 557 414 557 414 559 c 0,34,35
 410 572 410 572 392 572 c 1,36,-1
 392 599 l 1,37,-1
 637 599 l 1,38,-1
 637 572 l 1,39,40
 622 571 622 571 609 561 c 0,41,42
 603 557 603 557 541 506.5 c 128,-1,43
 479 456 479 456 359 359 c 1,44,-1
 594 58 l 2,45,46
 613 33 613 33 646 27 c 1,0,-1
EndSplineSet
Validated: 1
EndChar

StartChar: T
Encoding: 84 84 22
Width: 660
GlyphClass: 1
Flags: W
LayerCount: 3
Fore
SplineSet
588 627 m 1,0,-1
 588 473 l 1,1,-1
 561 473 l 1,2,3
 559 485 559 485 550.5 493 c 128,-1,4
 542 501 542 501 530 501 c 2,5,-1
 359 501 l 1,6,-1
 359 58 l 2,7,8
 359 46 359 46 368 37 c 128,-1,9
 377 28 377 28 387 27 c 1,10,-1
 387 0 l 1,11,-1
 201 0 l 1,12,-1
 201 27 l 1,13,14
 211 28 211 28 220 37 c 128,-1,15
 229 46 229 46 229 58 c 2,16,-1
 229 501 l 1,17,-1
 58 501 l 2,18,19
 46 501 46 501 37.5 493 c 128,-1,20
 29 485 29 485 27 473 c 1,21,-1
 0 473 l 1,22,-1
 0 627 l 1,23,-1
 27 627 l 1,24,25
 28 616 28 616 37 607.5 c 128,-1,26
 46 599 46 599 58 599 c 2,27,-1
 530 599 l 2,28,29
 542 599 542 599 551 607.5 c 128,-1,30
 560 616 560 616 561 627 c 1,31,-1
 588 627 l 1,0,-1
EndSplineSet
Validated: 1
EndChar

StartChar: D
Encoding: 68 68 23
Width: 728
GlyphClass: 1
Flags: W
LayerCount: 3
Fore
SplineSet
328 599 m 2,0,1
 330 599 330 599 331 599 c 0,2,3
 510 599 510 599 594 496 c 0,4,5
 656 419 656 419 656 300 c 256,6,7
 656 104 656 104 495 30 c 0,8,9
 431 0 431 0 328 0 c 2,10,-1
 0 0 l 1,11,-1
 0 27 l 1,12,13
 12 28 12 28 20 36.5 c 128,-1,14
 28 45 28 45 28 58 c 2,15,-1
 28 541 l 2,16,17
 28 555 28 555 19 563.5 c 128,-1,18
 10 572 10 572 0 572 c 1,19,-1
 0 599 l 1,20,-1
 328 599 l 2,0,1
324 99 m 2,21,22
 450 100 450 100 497 180 c 0,23,24
 520 220 520 220 522.5 253.5 c 128,-1,25
 525 287 525 287 525 303.5 c 128,-1,26
 525 320 525 320 521 354 c 128,-1,27
 517 388 517 388 498 420.5 c 128,-1,28
 479 453 479 453 438 477 c 128,-1,29
 397 501 397 501 324 501 c 2,30,-1
 159 501 l 1,31,-1
 159 99 l 1,32,-1
 324 99 l 2,21,22
EndSplineSet
Validated: 1
EndChar

StartChar: Z
Encoding: 90 90 24
Width: 641
GlyphClass: 1
Flags: W
LayerCount: 3
Fore
SplineSet
569 127 m 1,0,-1
 569 -28 l 1,1,-1
 542 -28 l 1,2,3
 540 -16 540 -16 531 -8 c 128,-1,4
 522 0 522 0 511 0 c 2,5,-1
 0 0 l 1,6,-1
 0 38 l 1,7,-1
 349 501 l 1,8,-1
 58 501 l 2,9,10
 46 501 46 501 37.5 493 c 128,-1,11
 29 485 29 485 27 473 c 1,12,-1
 0 473 l 1,13,-1
 0 627 l 1,14,-1
 27 627 l 1,15,16
 28 616 28 616 37 607.5 c 128,-1,17
 46 599 46 599 58 599 c 2,18,-1
 559 599 l 1,19,-1
 559 561 l 1,20,-1
 210 99 l 1,21,-1
 511 99 l 2,22,23
 524 99 524 99 532.5 107.5 c 128,-1,24
 541 116 541 116 542 127 c 1,25,-1
 569 127 l 1,0,-1
EndSplineSet
Validated: 1
EndChar

StartChar: C
Encoding: 67 67 25
Width: 707
GlyphClass: 1
Flags: W
LayerCount: 3
Fore
SplineSet
635 554 m 5,0,1
 568 441 568 441 556 421 c 5,2,-1
 533 435 l 5,3,4
 541 449 541 449 533.5 461.5 c 132,-1,5
 526 474 526 474 504 486 c 4,6,7
 452 512 452 512 365 512 c 4,8,9
 259 512 259 512 195 452 c 4,10,11
 132 393 132 393 132 303 c 4,12,13
 132 212 132 212 195 151 c 4,14,15
 260 88 260 88 365 88 c 4,16,17
 451 88 451 88 511 118 c 4,18,19
 526 126 526 126 533.5 138.5 c 132,-1,20
 541 151 541 151 533 165 c 5,21,-1
 556 179 l 5,22,23
 568 159 568 159 635 46 c 5,24,-1
 612 32 l 5,25,26
 600 46 600 46 588 45 c 4,27,28
 580 44 580 44 562 35 c 4,29,30
 534 20 534 20 516 13 c 4,31,32
 447 -10 447 -10 351 -10 c 4,33,34
 279 -10 279 -10 211 13 c 132,-1,35
 143 36 143 36 96 78 c 4,36,37
 0 163 0 163 0 303 c 4,38,39
 0 444 0 444 96 526 c 4,40,41
 194 610 194 610 365 610 c 4,42,43
 480 610 480 610 570 562 c 4,44,45
 580 557 580 557 588 556 c 0,46,47
 601 556 601 556 612 568 c 5,48,-1
 635 554 l 5,0,1
EndSplineSet
Validated: 1
EndChar

StartChar: Scaron
Encoding: 352 352 26
Width: 657
GlyphClass: 1
Flags: W
LayerCount: 3
Fore
SplineSet
472 433 m 1,0,1
 475 441 475 441 475 448 c 0,2,3
 475 478 475 478 419 495 c 0,4,5
 368 511 368 511 312 511 c 0,6,7
 292 511 292 511 271 509 c 0,8,9
 191 502 191 502 162 468 c 0,10,11
 150 454 150 454 150 436 c 0,12,13
 150 398 150 398 194 381 c 0,14,15
 226 369 226 369 249.5 365 c 128,-1,16
 273 361 273 361 301 356.5 c 128,-1,17
 329 352 329 352 340 351 c 0,18,19
 430 336 430 336 492 306 c 0,20,21
 530 288 530 288 552.5 254.5 c 128,-1,22
 575 221 575 221 575 179 c 0,23,24
 575 87 575 87 490 37 c 0,25,26
 419 -5 419 -5 298 -10 c 0,27,28
 286 -10 286 -10 275 -10 c 0,29,30
 168 -10 168 -10 82 31 c 0,31,32
 48 47 48 47 39 47 c 0,33,34
 39 47 39 47 38 47 c 0,35,36
 29 46 29 46 22 37 c 1,37,-1
 0 51 l 1,38,-1
 78 183 l 1,39,-1
 101 170 l 1,40,41
 100 164 100 164 100 159 c 0,42,43
 100 142 100 142 114 130 c 0,44,45
 150 100 150 100 238 92 c 0,46,47
 260 90 260 90 281 90 c 0,48,49
 296 90 296 90 311 91 c 0,50,51
 444 100 444 100 444 168 c 0,52,53
 444 208 444 208 377 228 c 0,54,55
 342 238 342 238 294 246 c 128,-1,56
 246 254 246 254 231 257 c 0,57,58
 133 275 133 275 85 305 c 0,59,60
 19 345 19 345 19 421 c 0,61,62
 19 471 19 471 45 510.5 c 128,-1,63
 71 550 71 550 118 573 c 0,64,65
 193 610 193 610 295 610 c 0,66,67
 322 610 322 610 351 608 c 0,68,69
 417 602 417 602 456.5 585.5 c 128,-1,70
 496 569 496 569 507.5 564 c 128,-1,71
 519 559 519 559 530 555.5 c 128,-1,72
 541 552 541 552 551 566 c 1,73,-1
 574 552 l 1,74,-1
 495 419 l 1,75,-1
 472 433 l 1,0,1
443 775 m 1,76,-1
 443 758 l 1,77,78
 435 758 435 758 431 756 c 128,-1,79
 427 754 427 754 423 750 c 2,80,-1
 363 683 l 2,81,82
 356 675 356 675 359 670.5 c 128,-1,83
 362 666 362 666 371 666 c 1,84,-1
 371 649 l 1,85,-1
 247 649 l 1,86,-1
 247 666 l 1,87,88
 258 668 258 668 258 673.5 c 128,-1,89
 258 679 258 679 252 685 c 2,90,-1
 193 750 l 2,91,92
 187 758 187 758 175 758 c 1,93,-1
 175 775 l 1,94,-1
 288 775 l 1,95,-1
 288 758 l 1,96,97
 280 758 280 758 278 753.5 c 128,-1,98
 276 749 276 749 281 743 c 2,99,-1
 315 704 l 1,100,-1
 349 743 l 2,101,102
 354 749 354 749 352 753.5 c 128,-1,103
 350 758 350 758 342 758 c 1,104,-1
 342 775 l 1,105,-1
 443 775 l 1,76,-1
EndSplineSet
Validated: 1
EndChar

StartChar: Zcaron
Encoding: 381 381 27
Width: 641
GlyphClass: 1
Flags: W
LayerCount: 3
Fore
SplineSet
425 775 m 1,0,-1
 425 758 l 1,1,2
 417 758 417 758 413 756 c 128,-1,3
 409 754 409 754 405 750 c 2,4,-1
 345 683 l 2,5,6
 338 675 338 675 341 670.5 c 128,-1,7
 344 666 344 666 353 666 c 1,8,-1
 353 649 l 1,9,-1
 229 649 l 1,10,-1
 229 666 l 1,11,12
 240 668 240 668 240 673.5 c 128,-1,13
 240 679 240 679 234 685 c 2,14,-1
 175 750 l 2,15,16
 169 758 169 758 157 758 c 1,17,-1
 157 775 l 1,18,-1
 270 775 l 1,19,-1
 270 758 l 1,20,21
 262 758 262 758 260 753.5 c 128,-1,22
 258 749 258 749 263 743 c 2,23,-1
 297 704 l 1,24,-1
 331 743 l 2,25,26
 336 749 336 749 334 753.5 c 128,-1,27
 332 758 332 758 324 758 c 1,28,-1
 324 775 l 1,29,-1
 425 775 l 1,0,-1
569 127 m 1,30,-1
 569 -28 l 1,31,-1
 542 -28 l 1,32,33
 540 -16 540 -16 531 -8 c 128,-1,34
 522 0 522 0 511 0 c 2,35,-1
 0 0 l 1,36,-1
 0 38 l 1,37,-1
 349 501 l 1,38,-1
 58 501 l 2,39,40
 46 501 46 501 37.5 493 c 128,-1,41
 29 485 29 485 27 473 c 1,42,-1
 0 473 l 1,43,-1
 0 627 l 1,44,-1
 27 627 l 1,45,46
 28 616 28 616 37 607.5 c 128,-1,47
 46 599 46 599 58 599 c 2,48,-1
 559 599 l 1,49,-1
 559 561 l 1,50,-1
 210 99 l 1,51,-1
 511 99 l 2,52,53
 524 99 524 99 532.5 107.5 c 128,-1,54
 541 116 541 116 542 127 c 1,55,-1
 569 127 l 1,30,-1
EndSplineSet
Validated: 1
EndChar

StartChar: Ccedilla
Encoding: 199 199 28
Width: 687
GlyphClass: 1
Flags: W
LayerCount: 3
Fore
SplineSet
264 -113 m 1,0,-1
 287 -69 l 2,1,2
 297 -50 297 -50 305 -50 c 0,3,4
 356 -50 356 -50 394.5 -69 c 128,-1,5
 433 -88 433 -88 433 -127 c 0,6,7
 432 -189 432 -189 368 -202 c 0,8,9
 342 -207 342 -207 313 -207 c 0,10,11
 270 -207 270 -207 222 -196 c 1,12,-1
 233 -173 l 1,13,14
 257 -180 257 -180 284 -180 c 0,15,16
 312 -180 312 -180 330 -170 c 0,17,18
 348 -158 348 -158 348 -142 c 0,19,20
 348 -113 348 -113 322 -106 c 0,21,22
 316 -104 316 -104 310 -104 c 0,23,24
 291 -104 291 -104 277 -122 c 1,25,-1
 264 -113 l 1,0,-1
513 435 m 1,26,27
 517 442 517 442 517 449 c 0,28,29
 517 469 517 469 482 486 c 0,30,31
 436 510 436 510 348 512 c 1,32,-1
 345 512 l 2,33,34
 243 512 243 512 187.5 449.5 c 128,-1,35
 132 387 132 387 132 300 c 256,36,37
 132 213 132 213 187.5 150.5 c 128,-1,38
 243 88 243 88 345 88 c 2,39,-1
 348 88 l 1,40,41
 435 90 435 90 491 118 c 0,42,43
 506 126 506 126 513.5 138.5 c 128,-1,44
 521 151 521 151 513 165 c 1,45,-1
 536 179 l 1,46,47
 547 161 547 161 615 46 c 1,48,-1
 592 32 l 1,49,50
 579 47 579 47 567.5 44.5 c 128,-1,51
 556 42 556 42 549.5 38.5 c 128,-1,52
 543 35 543 35 521 23.5 c 128,-1,53
 499 12 499 12 451 1 c 128,-1,54
 403 -10 403 -10 331 -10 c 128,-1,55
 259 -10 259 -10 194 14 c 128,-1,56
 129 38 129 38 86 80 c 0,57,58
 0 164 0 164 0 299.5 c 128,-1,59
 0 435 0 435 89.5 522.5 c 128,-1,60
 179 610 179 610 345 610 c 0,61,62
 460 610 460 610 550 562 c 0,63,64
 560 557 560 557 568 556 c 0,65,66
 581 556 581 556 592 568 c 1,67,-1
 615 554 l 1,68,69
 547 439 547 439 536 421 c 1,70,-1
 513 435 l 1,26,27
EndSplineSet
Validated: 1
EndChar

StartChar: U
Encoding: 85 85 29
Width: 743
GlyphClass: 1
Flags: W
LayerCount: 3
Fore
SplineSet
655 599 m 5,0,-1
 655 572 l 5,1,2
 645 572 645 572 636 563 c 132,-1,3
 627 554 627 554 627 541 c 6,4,-1
 627 288 l 6,5,6
 626 152 626 152 560 78 c 4,7,8
 489 -2 489 -2 367 -8 c 4,9,10
 340 -10 340 -10 327 -10 c 260,11,12
 108 -10 108 -10 46 163 c 4,13,14
 28 214 28 214 28 288 c 6,15,-1
 28 541 l 6,16,17
 28 554 28 554 19 563 c 132,-1,18
 10 572 10 572 0 572 c 5,19,-1
 0 599 l 5,20,-1
 187 599 l 5,21,-1
 187 572 l 5,22,23
 177 572 177 572 168 563 c 132,-1,24
 159 554 159 554 159 541 c 6,25,-1
 159 286 l 6,26,27
 159 284 159 284 159 283 c 4,28,29
 159 166 159 166 226 118 c 4,30,31
 266 90 266 90 327 89 c 4,32,33
 389 89 389 89 422 112.5 c 132,-1,34
 455 136 455 136 475.5 175.5 c 132,-1,35
 496 215 496 215 496 286 c 6,36,-1
 496 541 l 6,37,38
 496 554 496 554 487 563 c 132,-1,39
 478 572 478 572 468 572 c 5,40,-1
 468 599 l 5,41,-1
 655 599 l 5,0,-1
EndSplineSet
Validated: 1
EndChar

StartChar: Ugrave
Encoding: 217 217 30
Width: 743
GlyphClass: 1
Flags: W
LayerCount: 3
Fore
SplineSet
344 775 m 1,0,-1
 344 758 l 1,1,2
 333 757 333 757 333 751 c 0,3,4
 333 749 333 749 334 747 c 2,5,-1
 344 726 l 2,6,7
 354 704 354 704 363.5 685 c 128,-1,8
 373 666 373 666 390 666 c 1,9,-1
 390 649 l 1,10,-1
 303 649 l 1,11,-1
 303 666 l 1,12,13
 308 666 308 666 312 670 c 0,14,15
 313 671 313 671 313 673 c 128,-1,16
 313 675 313 675 310 678 c 2,17,-1
 247 747 l 2,18,19
 238 758 238 758 223 758 c 1,20,-1
 223 775 l 1,21,-1
 344 775 l 1,0,-1
655 599 m 1,22,-1
 655 572 l 1,23,24
 645 572 645 572 636 563 c 128,-1,25
 627 554 627 554 627 541 c 2,26,-1
 627 288 l 2,27,28
 626 152 626 152 560 78 c 0,29,30
 489 -2 489 -2 367 -8 c 0,31,32
 340 -10 340 -10 327 -10 c 0,33,34
 108 -10 108 -10 46 163 c 0,35,36
 28 214 28 214 28 288 c 2,37,-1
 28 541 l 2,38,39
 28 554 28 554 19 563 c 128,-1,40
 10 572 10 572 0 572 c 1,41,-1
 0 599 l 1,42,-1
 187 599 l 1,43,-1
 187 572 l 1,44,45
 177 572 177 572 168 563 c 128,-1,46
 159 554 159 554 159 541 c 2,47,-1
 159 286 l 2,48,49
 159 284 159 284 159 283 c 0,50,51
 159 166 159 166 226 118 c 0,52,53
 266 90 266 90 327 89 c 0,54,55
 389 89 389 89 422 112.5 c 128,-1,56
 455 136 455 136 475.5 175.5 c 128,-1,57
 496 215 496 215 496 286 c 2,58,-1
 496 541 l 2,59,60
 496 554 496 554 487 563 c 128,-1,61
 478 572 478 572 468 572 c 1,62,-1
 468 599 l 1,63,-1
 655 599 l 1,22,-1
EndSplineSet
Validated: 1
EndChar

StartChar: Ucircumflex
Encoding: 219 219 31
Width: 743
GlyphClass: 1
Flags: W
LayerCount: 3
Fore
SplineSet
655 599 m 5,0,-1
 655 572 l 5,1,2
 645 572 645 572 636 563 c 132,-1,3
 627 554 627 554 627 541 c 6,4,-1
 627 288 l 6,5,6
 626 152 626 152 560 78 c 4,7,8
 489 -2 489 -2 367 -8 c 4,9,10
 340 -10 340 -10 327 -10 c 260,11,12
 108 -10 108 -10 46 163 c 4,13,14
 28 214 28 214 28 288 c 6,15,-1
 28 541 l 6,16,17
 28 554 28 554 19 563 c 132,-1,18
 10 572 10 572 0 572 c 5,19,-1
 0 599 l 5,20,-1
 187 599 l 5,21,-1
 187 572 l 5,22,23
 177 572 177 572 168 563 c 132,-1,24
 159 554 159 554 159 541 c 6,25,-1
 159 286 l 6,26,27
 159 284 159 284 159 283 c 4,28,29
 159 166 159 166 226 118 c 4,30,31
 266 90 266 90 327 89 c 4,32,33
 389 89 389 89 422 112.5 c 132,-1,34
 455 136 455 136 475.5 175.5 c 132,-1,35
 496 215 496 215 496 286 c 6,36,-1
 496 541 l 6,37,38
 496 554 496 554 487 563 c 132,-1,39
 478 572 478 572 468 572 c 5,40,-1
 468 599 l 5,41,-1
 655 599 l 5,0,-1
193 649 m 5,42,-1
 193 666 l 5,43,44
 205 666 205 666 213 674 c 6,45,-1
 273 741 l 6,46,47
 278 747 278 747 278 750 c 4,48,49
 278 752 278 752 277 754 c 4,50,51
 274 758 274 758 265 758 c 5,52,-1
 265 775 l 5,53,-1
 389 775 l 5,54,-1
 389 758 l 5,55,56
 378 756 378 756 378 750.5 c 132,-1,57
 378 745 378 745 384 739 c 6,58,-1
 443 674 l 6,59,60
 449 666 449 666 461 666 c 5,61,-1
 461 649 l 5,62,-1
 348 649 l 5,63,-1
 348 666 l 5,64,65
 356 666 356 666 358 670 c 4,66,67
 359 671 359 671 359 673 c 4,68,69
 359 677 359 677 355 681 c 6,70,-1
 321 720 l 5,71,-1
 287 681 l 6,72,73
 283 677 283 677 283 673 c 4,74,75
 283 672 283 672 284 670 c 4,76,77
 286 666 286 666 294 666 c 5,78,-1
 294 649 l 5,79,-1
 193 649 l 5,42,-1
EndSplineSet
Validated: 1
EndChar

StartChar: Udieresis
Encoding: 220 220 32
Width: 743
GlyphClass: 1
Flags: W
LayerCount: 3
Fore
SplineSet
281 746.5 m 132,-1,1
 298 730 298 730 298 706.5 c 132,-1,2
 298 683 298 683 281 666 c 132,-1,3
 264 649 264 649 240.5 649 c 132,-1,4
 217 649 217 649 200 666 c 132,-1,5
 183 683 183 683 183 706.5 c 132,-1,6
 183 730 183 730 200 746.5 c 132,-1,7
 217 763 217 763 240.5 763 c 132,-1,0
 264 763 264 763 281 746.5 c 132,-1,1
455 746.5 m 132,-1,9
 472 730 472 730 472 706.5 c 132,-1,10
 472 683 472 683 455 666 c 132,-1,11
 438 649 438 649 414.5 649 c 132,-1,12
 391 649 391 649 374 666 c 132,-1,13
 357 683 357 683 357 706.5 c 132,-1,14
 357 730 357 730 374 746.5 c 132,-1,15
 391 763 391 763 414.5 763 c 132,-1,8
 438 763 438 763 455 746.5 c 132,-1,9
655 599 m 5,16,-1
 655 572 l 5,17,18
 645 572 645 572 636 563 c 132,-1,19
 627 554 627 554 627 541 c 6,20,-1
 627 288 l 6,21,22
 626 152 626 152 560 78 c 4,23,24
 489 -2 489 -2 367 -8 c 4,25,26
 340 -10 340 -10 327 -10 c 260,27,28
 108 -10 108 -10 46 163 c 4,29,30
 28 214 28 214 28 288 c 6,31,-1
 28 541 l 6,32,33
 28 554 28 554 19 563 c 132,-1,34
 10 572 10 572 0 572 c 5,35,-1
 0 599 l 5,36,-1
 187 599 l 5,37,-1
 187 572 l 5,38,39
 177 572 177 572 168 563 c 132,-1,40
 159 554 159 554 159 541 c 6,41,-1
 159 286 l 6,42,43
 159 284 159 284 159 283 c 4,44,45
 159 166 159 166 226 118 c 4,46,47
 266 90 266 90 327 89 c 4,48,49
 389 89 389 89 422 112.5 c 132,-1,50
 455 136 455 136 475.5 175.5 c 132,-1,51
 496 215 496 215 496 286 c 6,52,-1
 496 541 l 6,53,54
 496 554 496 554 487 563 c 132,-1,55
 478 572 478 572 468 572 c 5,56,-1
 468 599 l 5,57,-1
 655 599 l 5,16,-1
EndSplineSet
Validated: 1
EndChar

StartChar: Uacute
Encoding: 218 218 33
Width: 743
GlyphClass: 1
Flags: W
LayerCount: 3
Fore
SplineSet
655 599 m 5,0,-1
 655 572 l 5,1,2
 645 572 645 572 636 563 c 132,-1,3
 627 554 627 554 627 541 c 6,4,-1
 627 288 l 6,5,6
 626 152 626 152 560 78 c 4,7,8
 489 -2 489 -2 367 -8 c 4,9,10
 340 -10 340 -10 327 -10 c 260,11,12
 108 -10 108 -10 46 163 c 4,13,14
 28 214 28 214 28 288 c 6,15,-1
 28 541 l 6,16,17
 28 554 28 554 19 563 c 132,-1,18
 10 572 10 572 0 572 c 5,19,-1
 0 599 l 5,20,-1
 187 599 l 5,21,-1
 187 572 l 5,22,23
 177 572 177 572 168 563 c 132,-1,24
 159 554 159 554 159 541 c 6,25,-1
 159 286 l 6,26,27
 159 284 159 284 159 283 c 4,28,29
 159 166 159 166 226 118 c 4,30,31
 266 90 266 90 327 89 c 4,32,33
 389 89 389 89 422 112.5 c 132,-1,34
 455 136 455 136 475.5 175.5 c 132,-1,35
 496 215 496 215 496 286 c 6,36,-1
 496 541 l 6,37,38
 496 554 496 554 487 563 c 132,-1,39
 478 572 478 572 468 572 c 5,40,-1
 468 599 l 5,41,-1
 655 599 l 5,0,-1
433 775 m 5,42,-1
 433 758 l 5,43,44
 418 758 418 758 409 747 c 6,45,-1
 346 678 l 6,46,47
 343 675 343 675 343 673 c 4,48,49
 342 672 342 672 344 670 c 4,50,51
 348 666 348 666 353 666 c 5,52,-1
 353 649 l 5,53,-1
 266 649 l 5,54,-1
 266 666 l 5,55,56
 283 666 283 666 289 680 c 4,57,58
 301 704 301 704 307.5 717.5 c 132,-1,59
 314 731 314 731 318 738 c 6,60,61
 318 738 318 738 323 751 c 5,62,63
 323 757 323 757 312 758 c 5,64,-1
 312 775 l 5,65,-1
 433 775 l 5,42,-1
EndSplineSet
Validated: 1
EndChar

StartChar: Oacute
Encoding: 211 211 34
Width: 760
GlyphClass: 1
Flags: W
LayerCount: 3
Fore
SplineSet
344 610 m 0,0,1
 430 610 430 610 495 585.5 c 128,-1,2
 560 561 560 561 603 519 c 0,3,4
 689 435 689 435 689 300 c 0,5,6
 689 164 689 164 603 80 c 0,7,8
 511 -10 511 -10 345 -10 c 256,9,10
 178 -10 178 -10 86 80 c 0,11,12
 0 164 0 164 0 300 c 0,13,14
 0 435 0 435 86 519 c 0,15,16
 178 610 178 610 344 610 c 0,0,1
195 150 m 256,17,18
 257 88 257 88 344.5 88 c 128,-1,19
 432 88 432 88 494 150 c 128,-1,20
 556 212 556 212 556 300 c 0,21,22
 556 387 556 387 494 449 c 256,23,24
 432 511 432 511 344.5 511 c 128,-1,25
 257 511 257 511 195 449 c 128,-1,26
 133 387 133 387 133 299.5 c 128,-1,27
 133 212 133 212 195 150 c 256,17,18
456 775 m 1,28,-1
 456 758 l 1,29,30
 441 758 441 758 432 747 c 2,31,-1
 369 678 l 2,32,33
 364 673 364 673 367.5 669.5 c 128,-1,34
 371 666 371 666 376 666 c 1,35,-1
 376 649 l 1,36,-1
 289 649 l 1,37,-1
 289 666 l 1,38,39
 306 666 306 666 312 680 c 0,40,41
 324 704 324 704 330 718 c 128,-1,42
 336 732 336 732 340 738 c 2,43,44
 340 738 340 738 346 751 c 1,45,46
 346 757 346 757 335 758 c 1,47,-1
 335 775 l 1,48,-1
 456 775 l 1,28,-1
EndSplineSet
Validated: 1
EndChar

StartChar: Ocircumflex
Encoding: 212 212 35
Width: 760
GlyphClass: 1
Flags: W
LayerCount: 3
Fore
SplineSet
344 610 m 0,0,1
 509 610 509 610 603 519 c 0,2,3
 689 435 689 435 689 300 c 0,4,5
 689 164 689 164 603 80 c 0,6,7
 511 -10 511 -10 345 -10 c 256,8,9
 178 -10 178 -10 86 80 c 0,10,11
 0 164 0 164 0 300 c 0,12,13
 0 435 0 435 86 519 c 0,14,15
 128 561 128 561 193 585.5 c 128,-1,16
 258 610 258 610 344 610 c 0,0,1
494 150 m 128,-1,18
 556 212 556 212 556 299.5 c 128,-1,19
 556 387 556 387 494 449 c 256,20,21
 432 511 432 511 345 511 c 0,22,23
 257 511 257 511 195 449 c 128,-1,24
 133 387 133 387 133 300 c 0,25,26
 133 212 133 212 195 150 c 256,27,28
 257 88 257 88 344.5 88 c 128,-1,17
 432 88 432 88 494 150 c 128,-1,18
210 649 m 1,29,-1
 210 666 l 1,30,31
 222 666 222 666 230 674 c 2,32,-1
 290 741 l 2,33,34
 297 749 297 749 294 753.5 c 128,-1,35
 291 758 291 758 282 758 c 1,36,-1
 282 775 l 1,37,-1
 406 775 l 1,38,-1
 406 758 l 1,39,40
 395 756 395 756 395 750.5 c 128,-1,41
 395 745 395 745 401 739 c 2,42,-1
 460 674 l 2,43,44
 466 666 466 666 478 666 c 1,45,-1
 478 649 l 1,46,-1
 365 649 l 1,47,-1
 365 666 l 1,48,49
 373 666 373 666 375 670.5 c 128,-1,50
 377 675 377 675 372 681 c 2,51,-1
 338 720 l 1,52,-1
 304 681 l 2,53,54
 299 675 299 675 301 670.5 c 128,-1,55
 303 666 303 666 311 666 c 1,56,-1
 311 649 l 1,57,-1
 210 649 l 1,29,-1
EndSplineSet
Validated: 1
EndChar

StartChar: Ograve
Encoding: 210 210 36
Width: 760
GlyphClass: 1
Flags: W
LayerCount: 3
Fore
SplineSet
0 299.5 m 128,-1,1
 0 435 0 435 89.5 522.5 c 128,-1,2
 179 610 179 610 345 610 c 256,3,4
 511 610 511 610 600 523 c 128,-1,5
 689 436 689 436 689 300 c 128,-1,6
 689 164 689 164 600 77 c 128,-1,7
 511 -10 511 -10 344.5 -10 c 128,-1,8
 178 -10 178 -10 89 77 c 128,-1,0
 0 164 0 164 0 299.5 c 128,-1,1
195 150 m 256,9,10
 257 88 257 88 344.5 88 c 128,-1,11
 432 88 432 88 494 150 c 128,-1,12
 556 212 556 212 556 299.5 c 128,-1,13
 556 387 556 387 494 449 c 256,14,15
 432 511 432 511 344.5 511 c 128,-1,16
 257 511 257 511 195 449 c 128,-1,17
 133 387 133 387 133 299.5 c 128,-1,18
 133 212 133 212 195 150 c 256,9,10
354 775 m 1,19,-1
 354 758 l 1,20,21
 343 757 343 757 343 751 c 0,22,23
 343 749 343 749 343.5 748 c 128,-1,24
 344 747 344 747 354.5 725.5 c 128,-1,25
 365 704 365 704 374 685 c 128,-1,26
 383 666 383 666 400 666 c 1,27,-1
 400 649 l 1,28,-1
 313 649 l 1,29,-1
 313 666 l 1,30,31
 318 666 318 666 321.5 669.5 c 128,-1,32
 325 673 325 673 320 678 c 2,33,-1
 257 747 l 2,34,35
 248 758 248 758 233 758 c 1,36,-1
 233 775 l 1,37,-1
 354 775 l 1,19,-1
EndSplineSet
Validated: 1
EndChar

StartChar: Odieresis
Encoding: 214 214 37
Width: 760
GlyphClass: 1
Flags: W
LayerCount: 3
Fore
SplineSet
345 610 m 0,0,1
 431 610 431 610 495.5 585.5 c 128,-1,2
 560 561 560 561 603 519 c 128,-1,3
 646 477 646 477 667.5 420.5 c 128,-1,4
 689 364 689 364 689 300 c 0,5,6
 689 235 689 235 667.5 178.5 c 128,-1,7
 646 122 646 122 603 80 c 128,-1,8
 560 38 560 38 495.5 14 c 128,-1,9
 431 -10 431 -10 345 -10 c 256,10,11
 259 -10 259 -10 194 14 c 128,-1,12
 129 38 129 38 86 80 c 128,-1,13
 43 122 43 122 21.5 178.5 c 128,-1,14
 0 235 0 235 0 300 c 0,15,16
 0 364 0 364 21.5 420.5 c 128,-1,17
 43 477 43 477 85.5 519 c 128,-1,18
 128 561 128 561 193 585.5 c 128,-1,19
 258 610 258 610 345 610 c 0,0,1
494 150 m 132,-1,21
 556 212 556 212 556 299.5 c 132,-1,22
 556 387 556 387 494 449 c 256,23,24
 432 511 432 511 345 511 c 0,25,26
 257 511 257 511 195 449 c 128,-1,27
 133 387 133 387 133 300 c 0,28,29
 133 212 133 212 195 150 c 256,30,31
 257 88 257 88 344.5 88 c 128,-1,20
 432 88 432 88 494 150 c 132,-1,21
315 706 m 0,32,33
 315 683 315 683 298 666 c 128,-1,34
 281 649 281 649 258 649 c 0,35,36
 234 649 234 649 217 666 c 128,-1,37
 200 683 200 683 200 706 c 0,38,39
 200 730 200 730 217 746.5 c 128,-1,40
 234 763 234 763 258 763 c 0,41,42
 281 763 281 763 298 746.5 c 128,-1,43
 315 730 315 730 315 706 c 0,32,33
489 706 m 0,44,45
 489 683 489 683 472 666 c 128,-1,46
 455 649 455 649 432 649 c 0,47,48
 408 649 408 649 391 666 c 128,-1,49
 374 683 374 683 374 706 c 0,50,51
 374 730 374 730 391 746.5 c 128,-1,52
 408 763 408 763 432 763 c 0,53,54
 455 763 455 763 472 746.5 c 128,-1,55
 489 730 489 730 489 706 c 0,44,45
EndSplineSet
Validated: 1
EndChar

StartChar: Otilde
Encoding: 213 213 38
Width: 760
GlyphClass: 1
Flags: W
LayerCount: 3
Fore
SplineSet
344 610 m 0,0,1
 509 610 509 610 603 519 c 0,2,3
 689 435 689 435 689 300 c 0,4,5
 689 164 689 164 603 80 c 0,6,7
 511 -10 511 -10 345 -10 c 256,8,9
 178 -10 178 -10 86 80 c 0,10,11
 0 164 0 164 0 300 c 0,12,13
 0 435 0 435 86 519 c 0,14,15
 128 561 128 561 193 585.5 c 128,-1,16
 258 610 258 610 344 610 c 0,0,1
494 150 m 128,-1,18
 556 212 556 212 556 299.5 c 128,-1,19
 556 387 556 387 494 449 c 256,20,21
 432 511 432 511 345 511 c 0,22,23
 257 511 257 511 195 449 c 128,-1,24
 133 387 133 387 133 300 c 0,25,26
 133 212 133 212 195 150 c 256,27,28
 257 88 257 88 344.5 88 c 128,-1,17
 432 88 432 88 494 150 c 128,-1,18
504 719 m 1,29,-1
 491 704 l 1,30,31
 484 708 484 708 478 708 c 0,32,33
 468 708 468 708 460 698 c 0,34,35
 433 664 433 664 394 664 c 0,36,37
 380 664 380 664 358 672 c 2,38,-1
 345 677 l 1,39,-1
 302 694 l 1,40,41
 292 697 292 697 284 697 c 0,42,43
 273 697 273 697 266 691 c 0,44,45
 253 680 253 680 264 664 c 1,46,-1
 251 649 l 1,47,-1
 186 708 l 1,48,-1
 199 723 l 1,49,50
 206 719 206 719 212 719 c 0,51,52
 222 719 222 719 230 729 c 0,53,54
 257 763 257 763 296 763 c 0,55,56
 310 763 310 763 332 755 c 2,57,-1
 345 750 l 1,58,-1
 388 733 l 1,59,60
 398 730 398 730 406 730 c 0,61,62
 417 730 417 730 424 736 c 0,63,64
 437 747 437 747 426 763 c 1,65,-1
 439 778 l 1,66,-1
 504 719 l 1,29,-1
EndSplineSet
Validated: 1
EndChar

StartChar: Edieresis
Encoding: 203 203 39
Width: 655
GlyphClass: 1
Flags: W
LayerCount: 3
Fore
SplineSet
263 706 m 0,0,1
 263 683 263 683 246 666 c 128,-1,2
 229 649 229 649 205 649 c 0,3,4
 182 649 182 649 165 666 c 128,-1,5
 148 683 148 683 148 706 c 0,6,7
 148 730 148 730 165 746.5 c 128,-1,8
 182 763 182 763 205 763 c 0,9,10
 229 763 229 763 246 746.5 c 128,-1,11
 263 730 263 730 263 706 c 0,0,1
437 706 m 0,12,13
 437 683 437 683 420 666 c 128,-1,14
 403 649 403 649 379 649 c 0,15,16
 356 649 356 649 339 666 c 128,-1,17
 322 683 322 683 322 706 c 0,18,19
 322 730 322 730 339 746.5 c 128,-1,20
 356 763 356 763 379 763 c 0,21,22
 403 763 403 763 420 746.5 c 128,-1,23
 437 730 437 730 437 706 c 0,12,13
585 127 m 1,24,-1
 585 -28 l 1,25,-1
 558 -28 l 1,26,27
 556 -16 556 -16 547 -8 c 128,-1,28
 538 0 538 0 527 0 c 2,29,-1
 0 0 l 1,30,-1
 0 27 l 1,31,32
 12 29 12 29 20 38 c 128,-1,33
 28 47 28 47 28 58 c 2,34,-1
 28 541 l 2,35,36
 28 554 28 554 19 563 c 128,-1,37
 10 572 10 572 0 572 c 1,38,-1
 0 599 l 1,39,-1
 517 599 l 2,40,41
 529 599 529 599 537.5 607.5 c 128,-1,42
 546 616 546 616 548 627 c 1,43,-1
 575 627 l 1,44,-1
 575 473 l 1,45,-1
 548 473 l 1,46,47
 546 485 546 485 537.5 493 c 128,-1,48
 529 501 529 501 517 501 c 2,49,-1
 159 501 l 1,50,-1
 159 349 l 1,51,-1
 363 349 l 2,52,53
 376 349 376 349 384 357 c 128,-1,54
 392 365 392 365 394 377 c 1,55,-1
 421 377 l 1,56,-1
 421 222 l 1,57,-1
 394 222 l 1,58,59
 393 233 393 233 384.5 241.5 c 128,-1,60
 376 250 376 250 363 250 c 2,61,-1
 159 250 l 1,62,-1
 159 99 l 1,63,-1
 527 99 l 2,64,65
 540 99 540 99 548.5 107.5 c 128,-1,66
 557 116 557 116 558 127 c 1,67,-1
 585 127 l 1,24,-1
EndSplineSet
Validated: 1
EndChar

StartChar: Egrave
Encoding: 200 200 40
Width: 655
GlyphClass: 1
Flags: W
LayerCount: 3
Fore
SplineSet
585 127 m 1,0,-1
 585 -28 l 1,1,-1
 558 -28 l 1,2,3
 556 -16 556 -16 547 -8 c 128,-1,4
 538 0 538 0 527 0 c 2,5,-1
 0 0 l 1,6,-1
 0 27 l 1,7,8
 12 29 12 29 20 38 c 128,-1,9
 28 47 28 47 28 58 c 2,10,-1
 28 541 l 2,11,12
 28 554 28 554 19 563 c 128,-1,13
 10 572 10 572 0 572 c 1,14,-1
 0 599 l 1,15,-1
 517 599 l 2,16,17
 529 599 529 599 537.5 607.5 c 128,-1,18
 546 616 546 616 548 627 c 1,19,-1
 575 627 l 1,20,-1
 575 473 l 1,21,-1
 548 473 l 1,22,23
 546 485 546 485 537.5 493 c 128,-1,24
 529 501 529 501 517 501 c 2,25,-1
 159 501 l 1,26,-1
 159 349 l 1,27,-1
 363 349 l 2,28,29
 376 349 376 349 384 357 c 128,-1,30
 392 365 392 365 394 377 c 1,31,-1
 421 377 l 1,32,-1
 421 222 l 1,33,-1
 394 222 l 1,34,35
 393 233 393 233 384.5 241.5 c 128,-1,36
 376 250 376 250 363 250 c 2,37,-1
 159 250 l 1,38,-1
 159 99 l 1,39,-1
 527 99 l 2,40,41
 540 99 540 99 548.5 107.5 c 128,-1,42
 557 116 557 116 558 127 c 1,43,-1
 585 127 l 1,0,-1
330 775 m 1,44,-1
 330 758 l 1,45,46
 319 757 319 757 319 751 c 0,47,48
 319 749 319 749 320 747 c 128,-1,49
 321 745 321 745 324.5 738 c 128,-1,50
 328 731 328 731 334.5 717.5 c 128,-1,51
 341 704 341 704 353 680 c 0,52,53
 359 666 359 666 376 666 c 1,54,-1
 376 649 l 1,55,-1
 289 649 l 1,56,-1
 289 666 l 1,57,58
 294 666 294 666 297.5 669.5 c 128,-1,59
 301 673 301 673 296 678 c 2,60,-1
 233 747 l 2,61,62
 224 758 224 758 209 758 c 1,63,-1
 209 775 l 1,64,-1
 330 775 l 1,44,-1
EndSplineSet
Validated: 1
EndChar

StartChar: Ecircumflex
Encoding: 202 202 41
Width: 655
GlyphClass: 1
Flags: W
LayerCount: 3
Fore
SplineSet
585 127 m 1,0,-1
 585 -28 l 1,1,-1
 558 -28 l 1,2,3
 556 -16 556 -16 547 -8 c 128,-1,4
 538 0 538 0 527 0 c 2,5,-1
 0 0 l 1,6,-1
 0 27 l 1,7,8
 12 29 12 29 20 38 c 128,-1,9
 28 47 28 47 28 58 c 2,10,-1
 28 541 l 2,11,12
 28 554 28 554 19 563 c 128,-1,13
 10 572 10 572 0 572 c 1,14,-1
 0 599 l 1,15,-1
 517 599 l 2,16,17
 529 599 529 599 537.5 607.5 c 128,-1,18
 546 616 546 616 548 627 c 1,19,-1
 575 627 l 1,20,-1
 575 473 l 1,21,-1
 548 473 l 1,22,23
 546 485 546 485 537.5 493 c 128,-1,24
 529 501 529 501 517 501 c 2,25,-1
 159 501 l 1,26,-1
 159 349 l 1,27,-1
 363 349 l 2,28,29
 376 349 376 349 384 357 c 128,-1,30
 392 365 392 365 394 377 c 1,31,-1
 421 377 l 1,32,-1
 421 222 l 1,33,-1
 394 222 l 1,34,35
 393 233 393 233 384.5 241.5 c 128,-1,36
 376 250 376 250 363 250 c 2,37,-1
 159 250 l 1,38,-1
 159 99 l 1,39,-1
 527 99 l 2,40,41
 540 99 540 99 548.5 107.5 c 128,-1,42
 557 116 557 116 558 127 c 1,43,-1
 585 127 l 1,0,-1
158 649 m 1,44,-1
 158 666 l 1,45,46
 166 666 166 666 170 668 c 128,-1,47
 174 670 174 670 178 674 c 2,48,-1
 238 741 l 2,49,50
 245 749 245 749 242 753.5 c 128,-1,51
 239 758 239 758 230 758 c 1,52,-1
 230 775 l 1,53,-1
 354 775 l 1,54,-1
 354 758 l 1,55,56
 343 756 343 756 343 750.5 c 128,-1,57
 343 745 343 745 349 739 c 2,58,-1
 408 674 l 2,59,60
 414 666 414 666 426 666 c 1,61,-1
 426 649 l 1,62,-1
 313 649 l 1,63,-1
 313 666 l 1,64,65
 321 666 321 666 323 670.5 c 128,-1,66
 325 675 325 675 320 681 c 2,67,-1
 286 720 l 1,68,-1
 252 681 l 2,69,70
 247 675 247 675 249 670.5 c 128,-1,71
 251 666 251 666 259 666 c 1,72,-1
 259 649 l 1,73,-1
 158 649 l 1,44,-1
EndSplineSet
Validated: 1
EndChar

StartChar: Eacute
Encoding: 201 201 42
Width: 655
GlyphClass: 1
Flags: W
LayerCount: 3
Fore
SplineSet
585 127 m 1,0,-1
 585 -28 l 1,1,-1
 558 -28 l 1,2,3
 556 -16 556 -16 547 -8 c 128,-1,4
 538 0 538 0 527 0 c 2,5,-1
 0 0 l 1,6,-1
 0 27 l 1,7,8
 12 29 12 29 20 38 c 128,-1,9
 28 47 28 47 28 58 c 2,10,-1
 28 541 l 2,11,12
 28 554 28 554 19 563 c 128,-1,13
 10 572 10 572 0 572 c 1,14,-1
 0 599 l 1,15,-1
 517 599 l 2,16,17
 529 599 529 599 537.5 607.5 c 128,-1,18
 546 616 546 616 548 627 c 1,19,-1
 575 627 l 1,20,-1
 575 473 l 1,21,-1
 548 473 l 1,22,23
 546 485 546 485 537.5 493 c 128,-1,24
 529 501 529 501 517 501 c 2,25,-1
 159 501 l 1,26,-1
 159 349 l 1,27,-1
 363 349 l 2,28,29
 376 349 376 349 384 357 c 128,-1,30
 392 365 392 365 394 377 c 1,31,-1
 421 377 l 1,32,-1
 421 222 l 1,33,-1
 394 222 l 1,34,35
 393 233 393 233 384.5 241.5 c 128,-1,36
 376 250 376 250 363 250 c 2,37,-1
 159 250 l 1,38,-1
 159 99 l 1,39,-1
 527 99 l 2,40,41
 540 99 540 99 548.5 107.5 c 128,-1,42
 557 116 557 116 558 127 c 1,43,-1
 585 127 l 1,0,-1
409 775 m 1,44,-1
 409 758 l 1,45,46
 394 758 394 758 385 747 c 2,47,-1
 322 678 l 2,48,49
 317 673 317 673 320.5 669.5 c 128,-1,50
 324 666 324 666 329 666 c 1,51,-1
 329 649 l 1,52,-1
 242 649 l 1,53,-1
 242 666 l 1,54,55
 259 666 259 666 265 680 c 0,56,57
 277 704 277 704 283.5 717.5 c 128,-1,58
 290 731 290 731 293.5 738 c 128,-1,59
 297 745 297 745 298 747 c 128,-1,60
 299 749 299 749 299 751 c 0,61,62
 299 757 299 757 288 758 c 1,63,-1
 288 775 l 1,64,-1
 409 775 l 1,44,-1
EndSplineSet
Validated: 1
EndChar

StartChar: Aring
Encoding: 197 197 43
Width: 760
GlyphClass: 1
Flags: W
LayerCount: 3
Fore
SplineSet
408 757 m 0,0,1
 431 737 431 737 431 712 c 0,2,3
 431 685 431 685 408 667 c 256,4,5
 385 649 385 649 354 649 c 0,6,7
 322 649 322 649 300 667 c 0,8,9
 277 687 277 687 277 712 c 0,10,11
 277 738 277 738 299 757 c 0,12,13
 321 775 321 775 354 775 c 256,14,15
 387 775 387 775 408 757 c 0,0,1
381 689 m 0,16,17
 393 698 393 698 393 712 c 256,18,19
 393 726 393 726 382 735 c 256,20,21
 371 744 371 744 354 744 c 0,22,23
 338 744 338 744 326 735 c 0,24,25
 315 726 315 726 315 712 c 256,26,27
 315 698 315 698 327 689 c 0,28,29
 337 680 337 680 354 680 c 0,30,31
 370 680 370 680 381 689 c 0,16,17
666 58 m 2,32,33
 675 39 675 39 683.5 35 c 128,-1,34
 692 31 692 31 709 27 c 1,35,36
 709 27 709 27 709 0 c 1,37,-1
 522 0 l 1,38,-1
 522 27 l 1,39,40
 533 29 533 29 536.5 38 c 128,-1,41
 540 47 540 47 535 58 c 2,42,43
 535 58 535 58 498 136 c 1,44,-1
 210 136 l 1,45,-1
 174 58 l 2,46,47
 169 49 169 49 172 39 c 128,-1,48
 175 29 175 29 187 27 c 1,49,50
 187 27 187 27 187 0 c 1,51,-1
 0 0 l 1,52,-1
 0 27 l 1,53,54
 17 31 17 31 25 35 c 128,-1,55
 33 39 33 39 43 58 c 2,56,57
 43 58 43 58 269 541 c 2,58,59
 275 555 275 555 269 563 c 128,-1,60
 263 571 263 571 255 573 c 1,61,62
 255 573 255 573 255 599 c 1,63,-1
 453 599 l 1,64,-1
 453 573 l 1,65,66
 445 571 445 571 439.5 563 c 128,-1,67
 434 555 434 555 440 541 c 2,68,69
 440 541 440 541 666 58 c 2,32,33
256 235 m 1,70,-1
 452 235 l 1,71,-1
 354 444 l 1,72,-1
 256 235 l 1,70,-1
EndSplineSet
Validated: 1
EndChar

StartChar: Adieresis
Encoding: 196 196 44
Width: 760
GlyphClass: 1
Flags: W
LayerCount: 3
Fore
SplineSet
324 706 m 0,0,1
 324 683 324 683 307.5 666 c 128,-1,2
 291 649 291 649 267 649 c 0,3,4
 244 649 244 649 227 666 c 128,-1,5
 210 683 210 683 210 706 c 0,6,7
 210 730 210 730 227 746.5 c 128,-1,8
 244 763 244 763 267 763 c 0,9,10
 291 763 291 763 307.5 746.5 c 128,-1,11
 324 730 324 730 324 706 c 0,0,1
498 706 m 0,12,13
 498 683 498 683 481.5 666 c 128,-1,14
 465 649 465 649 441 649 c 0,15,16
 418 649 418 649 401 666 c 128,-1,17
 384 683 384 683 384 706 c 0,18,19
 384 730 384 730 401 746.5 c 128,-1,20
 418 763 418 763 441 763 c 0,21,22
 465 763 465 763 481.5 746.5 c 128,-1,23
 498 730 498 730 498 706 c 0,12,13
666 58 m 2,24,25
 675 39 675 39 683.5 35 c 128,-1,26
 692 31 692 31 709 27 c 1,27,28
 709 27 709 27 709 0 c 1,29,-1
 522 0 l 1,30,-1
 522 27 l 1,31,32
 533 29 533 29 536.5 38 c 128,-1,33
 540 47 540 47 535 58 c 2,34,35
 535 58 535 58 498 136 c 1,36,-1
 210 136 l 1,37,-1
 174 58 l 2,38,39
 169 49 169 49 172 39 c 128,-1,40
 175 29 175 29 187 27 c 1,41,42
 187 27 187 27 187 0 c 1,43,-1
 0 0 l 1,44,-1
 0 27 l 1,45,46
 17 31 17 31 25 35 c 128,-1,47
 33 39 33 39 43 58 c 2,48,49
 43 58 43 58 269 541 c 2,50,51
 275 555 275 555 269 563 c 128,-1,52
 263 571 263 571 255 573 c 1,53,54
 255 573 255 573 255 599 c 1,55,-1
 453 599 l 1,56,-1
 453 573 l 1,57,58
 445 571 445 571 439.5 563 c 128,-1,59
 434 555 434 555 440 541 c 2,60,61
 440 541 440 541 666 58 c 2,24,25
256 235 m 1,62,-1
 452 235 l 1,63,-1
 354 444 l 1,64,-1
 256 235 l 1,62,-1
EndSplineSet
Validated: 1
EndChar

StartChar: Atilde
Encoding: 195 195 45
Width: 760
GlyphClass: 1
Flags: W
LayerCount: 3
Fore
SplineSet
513 719 m 1,0,-1
 500 704 l 1,1,2
 493 708 493 708 487 708 c 0,3,4
 477 708 477 708 469 698 c 0,5,6
 442 664 442 664 403 664 c 0,7,8
 389 664 389 664 367 672 c 2,9,-1
 354 677 l 1,10,-1
 311 694 l 2,11,12
 301 697 301 697 293 697 c 0,13,14
 282 697 282 697 275 691 c 0,15,16
 262 680 262 680 273 664 c 1,17,-1
 260 649 l 1,18,-1
 195 708 l 1,19,-1
 208 723 l 1,20,21
 215 719 215 719 221 719 c 0,22,23
 231 719 231 719 239 729 c 0,24,25
 266 763 266 763 305 763 c 0,26,27
 319 763 319 763 341 755 c 2,28,-1
 354 750 l 1,29,-1
 397 733 l 2,30,31
 407 730 407 730 415 730 c 0,32,33
 426 730 426 730 433 736 c 0,34,35
 446 747 446 747 435 763 c 1,36,-1
 448 778 l 1,37,-1
 513 719 l 1,0,-1
666 58 m 2,38,39
 675 39 675 39 683.5 35 c 128,-1,40
 692 31 692 31 709 27 c 1,41,42
 709 27 709 27 709 0 c 1,43,-1
 522 0 l 1,44,-1
 522 27 l 1,45,46
 533 29 533 29 536.5 38 c 128,-1,47
 540 47 540 47 535 58 c 2,48,49
 535 58 535 58 498 136 c 1,50,-1
 210 136 l 1,51,-1
 174 58 l 2,52,53
 169 49 169 49 172 39 c 128,-1,54
 175 29 175 29 187 27 c 1,55,56
 187 27 187 27 187 0 c 1,57,-1
 0 0 l 1,58,-1
 0 27 l 1,59,60
 17 31 17 31 25 35 c 128,-1,61
 33 39 33 39 43 58 c 2,62,63
 43 58 43 58 269 541 c 2,64,65
 275 555 275 555 269 563 c 128,-1,66
 263 571 263 571 255 573 c 1,67,68
 255 573 255 573 255 599 c 1,69,-1
 453 599 l 1,70,-1
 453 573 l 1,71,72
 445 571 445 571 439.5 563 c 128,-1,73
 434 555 434 555 440 541 c 2,74,75
 440 541 440 541 666 58 c 2,38,39
256 235 m 1,76,-1
 452 235 l 1,77,-1
 354 444 l 1,78,-1
 256 235 l 1,76,-1
EndSplineSet
Validated: 1
EndChar

StartChar: Aacute
Encoding: 193 193 46
Width: 760
GlyphClass: 1
Flags: W
LayerCount: 3
Fore
SplineSet
469 775 m 1,0,-1
 469 758 l 1,1,2
 454 758 454 758 445 747 c 2,3,-1
 382 678 l 2,4,5
 377 673 377 673 380.5 669.5 c 128,-1,6
 384 666 384 666 389 666 c 1,7,-1
 389 649 l 1,8,-1
 302 649 l 1,9,-1
 302 666 l 1,10,11
 319 666 319 666 325 680 c 0,12,13
 337 704 337 704 343.5 717.5 c 128,-1,14
 350 731 350 731 353.5 738 c 128,-1,15
 357 745 357 745 358 747 c 128,-1,16
 359 749 359 749 359 751 c 0,17,18
 359 757 359 757 348 758 c 1,19,-1
 348 775 l 1,20,-1
 469 775 l 1,0,-1
666 58 m 2,21,22
 675 39 675 39 683.5 35 c 128,-1,23
 692 31 692 31 709 27 c 1,24,-1
 709 0 l 1,25,-1
 522 0 l 1,26,-1
 522 27 l 1,27,28
 533 29 533 29 536.5 38 c 128,-1,29
 540 47 540 47 535 58 c 2,30,-1
 498 136 l 1,31,-1
 210 136 l 1,32,-1
 174 58 l 2,33,34
 169 49 169 49 172 39 c 128,-1,35
 175 29 175 29 187 27 c 1,36,-1
 187 0 l 1,37,-1
 0 0 l 1,38,-1
 0 27 l 1,39,40
 17 31 17 31 25 35 c 128,-1,41
 33 39 33 39 43 58 c 2,42,-1
 269 541 l 2,43,44
 275 555 275 555 269 563 c 128,-1,45
 263 571 263 571 255 573 c 1,46,-1
 255 599 l 1,47,-1
 453 599 l 1,48,-1
 453 573 l 1,49,50
 445 571 445 571 439.5 563 c 128,-1,51
 434 555 434 555 440 541 c 2,52,-1
 666 58 l 2,21,22
452 235 m 1,53,-1
 354 444 l 1,54,-1
 256 235 l 1,55,-1
 452 235 l 1,53,-1
EndSplineSet
Validated: 1
EndChar

StartChar: Acircumflex
Encoding: 194 194 47
Width: 760
GlyphClass: 1
Flags: W
LayerCount: 3
Fore
SplineSet
220 649 m 1,0,-1
 220 666 l 1,1,2
 228 666 228 666 232 668 c 128,-1,3
 236 670 236 670 240 674 c 2,4,-1
 300 741 l 2,5,6
 307 749 307 749 304 753.5 c 128,-1,7
 301 758 301 758 292 758 c 1,8,-1
 292 775 l 1,9,-1
 416 775 l 1,10,-1
 416 758 l 1,11,12
 405 756 405 756 405 750.5 c 128,-1,13
 405 745 405 745 411 739 c 2,14,-1
 470 674 l 2,15,16
 476 666 476 666 488 666 c 1,17,-1
 488 649 l 1,18,-1
 375 649 l 1,19,-1
 375 666 l 1,20,21
 383 666 383 666 385 670.5 c 128,-1,22
 387 675 387 675 382 681 c 2,23,-1
 348 720 l 1,24,-1
 314 681 l 2,25,26
 309 675 309 675 311 670.5 c 128,-1,27
 313 666 313 666 321 666 c 1,28,-1
 321 649 l 1,29,-1
 220 649 l 1,0,-1
666 58 m 2,30,31
 675 39 675 39 683.5 35 c 128,-1,32
 692 31 692 31 709 27 c 1,33,34
 709 27 709 27 709 0 c 1,35,-1
 522 0 l 1,36,-1
 522 27 l 1,37,38
 533 29 533 29 536.5 38 c 128,-1,39
 540 47 540 47 535 58 c 2,40,41
 535 58 535 58 498 136 c 1,42,-1
 210 136 l 1,43,-1
 174 58 l 2,44,45
 169 49 169 49 172 39 c 128,-1,46
 175 29 175 29 187 27 c 1,47,48
 187 27 187 27 187 0 c 1,49,-1
 0 0 l 1,50,-1
 0 27 l 1,51,52
 17 31 17 31 25 35 c 128,-1,53
 33 39 33 39 43 58 c 2,54,55
 43 58 43 58 269 541 c 2,56,57
 275 555 275 555 269 563 c 128,-1,58
 263 571 263 571 255 573 c 1,59,60
 255 573 255 573 255 599 c 1,61,-1
 453 599 l 1,62,-1
 453 573 l 1,63,64
 445 571 445 571 439.5 563 c 128,-1,65
 434 555 434 555 440 541 c 2,66,67
 440 541 440 541 666 58 c 2,30,31
256 235 m 1,68,-1
 452 235 l 1,69,-1
 354 444 l 1,70,-1
 256 235 l 1,68,-1
EndSplineSet
Validated: 1
EndChar

StartChar: Agrave
Encoding: 192 192 48
Width: 758
GlyphClass: 1
Flags: W
LayerCount: 3
Fore
SplineSet
360 775 m 1,0,-1
 360 758 l 1,1,2
 349 757 349 757 349 751 c 0,3,4
 349 749 349 749 350 747 c 128,-1,5
 351 745 351 745 354.5 738 c 128,-1,6
 358 731 358 731 364.5 717.5 c 128,-1,7
 371 704 371 704 383 680 c 0,8,9
 389 666 389 666 406 666 c 1,10,-1
 406 649 l 1,11,-1
 319 649 l 1,12,-1
 319 666 l 1,13,14
 324 666 324 666 327.5 669.5 c 128,-1,15
 331 673 331 673 326 678 c 2,16,-1
 263 747 l 2,17,18
 254 758 254 758 239 758 c 1,19,-1
 239 775 l 1,20,-1
 360 775 l 1,0,-1
666 58 m 2,21,22
 675 39 675 39 683.5 35 c 128,-1,23
 692 31 692 31 709 27 c 1,24,25
 709 27 709 27 709 0 c 1,26,-1
 522 0 l 1,27,-1
 522 27 l 1,28,29
 533 29 533 29 536.5 38 c 128,-1,30
 540 47 540 47 535 58 c 2,31,32
 535 58 535 58 498 136 c 1,33,-1
 210 136 l 1,34,-1
 174 58 l 2,35,36
 169 49 169 49 172 39 c 128,-1,37
 175 29 175 29 187 27 c 1,38,39
 187 27 187 27 187 0 c 1,40,-1
 0 0 l 1,41,-1
 0 27 l 1,42,43
 17 31 17 31 25 35 c 128,-1,44
 33 39 33 39 43 58 c 2,45,46
 43 58 43 58 269 541 c 2,47,48
 275 555 275 555 269 563 c 128,-1,49
 263 571 263 571 255 573 c 1,50,51
 255 573 255 573 255 599 c 1,52,-1
 453 599 l 1,53,-1
 453 573 l 1,54,55
 445 571 445 571 439.5 563 c 128,-1,56
 434 555 434 555 440 541 c 2,57,58
 440 541 440 541 666 58 c 2,21,22
256 235 m 1,59,-1
 452 235 l 1,60,-1
 354 444 l 1,61,-1
 256 235 l 1,59,-1
EndSplineSet
Validated: 1
EndChar

StartChar: Ydieresis
Encoding: 376 376 49
Width: 683
GlyphClass: 1
Flags: W
LayerCount: 3
Fore
SplineSet
269.5 746.5 m 128,-1,1
 286 730 286 730 286 706.5 c 128,-1,2
 286 683 286 683 269.5 666 c 128,-1,3
 253 649 253 649 229 649 c 256,4,5
 205 649 205 649 188.5 666 c 128,-1,6
 172 683 172 683 172 706.5 c 128,-1,7
 172 730 172 730 188.5 746.5 c 128,-1,8
 205 763 205 763 229 763 c 256,9,0
 253 763 253 763 269.5 746.5 c 128,-1,1
443.5 746.5 m 128,-1,11
 460 730 460 730 460 706.5 c 128,-1,12
 460 683 460 683 443.5 666 c 128,-1,13
 427 649 427 649 403 649 c 256,14,15
 379 649 379 649 362.5 666 c 128,-1,16
 346 683 346 683 346 706.5 c 128,-1,17
 346 730 346 730 362.5 746.5 c 128,-1,18
 379 763 379 763 403 763 c 256,19,10
 427 763 427 763 443.5 746.5 c 128,-1,11
633 599 m 1,20,-1
 633 572 l 1,21,22
 602 567 602 567 581 541 c 2,23,-1
 382 286 l 1,24,-1
 382 58 l 2,25,26
 382 45 382 45 390.5 36.5 c 128,-1,27
 399 28 399 28 410 27 c 1,28,-1
 410 0 l 1,29,-1
 223 0 l 1,30,-1
 223 27 l 1,31,32
 233 28 233 28 242 37 c 128,-1,33
 251 46 251 46 251 58 c 2,34,-1
 251 286 l 1,35,-1
 52 541 l 2,36,37
 31 567 31 567 0 572 c 1,38,-1
 0 599 l 1,39,-1
 206 599 l 1,40,-1
 206 572 l 1,41,42
 196 571 196 571 194 563 c 128,-1,43
 192 555 192 555 203 541 c 2,44,-1
 316 396 l 1,45,-1
 430 541 l 2,46,47
 441 555 441 555 439 563 c 128,-1,48
 437 571 437 571 427 572 c 1,49,-1
 427 599 l 1,50,-1
 633 599 l 1,20,-1
EndSplineSet
Validated: 1
EndChar

StartChar: Yacute
Encoding: 221 221 50
Width: 683
GlyphClass: 1
Flags: W
LayerCount: 3
Fore
SplineSet
633 599 m 1,0,-1
 633 572 l 1,1,2
 620 570 620 570 606 562.5 c 128,-1,3
 592 555 592 555 581 541 c 2,4,-1
 382 286 l 1,5,-1
 382 58 l 2,6,7
 382 45 382 45 390.5 36.5 c 128,-1,8
 399 28 399 28 410 27 c 1,9,-1
 410 0 l 1,10,-1
 223 0 l 1,11,-1
 223 27 l 1,12,13
 233 28 233 28 242 37 c 128,-1,14
 251 46 251 46 251 58 c 2,15,-1
 251 286 l 1,16,-1
 52 541 l 2,17,18
 41 555 41 555 27 562.5 c 128,-1,19
 13 570 13 570 0 572 c 1,20,-1
 0 599 l 1,21,-1
 206 599 l 1,22,-1
 206 572 l 1,23,24
 196 571 196 571 194 563 c 128,-1,25
 192 555 192 555 203 541 c 2,26,-1
 316 396 l 1,27,-1
 430 541 l 2,28,29
 441 555 441 555 439 563 c 128,-1,30
 437 571 437 571 427 572 c 1,31,-1
 427 599 l 1,32,-1
 633 599 l 1,0,-1
411 775 m 1,33,-1
 411 758 l 1,34,35
 396 758 396 758 387 747 c 2,36,-1
 324 678 l 2,37,38
 319 673 319 673 322.5 669.5 c 128,-1,39
 326 666 326 666 331 666 c 1,40,-1
 331 649 l 1,41,-1
 244 649 l 1,42,-1
 244 666 l 1,43,44
 261 666 261 666 267 680 c 0,45,46
 279 704 279 704 285.5 717.5 c 128,-1,47
 292 731 292 731 295.5 738 c 128,-1,48
 299 745 299 745 300 747 c 128,-1,49
 301 749 301 749 301 751 c 0,50,51
 301 757 301 757 290 758 c 1,52,-1
 290 775 l 1,53,-1
 411 775 l 1,33,-1
EndSplineSet
Validated: 1
EndChar

StartChar: Igrave
Encoding: 204 204 51
Width: 275
GlyphClass: 1
Flags: W
LayerCount: 3
Fore
SplineSet
121 775 m 1,0,-1
 121 758 l 1,1,2
 110 757 110 757 110 751 c 0,3,4
 110 749 110 749 111 747 c 128,-1,5
 112 745 112 745 115.5 738 c 128,-1,6
 119 731 119 731 125.5 717.5 c 128,-1,7
 132 704 132 704 144 680 c 0,8,9
 150 666 150 666 167 666 c 1,10,-1
 167 649 l 1,11,-1
 80 649 l 1,12,-1
 80 666 l 1,13,14
 85 666 85 666 88.5 669.5 c 128,-1,15
 92 673 92 673 87 678 c 2,16,-1
 24 747 l 2,17,18
 15 758 15 758 0 758 c 1,19,-1
 0 775 l 1,20,-1
 121 775 l 1,0,-1
180 58 m 2,21,22
 180 47 180 47 188 38 c 128,-1,23
 196 29 196 29 208 27 c 1,24,-1
 208 0 l 1,25,-1
 21 0 l 1,26,-1
 21 27 l 1,27,28
 33 29 33 29 41 38 c 128,-1,29
 49 47 49 47 49 58 c 2,30,-1
 49 541 l 2,31,32
 49 554 49 554 40 563 c 128,-1,33
 31 572 31 572 21 572 c 1,34,-1
 21 599 l 1,35,-1
 208 599 l 1,36,-1
 208 572 l 1,37,38
 198 572 198 572 189 563 c 128,-1,39
 180 554 180 554 180 541 c 2,40,-1
 180 58 l 2,21,22
EndSplineSet
Validated: 1
EndChar

StartChar: Icircumflex
Encoding: 206 206 52
Width: 287
GlyphClass: 1
Flags: W
LayerCount: 3
Fore
SplineSet
199 58 m 2,0,1
 199 47 199 47 207 38 c 128,-1,2
 215 29 215 29 227 27 c 1,3,-1
 227 0 l 1,4,-1
 40 0 l 1,5,-1
 40 27 l 1,6,7
 52 29 52 29 60 38 c 128,-1,8
 68 47 68 47 68 58 c 2,9,-1
 68 541 l 2,10,11
 68 554 68 554 59 563 c 128,-1,12
 50 572 50 572 40 572 c 1,13,-1
 40 599 l 1,14,-1
 227 599 l 1,15,-1
 227 572 l 1,16,17
 217 572 217 572 208 563 c 128,-1,18
 199 554 199 554 199 541 c 2,19,-1
 199 58 l 2,0,1
0 649 m 1,20,-1
 0 666 l 1,21,22
 8 666 8 666 12 668 c 128,-1,23
 16 670 16 670 20 674 c 2,24,-1
 80 741 l 2,25,26
 87 749 87 749 84 753.5 c 128,-1,27
 81 758 81 758 72 758 c 1,28,-1
 72 775 l 1,29,-1
 196 775 l 1,30,-1
 196 758 l 1,31,32
 185 756 185 756 185 750.5 c 128,-1,33
 185 745 185 745 191 739 c 2,34,-1
 250 674 l 2,35,36
 256 666 256 666 268 666 c 1,37,-1
 268 649 l 1,38,-1
 155 649 l 1,39,-1
 155 666 l 1,40,41
 163 666 163 666 165 670.5 c 128,-1,42
 167 675 167 675 162 681 c 2,43,-1
 128 720 l 1,44,-1
 94 681 l 2,45,46
 89 675 89 675 91 670.5 c 128,-1,47
 93 666 93 666 101 666 c 1,48,-1
 101 649 l 1,49,-1
 0 649 l 1,20,-1
EndSplineSet
Validated: 1
EndChar

StartChar: Iacute
Encoding: 205 205 53
Width: 275
GlyphClass: 1
Flags: W
LayerCount: 3
Fore
SplineSet
208 775 m 1,0,-1
 208 758 l 1,1,2
 193 758 193 758 184 747 c 2,3,-1
 121 678 l 2,4,5
 116 673 116 673 119.5 669.5 c 128,-1,6
 123 666 123 666 128 666 c 1,7,-1
 128 649 l 1,8,-1
 41 649 l 1,9,-1
 41 666 l 1,10,11
 58 666 58 666 64 680 c 0,12,13
 76 704 76 704 82.5 717.5 c 128,-1,14
 89 731 89 731 92.5 738 c 128,-1,15
 96 745 96 745 97 747 c 128,-1,16
 98 749 98 749 98 751 c 0,17,18
 98 757 98 757 87 758 c 1,19,-1
 87 775 l 1,20,-1
 208 775 l 1,0,-1
159 58 m 2,21,22
 159 47 159 47 167 38 c 128,-1,23
 175 29 175 29 187 27 c 1,24,-1
 187 0 l 1,25,-1
 0 0 l 1,26,-1
 0 27 l 1,27,28
 12 29 12 29 20 38 c 128,-1,29
 28 47 28 47 28 58 c 2,30,-1
 28 541 l 2,31,32
 28 554 28 554 19 563 c 128,-1,33
 10 572 10 572 0 572 c 1,34,-1
 0 599 l 1,35,-1
 187 599 l 1,36,-1
 187 572 l 1,37,38
 177 572 177 572 168 563 c 128,-1,39
 159 554 159 554 159 541 c 2,40,-1
 159 58 l 2,21,22
EndSplineSet
Validated: 1
EndChar

StartChar: Idieresis
Encoding: 207 207 54
Width: 333
GlyphClass: 1
Flags: W
LayerCount: 3
Fore
SplineSet
114 706 m 0,0,1
 114 683 114 683 97.5 666 c 128,-1,2
 81 649 81 649 57 649 c 0,3,4
 34 649 34 649 17 666 c 128,-1,5
 0 683 0 683 0 706 c 0,6,7
 0 730 0 730 17 746.5 c 128,-1,8
 34 763 34 763 57 763 c 0,9,10
 81 763 81 763 97.5 746.5 c 128,-1,11
 114 730 114 730 114 706 c 0,0,1
288 706 m 0,12,13
 288 683 288 683 271.5 666 c 128,-1,14
 255 649 255 649 231 649 c 0,15,16
 208 649 208 649 191 666 c 128,-1,17
 174 683 174 683 174 706 c 0,18,19
 174 730 174 730 191 746.5 c 128,-1,20
 208 763 208 763 231 763 c 0,21,22
 255 763 255 763 271.5 746.5 c 128,-1,23
 288 730 288 730 288 706 c 0,12,13
210 58 m 2,24,25
 210 47 210 47 218 38 c 128,-1,26
 226 29 226 29 238 27 c 1,27,-1
 238 0 l 1,28,-1
 51 0 l 1,29,-1
 51 27 l 1,30,31
 63 29 63 29 71 38 c 128,-1,32
 79 47 79 47 79 58 c 2,33,-1
 79 541 l 2,34,35
 79 554 79 554 70 563 c 128,-1,36
 61 572 61 572 51 572 c 1,37,-1
 51 599 l 1,38,-1
 238 599 l 1,39,-1
 238 572 l 1,40,41
 228 572 228 572 219 563 c 128,-1,42
 210 554 210 554 210 541 c 2,43,-1
 210 58 l 2,24,25
EndSplineSet
Validated: 1
EndChar

StartChar: Ntilde
Encoding: 209 209 55
Width: 749
GlyphClass: 1
Flags: W
LayerCount: 3
Fore
SplineSet
633 541 m 2,0,-1
 633 58 l 2,1,2
 633 46 633 46 641.5 37 c 128,-1,3
 650 28 650 28 661 27 c 1,4,-1
 661 0 l 1,5,-1
 462 0 l 1,6,-1
 462 26 l 1,7,8
 480 31 480 31 480 46 c 0,9,10
 480 57 480 57 468 69 c 2,11,-1
 148 402 l 1,12,-1
 148 58 l 2,13,14
 148 47 148 47 156 38 c 128,-1,15
 164 29 164 29 176 27 c 1,16,-1
 176 0 l 1,17,-1
 0 0 l 1,18,-1
 0 27 l 1,19,20
 12 29 12 29 20 38 c 128,-1,21
 28 47 28 47 28 58 c 2,22,-1
 28 541 l 2,23,24
 28 554 28 554 19 563 c 128,-1,25
 10 572 10 572 0 572 c 1,26,-1
 0 599 l 1,27,-1
 199 599 l 1,28,-1
 199 573 l 1,29,30
 181 568 181 568 181 553 c 0,31,32
 181 542 181 542 193 530 c 2,33,-1
 513 197 l 1,34,-1
 513 541 l 2,35,36
 513 555 513 555 504 563.5 c 128,-1,37
 495 572 495 572 485 572 c 1,38,-1
 485 599 l 1,39,-1
 661 599 l 1,40,-1
 661 572 l 1,41,42
 652 572 652 572 642.5 563.5 c 128,-1,43
 633 555 633 555 633 541 c 2,0,-1
490 719 m 1,44,-1
 477 704 l 1,45,46
 470 708 470 708 464 708 c 0,47,48
 454 708 454 708 446 698 c 0,49,50
 419 664 419 664 380 664 c 0,51,52
 366 664 366 664 344 672 c 2,53,-1
 331 677 l 1,54,-1
 288 694 l 2,55,56
 278 697 278 697 270 697 c 0,57,58
 259 697 259 697 252 691 c 0,59,60
 239 680 239 680 250 664 c 1,61,-1
 237 649 l 1,62,-1
 172 708 l 1,63,-1
 185 723 l 1,64,65
 192 719 192 719 198 719 c 0,66,67
 208 719 208 719 216 729 c 0,68,69
 243 763 243 763 282 763 c 0,70,71
 296 763 296 763 318 755 c 2,72,-1
 331 750 l 1,73,-1
 374 733 l 2,74,75
 384 730 384 730 392 730 c 0,76,77
 403 730 403 730 410 736 c 0,78,79
 423 747 423 747 412 763 c 1,80,-1
 425 778 l 1,81,-1
 490 719 l 1,44,-1
EndSplineSet
Validated: 1
EndChar

StartChar: one
Encoding: 49 49 56
Width: 526
GlyphClass: 1
Flags: W
LayerCount: 3
Fore
SplineSet
348 541 m 2,0,-1
 348 58 l 2,1,2
 348 45 348 45 356.5 36.5 c 128,-1,3
 365 28 365 28 376 27 c 1,4,-1
 376 0 l 1,5,-1
 189 0 l 1,6,-1
 189 27 l 1,7,8
 199 28 199 28 208 37 c 128,-1,9
 217 46 217 46 217 58 c 2,10,-1
 217 410 l 1,11,-1
 132 322 l 2,12,13
 123 312 123 312 123 301 c 0,14,15
 123 291 123 291 130 280 c 1,16,-1
 111 259 l 1,17,-1
 0 367 l 1,18,-1
 19 387 l 1,19,20
 31 379 31 379 40.5 379.5 c 128,-1,21
 50 380 50 380 57 387 c 2,22,-1
 191 526 l 2,23,24
 207 542 207 542 207 553 c 0,25,26
 207 565 207 565 189 573 c 1,27,-1
 189 599 l 1,28,-1
 376 599 l 1,29,-1
 376 572 l 1,30,31
 366 572 366 572 357 563.5 c 128,-1,32
 348 555 348 555 348 541 c 2,0,-1
EndSplineSet
Validated: 1
EndChar

StartChar: two
Encoding: 50 50 57
Width: 626
GlyphClass: 1
Flags: W
LayerCount: 3
Fore
SplineSet
566 127 m 1,0,-1
 566 -28 l 1,1,-1
 539 -28 l 1,2,3
 535 0 535 0 508 0 c 2,4,-1
 58 0 l 2,5,6
 31 0 31 0 27 -28 c 1,7,-1
 0 -28 l 1,8,-1
 0 9 l 2,9,10
 0 139 0 139 109 217 c 0,11,12
 150 250 150 250 277 302 c 0,13,14
 402 353 402 353 402 428 c 0,15,16
 402 507 402 507 294 507 c 0,17,18
 230 507 230 507 175 476 c 0,19,20
 160 467 160 467 149 458.5 c 128,-1,21
 138 450 138 450 132 441 c 0,22,23
 124 430 124 430 124 420 c 0,24,25
 124 412 124 412 130 404 c 1,26,-1
 110 387 l 1,27,-1
 5 500 l 1,28,-1
 23 518 l 1,29,30
 34 511 34 511 44 511 c 0,31,32
 56 511 56 511 68 521 c 0,33,34
 166 609 166 609 310 609 c 0,35,36
 535 603 535 603 535 423 c 0,37,38
 535 286 535 286 350.5 211 c 128,-1,39
 166 136 166 136 151 99 c 1,40,-1
 508 99 l 2,41,42
 535 99 535 99 539 127 c 1,43,-1
 566 127 l 1,0,-1
EndSplineSet
Validated: 1
EndChar

StartChar: three
Encoding: 51 51 58
Width: 647
GlyphClass: 1
Flags: W
LayerCount: 3
Fore
SplineSet
448 321 m 1,0,1
 575 277 575 277 575 167 c 0,2,3
 575 90 575 90 505 42 c 0,4,5
 429 -10 429 -10 290.5 -10 c 128,-1,6
 152 -10 152 -10 69 37 c 0,7,8
 57 43 57 43 46 43 c 0,9,10
 32 43 32 43 23 32 c 1,11,-1
 0 46 l 1,12,-1
 79 179 l 1,13,-1
 102 165 l 1,14,15
 100 158 100 158 100 152 c 0,16,17
 100 118 100 118 171 100 c 0,18,19
 223 88 223 88 287 88 c 0,20,21
 378 88 378 88 420 125 c 0,22,23
 444 147 444 147 444 180.5 c 128,-1,24
 444 214 444 214 422 234 c 0,25,26
 377 273 377 273 292 273 c 0,27,28
 290 273 290 273 288 273 c 0,29,30
 261 273 261 273 257 245 c 1,31,-1
 230 245 l 1,32,-1
 230 390 l 1,33,-1
 257 390 l 1,34,35
 262 362 262 362 288 362 c 0,36,37
 371 362 371 362 405 399 c 0,38,39
 418 413 418 413 418 436.5 c 128,-1,40
 418 460 418 460 403.5 474.5 c 128,-1,41
 389 489 389 489 369 497 c 0,42,43
 334 511 334 511 287 511 c 0,44,45
 189 511 189 511 128 477 c 0,46,47
 108 466 108 466 108 453.5 c 128,-1,48
 108 441 108 441 112 434 c 1,49,-1
 89 420 l 1,50,-1
 10 553 l 1,51,-1
 33 567 l 1,52,53
 44 556 44 556 58 556 c 0,54,55
 68 556 68 556 79 562 c 0,56,57
 166 610 166 610 287 610 c 0,58,59
 414 610 414 610 484 564 c 0,60,61
 548 521 548 521 549 452 c 0,62,63
 549 363 549 363 448 321 c 1,0,1
EndSplineSet
Validated: 1
EndChar

StartChar: four
Encoding: 52 52 59
Width: 632
GlyphClass: 1
Flags: W
LayerCount: 3
Fore
SplineSet
572 229 m 1,0,-1
 572 74 l 1,1,-1
 545 74 l 1,2,3
 543 86 543 86 535 94 c 128,-1,4
 527 102 527 102 514 102 c 2,5,-1
 493 102 l 1,6,-1
 493 58 l 2,7,8
 493 47 493 47 501 38 c 128,-1,9
 509 29 509 29 521 27 c 1,10,-1
 521 0 l 1,11,-1
 334 0 l 1,12,-1
 334 27 l 1,13,14
 346 29 346 29 354 37 c 128,-1,15
 362 45 362 45 362 58 c 2,16,-1
 362 102 l 1,17,-1
 58 102 l 2,18,19
 47 102 47 102 38 94 c 128,-1,20
 29 86 29 86 27 74 c 1,21,-1
 0 74 l 1,22,-1
 0 201 l 1,23,-1
 317 530 l 2,24,25
 329 542 329 542 329 553 c 0,26,27
 329 569 329 569 310 573 c 1,28,-1
 310 599 l 1,29,-1
 521 599 l 1,30,-1
 521 572 l 1,31,32
 511 572 511 572 502 563 c 128,-1,33
 493 554 493 554 493 541 c 2,34,-1
 493 201 l 1,35,-1
 514 201 l 2,36,37
 527 201 527 201 535.5 209.5 c 128,-1,38
 544 218 544 218 545 229 c 1,39,-1
 572 229 l 1,0,-1
365 201 m 1,40,-1
 365 437 l 1,41,-1
 137 201 l 1,42,-1
 365 201 l 1,40,-1
EndSplineSet
Validated: 1
EndChar

StartChar: five
Encoding: 53 53 60
Width: 618
GlyphClass: 1
Flags: W
LayerCount: 3
Fore
SplineSet
546 198 m 256,0,1
 546 107 546 107 480 51 c 0,2,3
 407 -10 407 -10 281.5 -10 c 128,-1,4
 156 -10 156 -10 69 38 c 0,5,6
 58 44 58 44 48 44 c 0,7,8
 35 44 35 44 23 33 c 1,9,-1
 0 47 l 1,10,-1
 79 180 l 1,11,-1
 102 166 l 1,12,13
 100 158 100 158 100 151 c 0,14,15
 100 133 100 133 117 124 c 0,16,17
 178 89 178 89 261 89 c 0,18,19
 380 89 380 89 407 156 c 0,20,21
 415 176 415 176 415 198 c 256,22,23
 414 274 414 274 332 298 c 0,24,25
 302 306 302 306 275 306 c 0,26,27
 270 306 270 306 264 307 c 0,28,29
 242 307 242 307 222 305 c 0,30,31
 196 303 196 303 174 296 c 0,32,33
 132 283 132 283 132 262 c 0,34,35
 132 254 132 254 137 246 c 1,36,-1
 117 227 l 1,37,-1
 7 337 l 1,38,-1
 26 356 l 1,39,40
 30 355 30 355 33 355 c 0,41,42
 53 355 53 355 53 381 c 2,43,-1
 53 541 l 2,44,45
 53 554 53 554 44 563 c 128,-1,46
 35 572 35 572 25 572 c 1,47,-1
 25 599 l 1,48,-1
 446 599 l 2,49,50
 460 599 460 599 468.5 608.5 c 128,-1,51
 477 618 477 618 477 627 c 1,52,-1
 504 627 l 1,53,-1
 504 473 l 1,54,-1
 477 473 l 1,55,56
 477 484 477 484 468.5 492.5 c 128,-1,57
 460 501 460 501 446 501 c 2,58,-1
 184 501 l 1,59,-1
 184 398 l 1,60,61
 230 406 230 406 287 406 c 128,-1,62
 344 406 344 406 395 389.5 c 128,-1,63
 446 373 446 373 480 345 c 0,64,65
 546 289 546 289 546 198 c 256,0,1
EndSplineSet
Validated: 1
EndChar

StartChar: six
Encoding: 54 54 61
Width: 635
GlyphClass: 1
Flags: W
LayerCount: 3
Fore
SplineSet
566 554 m 1,0,1
 498 439 498 439 487 421 c 1,2,-1
 464 435 l 1,3,4
 472 449 472 449 464.5 461.5 c 128,-1,5
 457 474 457 474 442 482 c 0,6,7
 390 508 390 508 335 512 c 0,8,9
 326 513 326 513 317 513 c 0,10,11
 273 512 273 512 234 496 c 0,12,13
 188 476 188 476 158 433.5 c 128,-1,14
 128 391 128 391 125 322 c 1,15,16
 150 356 150 356 193 374 c 0,17,18
 236 392 236 392 284 396 c 0,19,20
 296 397 296 397 308 397 c 0,21,22
 345 397 345 397 383 389 c 0,23,24
 434 378 434 378 474 353 c 0,25,26
 566 297 566 297 566 201 c 0,27,28
 566 102 566 102 487 46 c 0,29,30
 410 -10 410 -10 288 -10 c 0,31,32
 87 -10 87 -10 22 162 c 0,33,34
 0 222 0 222 0 294 c 0,35,36
 0 432 0 432 86 521 c 0,37,38
 175 610 175 610 305 610 c 0,39,40
 414 608 414 608 488 568 c 0,41,42
 494 565 494 565 500.5 561.5 c 128,-1,43
 507 558 507 558 514 556 c 0,44,45
 517 555 517 555 520 556 c 0,46,47
 532 556 532 556 543 568 c 1,48,-1
 566 554 l 1,0,1
292 295 m 0,49,50
 248 295 248 295 221 283.5 c 128,-1,51
 194 272 194 272 178 256 c 0,52,53
 151 229 151 229 151 192 c 256,54,55
 151 128 151 128 221 100 c 0,56,57
 247 89 247 89 286 89 c 0,58,59
 289 89 289 89 293 89 c 256,60,61
 369 89 369 89 408 128 c 0,62,63
 435 155 435 155 435 194 c 0,64,65
 435 228 435 228 408 256 c 0,66,67
 370 295 370 295 292 295 c 0,49,50
EndSplineSet
Validated: 1
EndChar

StartChar: seven
Encoding: 55 55 62
Width: 622
GlyphClass: 1
Flags: W
LayerCount: 3
Fore
SplineSet
553 627 m 1,0,-1
 553 518 l 1,1,-1
 533 475 l 1,2,-1
 339 58 l 2,3,4
 332 45 332 45 336.5 37 c 128,-1,5
 341 29 341 29 352 27 c 2,6,-1
 354 27 l 1,7,-1
 354 0 l 1,8,-1
 165 0 l 1,9,-1
 165 27 l 1,10,11
 196 33 196 33 208 58 c 2,12,-1
 414 501 l 1,13,-1
 58 501 l 2,14,15
 46 501 46 501 37.5 493 c 128,-1,16
 29 485 29 485 27 473 c 1,17,-1
 0 473 l 1,18,-1
 0 627 l 1,19,-1
 27 627 l 1,20,21
 28 616 28 616 37 607.5 c 128,-1,22
 46 599 46 599 58 599 c 2,23,-1
 495 599 l 2,24,25
 507 599 507 599 516 607.5 c 128,-1,26
 525 616 525 616 526 627 c 1,27,-1
 553 627 l 1,0,-1
EndSplineSet
Validated: 1
EndChar

StartChar: eight
Encoding: 56 56 63
Width: 647
GlyphClass: 1
Flags: W
LayerCount: 3
Fore
SplineSet
549 452 m 0,0,1
 549 363 549 363 448 321 c 1,2,3
 513 298 513 298 544 257.5 c 128,-1,4
 575 217 575 217 575 173.5 c 128,-1,5
 575 130 575 130 557.5 98 c 128,-1,6
 540 66 540 66 505 42 c 0,7,8
 429 -10 429 -10 288 -10 c 0,9,10
 146 -10 146 -10 70 42 c 0,11,12
 0 90 0 90 0 167 c 0,13,14
 0 217 0 217 31.5 257.5 c 128,-1,15
 63 298 63 298 128 321 c 1,16,17
 26 362 26 362 26 452 c 0,18,19
 26 522 26 522 90 564 c 0,20,21
 160 610 160 610 288 610 c 256,22,23
 416 610 416 610 485 564 c 0,24,25
 549 520 549 520 549 452 c 0,0,1
194 491 m 128,-1,27
 158 471 158 471 157 439 c 0,28,29
 157 406 157 406 194 384 c 0,30,31
 230 362 230 362 288 362 c 256,32,33
 346 362 346 362 382 383.5 c 128,-1,34
 418 405 418 405 418 438 c 128,-1,35
 418 471 418 471 382 491 c 128,-1,36
 346 511 346 511 288 511 c 256,37,26
 230 511 230 511 194 491 c 128,-1,27
288 88 m 128,-1,39
 379 88 379 88 420 125 c 0,40,41
 444 147 444 147 444 180.5 c 128,-1,42
 444 214 444 214 422 234 c 0,43,44
 377 273 377 273 292 273 c 0,45,46
 290 273 290 273 288 273 c 0,47,48
 198 273 198 273 156 235 c 0,49,50
 131 214 131 214 131 180.5 c 128,-1,51
 131 147 131 147 155 125 c 0,52,38
 197 88 197 88 288 88 c 128,-1,39
EndSplineSet
Validated: 1
EndChar

StartChar: nine
Encoding: 57 57 64
Width: 638
GlyphClass: 1
Flags: W
LayerCount: 3
Fore
SplineSet
0 46 m 1,0,1
 68 161 68 161 79 179 c 1,2,-1
 102 165 l 1,3,4
 94 151 94 151 101.5 138.5 c 128,-1,5
 109 126 109 126 124 118 c 0,6,7
 176 92 176 92 231 88 c 0,8,9
 240 87 240 87 249 87 c 0,10,11
 293 88 293 88 332 104 c 0,12,13
 378 124 378 124 408 166.5 c 128,-1,14
 438 209 438 209 441 278 c 1,15,16
 416 244 416 244 373 226 c 0,17,18
 330 208 330 208 282 204 c 0,19,20
 270 203 270 203 258 203 c 0,21,22
 221 203 221 203 183 211 c 0,23,24
 132 222 132 222 92 247 c 0,25,26
 0 303 0 303 0 399 c 0,27,28
 0 498 0 498 79 554 c 0,29,30
 156 610 156 610 278 610 c 0,31,32
 479 610 479 610 544 438 c 0,33,34
 566 378 566 378 566 306 c 0,35,36
 566 168 566 168 480 79 c 0,37,38
 391 -10 391 -10 261 -10 c 0,39,40
 152 -8 152 -8 78 32 c 0,41,42
 72 35 72 35 65.5 38.5 c 128,-1,43
 59 42 59 42 52 44 c 0,44,45
 49 45 49 45 45 44 c 0,46,47
 32 44 32 44 23 32 c 1,48,-1
 0 46 l 1,0,1
273 305 m 256,49,50
 349 305 349 305 388 344 c 0,51,52
 415 371 415 371 415 408 c 256,53,54
 415 472 415 472 345 500 c 0,55,56
 319 511 319 511 280 511 c 0,57,58
 277 511 277 511 273 511 c 256,59,60
 197 511 197 511 158 472 c 0,61,62
 131 445 131 445 131 406 c 0,63,64
 131 372 131 372 158 344 c 0,65,66
 196 305 196 305 273 305 c 256,49,50
EndSplineSet
Validated: 1
EndChar

StartChar: zero
Encoding: 48 48 65
Width: 612
GlyphClass: 1
Flags: W
LayerCount: 3
Fore
SplineSet
268 610 m 4,0,1
 336 610 336 610 386.5 585.5 c 132,-1,2
 437 561 437 561 471 519 c 4,3,4
 540 434 540 434 540 300 c 4,5,6
 540 162 540 162 474 80 c 4,7,8
 402 -10 402 -10 270 -10 c 4,9,10
 136 -10 136 -10 65 80 c 4,11,12
 0 163 0 163 0 300 c 4,13,14
 0 436 0 436 65 519 c 4,15,16
 136 610 136 610 268 610 c 4,0,1
275 88 m 5,17,18
 341 92 341 92 371 137 c 4,19,20
 407 189 407 189 409 294 c 5,21,-1
 409 297 l 5,22,-1
 409 300 l 5,23,-1
 409 302 l 5,24,25
 407 407 407 407 369 461 c 4,26,27
 335 511 335 511 272 511 c 6,28,-1
 270 511 l 5,29,-1
 267 511 l 6,30,31
 201 511 201 511 168 463 c 4,32,33
 133 410 133 410 131 305 c 5,34,-1
 131 302 l 5,35,-1
 131 300 l 5,36,-1
 131 297 l 5,37,-1
 131 294 l 5,38,39
 134 141 134 141 204 103 c 4,40,41
 225 90 225 90 267 88 c 5,42,-1
 270 88 l 5,43,-1
 272 88 l 5,44,-1
 275 88 l 5,17,18
EndSplineSet
Validated: 1
EndChar

StartChar: i
Encoding: 105 105 66
Width: 242
GlyphClass: 1
Flags: W
LayerCount: 3
Fore
SplineSet
131 48 m 2,0,1
 131 38 131 38 137.5 31 c 128,-1,2
 144 24 144 24 154 22 c 1,3,-1
 154 0 l 1,4,-1
 0 0 l 1,5,-1
 0 22 l 1,6,7
 10 24 10 24 16.5 31 c 128,-1,8
 23 38 23 38 23 48 c 2,9,-1
 23 445 l 2,10,11
 23 456 23 456 15.5 463 c 128,-1,12
 8 470 8 470 0 470 c 1,13,-1
 0 493 l 1,14,-1
 154 493 l 1,15,-1
 154 470 l 1,16,17
 146 470 146 470 138.5 463 c 128,-1,18
 131 456 131 456 131 445 c 2,19,-1
 131 48 l 2,0,1
EndSplineSet
Validated: 1
EndChar

StartChar: h
Encoding: 104 104 67
Width: 632
GlyphClass: 1
Flags: W
LayerCount: 3
Fore
SplineSet
521 445 m 2,0,-1
 521 48 l 2,1,2
 521 27 521 27 544 22 c 1,3,-1
 544 0 l 1,4,-1
 390 0 l 1,5,-1
 390 22 l 1,6,7
 400 24 400 24 406.5 31 c 128,-1,8
 413 38 413 38 413 48 c 2,9,-1
 413 206 l 1,10,-1
 131 206 l 1,11,-1
 131 48 l 2,12,13
 131 38 131 38 137.5 31 c 128,-1,14
 144 24 144 24 154 22 c 1,15,-1
 154 0 l 1,16,-1
 0 0 l 1,17,-1
 0 22 l 1,18,19
 10 24 10 24 16.5 31 c 128,-1,20
 23 38 23 38 23 48 c 2,21,-1
 23 445 l 2,22,23
 23 456 23 456 15.5 463 c 128,-1,24
 8 470 8 470 0 470 c 1,25,-1
 0 493 l 1,26,-1
 154 493 l 1,27,-1
 154 470 l 1,28,29
 146 470 146 470 138.5 463 c 128,-1,30
 131 456 131 456 131 445 c 2,31,-1
 131 287 l 1,32,-1
 413 287 l 1,33,-1
 413 445 l 2,34,35
 413 456 413 456 405.5 463 c 128,-1,36
 398 470 398 470 390 470 c 1,37,-1
 390 493 l 1,38,-1
 544 493 l 1,39,-1
 544 470 l 1,40,41
 536 470 536 470 528.5 463 c 128,-1,42
 521 456 521 456 521 445 c 2,0,-1
EndSplineSet
Validated: 1
EndChar

StartChar: b
Encoding: 98 98 68
Width: 594
GlyphClass: 1
Flags: W
LayerCount: 3
Fore
SplineSet
462 462 m 0,0,1
 506 427 506 427 506 359 c 128,-1,2
 506 291 506 291 439 258 c 1,3,4
 521 229 521 229 523 142 c 0,5,6
 523 73 523 73 475.5 36.5 c 128,-1,7
 428 0 428 0 337 0 c 2,8,-1
 0 0 l 1,9,-1
 0 22 l 1,10,11
 23 27 23 27 23 48 c 2,12,-1
 23 445 l 2,13,14
 23 456 23 456 15.5 463.5 c 128,-1,15
 8 471 8 471 0 471 c 1,16,-1
 0 493 l 1,17,-1
 334 493 l 2,18,19
 384 493 384 493 412 486 c 128,-1,20
 440 479 440 479 462 462 c 0,0,1
131 299 m 1,21,-1
 325 299 l 2,22,23
 359 299 359 299 371 305 c 0,24,25
 398 318 398 318 398 356 c 256,26,27
 398 407 398 407 350 411 c 0,28,29
 337 412 337 412 325 412 c 2,30,-1
 131 412 l 1,31,-1
 131 299 l 1,21,-1
336 81 m 2,32,33
 340 81 340 81 343 81 c 0,34,35
 370 81 370 81 383 88 c 0,36,37
 416 104 416 104 416 150 c 256,38,39
 416 196 416 196 385 210 c 0,40,41
 368 218 368 218 336 218 c 2,42,-1
 131 218 l 1,43,-1
 131 81 l 1,44,-1
 336 81 l 2,32,33
EndSplineSet
Validated: 1
EndChar

StartChar: k
Encoding: 107 107 69
Width: 582
GlyphClass: 1
Flags: W
LayerCount: 3
Fore
SplineSet
531 22 m 1,0,-1
 531 0 l 1,1,-1
 358 0 l 1,2,-1
 358 22 l 1,3,4
 366 22 366 22 370 29.5 c 128,-1,5
 374 37 374 37 364 48 c 2,6,-1
 220 234 l 1,7,-1
 131 163 l 1,8,-1
 131 48 l 2,9,10
 131 38 131 38 137.5 31 c 128,-1,11
 144 24 144 24 154 22 c 1,12,-1
 154 0 l 1,13,-1
 0 0 l 1,14,-1
 0 22 l 1,15,16
 10 24 10 24 16.5 31 c 128,-1,17
 23 38 23 38 23 48 c 2,18,-1
 23 445 l 2,19,20
 23 456 23 456 15.5 463 c 128,-1,21
 8 470 8 470 0 470 c 1,22,-1
 0 493 l 1,23,-1
 154 493 l 1,24,-1
 154 470 l 1,25,26
 146 470 146 470 138.5 463 c 128,-1,27
 131 456 131 456 131 445 c 2,28,-1
 131 275 l 1,29,-1
 330 438 l 2,30,31
 344 449 344 449 341 459.5 c 128,-1,32
 338 470 338 470 322 470 c 1,33,-1
 322 493 l 1,34,-1
 524 493 l 1,35,-1
 524 470 l 1,36,37
 512 470 512 470 501 461 c 0,38,39
 496 458 496 458 445 416.5 c 128,-1,40
 394 375 394 375 295 295 c 1,41,-1
 489 48 l 2,42,43
 504 27 504 27 531 22 c 1,0,-1
EndSplineSet
Validated: 1
EndChar

StartChar: d
Encoding: 100 100 70
Width: 607
GlyphClass: 1
Flags: W
LayerCount: 3
Fore
SplineSet
270 493 m 2,0,1
 420 493 420 493 489 408 c 0,2,3
 540 345 540 345 540 247 c 256,4,5
 540 86 540 86 408 24 c 0,6,7
 356 0 356 0 270 0 c 2,8,-1
 0 0 l 1,9,-1
 0 22 l 1,10,11
 10 23 10 23 16.5 30 c 128,-1,12
 23 37 23 37 23 48 c 2,13,-1
 23 445 l 2,14,15
 23 457 23 457 15.5 464 c 128,-1,16
 8 471 8 471 0 471 c 1,17,-1
 0 493 l 1,18,-1
 270 493 l 2,0,1
267 81 m 2,19,20
 370 81 370 81 409 147 c 0,21,22
 432 186 432 186 432 247 c 0,23,24
 432 309 432 309 413 341 c 128,-1,25
 394 373 394 373 360.5 392.5 c 128,-1,26
 327 412 327 412 267 412 c 2,27,-1
 131 412 l 1,28,-1
 131 81 l 1,29,-1
 267 81 l 2,19,20
EndSplineSet
Validated: 1
EndChar

StartChar: p
Encoding: 112 112 71
Width: 563
GlyphClass: 1
Flags: W
LayerCount: 3
Fore
SplineSet
456 452 m 4,0,1
 502 410 502 410 502 348 c 4,2,3
 502 347 502 347 502 345.5 c 132,-1,4
 502 344 502 344 502 342 c 4,5,6
 502 282 502 282 456 240 c 4,7,8
 410 199 410 199 296 199 c 6,9,-1
 131 199 l 5,10,-1
 131 48 l 6,11,12
 131 38 131 38 137.5 31 c 132,-1,13
 144 24 144 24 154 22 c 5,14,-1
 154 0 l 5,15,-1
 0 0 l 5,16,-1
 0 22 l 5,17,18
 10 24 10 24 16.5 31 c 132,-1,19
 23 38 23 38 23 48 c 6,20,-1
 23 445 l 6,21,22
 23 456 23 456 15.5 463 c 132,-1,23
 8 470 8 470 0 470 c 5,24,-1
 0 493 l 5,25,-1
 296 493 l 6,26,27
 410 493 410 493 456 452 c 4,0,1
326 280 m 6,28,29
 358 280 358 280 376 296.5 c 132,-1,30
 394 313 394 313 394 345 c 260,31,32
 394 377 394 377 376 394 c 132,-1,33
 358 411 358 411 326 411 c 6,34,-1
 131 411 l 5,35,-1
 131 280 l 5,36,-1
 326 280 l 6,28,29
EndSplineSet
Validated: 1
EndChar

StartChar: r
Encoding: 114 114 72
Width: 603
GlyphClass: 1
Flags: W
LayerCount: 3
Fore
SplineSet
0 22 m 1,0,1
 23 27 23 27 23 48 c 2,2,-1
 23 445 l 2,3,4
 23 456 23 456 15.5 463 c 128,-1,5
 8 470 8 470 0 470 c 1,6,-1
 0 493 l 1,7,-1
 296 493 l 2,8,9
 410 493 410 493 456.5 451 c 128,-1,10
 503 409 503 409 503 344 c 0,11,12
 503 266 503 266 434 224 c 0,13,14
 422 216 422 216 404 212 c 1,15,-1
 481 48 l 2,16,17
 492 26 492 26 516 22 c 1,18,-1
 516 0 l 1,19,-1
 363 0 l 1,20,-1
 363 22 l 1,21,22
 376 25 376 25 376 36 c 0,23,24
 376 41 376 41 373 48 c 2,25,-1
 303 199 l 1,26,-1
 131 199 l 1,27,-1
 131 48 l 2,28,29
 131 27 131 27 154 22 c 1,30,-1
 154 0 l 1,31,-1
 0 0 l 1,32,-1
 0 22 l 1,0,1
326 280 m 2,33,34
 358 280 358 280 376 296.5 c 128,-1,35
 394 313 394 313 394 345 c 256,36,37
 394 377 394 377 376 394 c 128,-1,38
 358 411 358 411 326 411 c 2,39,-1
 131 411 l 1,40,-1
 131 280 l 1,41,-1
 326 280 l 2,33,34
EndSplineSet
Validated: 1
EndChar

StartChar: v
Encoding: 118 118 73
Width: 638
GlyphClass: 1
Flags: W
LayerCount: 3
Fore
SplineSet
548 445 m 2,0,-1
 362 48 l 2,1,2
 357 37 357 37 361.5 30 c 128,-1,3
 366 23 366 23 373 21 c 1,4,-1
 373 0 l 1,5,-1
 210 0 l 1,6,-1
 210 21 l 1,7,8
 217 23 217 23 221.5 30 c 128,-1,9
 226 37 226 37 221 48 c 2,10,-1
 35 445 l 2,11,12
 27 461 27 461 20.5 464.5 c 128,-1,13
 14 468 14 468 0 471 c 1,14,-1
 0 493 l 1,15,-1
 154 493 l 1,16,-1
 154 471 l 1,17,18
 144 469 144 469 141.5 461 c 128,-1,19
 139 453 139 453 143 445 c 2,20,-1
 291 128 l 1,21,-1
 440 445 l 2,22,23
 445 454 445 454 442 461.5 c 128,-1,24
 439 469 439 469 430 471 c 1,25,-1
 430 493 l 1,26,-1
 583 493 l 1,27,-1
 583 471 l 1,28,29
 569 468 569 468 562.5 464.5 c 128,-1,30
 556 461 556 461 548 445 c 2,0,-1
EndSplineSet
Validated: 1
EndChar

StartChar: m
Encoding: 109 109 74
Width: 714
GlyphClass: 1
Flags: W
LayerCount: 3
Fore
SplineSet
603 445 m 2,0,-1
 603 48 l 2,1,2
 603 37 603 37 610 30 c 128,-1,3
 617 23 617 23 626 22 c 1,4,-1
 626 0 l 1,5,-1
 481 0 l 1,6,-1
 481 22 l 1,7,8
 490 23 490 23 497 30 c 128,-1,9
 504 37 504 37 504 48 c 2,10,-1
 504 361 l 1,11,-1
 313 2 l 1,12,-1
 122 361 l 1,13,-1
 122 48 l 2,14,15
 122 37 122 37 128.5 30 c 128,-1,16
 135 23 135 23 145 22 c 1,17,-1
 145 0 l 1,18,-1
 0 0 l 1,19,-1
 0 22 l 1,20,21
 9 23 9 23 16 30 c 128,-1,22
 23 37 23 37 23 48 c 2,23,-1
 23 445 l 2,24,25
 23 457 23 457 15.5 463.5 c 128,-1,26
 8 470 8 470 0 470 c 1,27,-1
 0 493 l 1,28,-1
 200 493 l 1,29,-1
 200 470 l 1,30,31
 185 469 185 469 185 458 c 0,32,33
 185 450 185 450 192 438 c 2,34,-1
 313 212 l 1,35,-1
 433 438 l 2,36,37
 441 451 441 451 441 458 c 0,38,39
 441 469 441 469 426 470 c 1,40,-1
 426 493 l 1,41,-1
 626 493 l 1,42,-1
 626 470 l 1,43,44
 618 470 618 470 610.5 463.5 c 128,-1,45
 603 457 603 457 603 445 c 2,0,-1
EndSplineSet
Validated: 1
EndChar

StartChar: o
Encoding: 111 111 75
Width: 638
GlyphClass: 1
Flags: W
LayerCount: 3
Fore
SplineSet
283 501 m 256,0,1
 420 500 420 500 496 426 c 0,2,3
 566 357 566 357 567 246 c 256,4,5
 566 136 566 136 496 66 c 0,6,7
 420 -9 420 -9 283 -9 c 256,8,9
 146 -9 146 -9 70 66 c 0,10,11
 0 136 0 136 0 246 c 256,12,13
 0 358 0 358 70 426 c 0,14,15
 146 500 146 500 283 501 c 256,0,1
283 73 m 256,16,17
 356 73 356 73 406 123 c 0,18,19
 457 174 457 174 457 246 c 256,20,21
 457 320 457 320 406 369 c 0,22,23
 357 420 357 420 283 420 c 256,24,25
 210 420 210 420 161 369 c 0,26,27
 110 320 110 320 110 246 c 256,28,29
 110 174 110 174 161 123 c 0,30,31
 211 73 211 73 283 73 c 256,16,17
EndSplineSet
Validated: 1
EndChar

StartChar: ograve
Encoding: 242 242 76
Width: 638
GlyphClass: 1
Flags: W
LayerCount: 3
Fore
SplineSet
283 501 m 256,0,1
 420 500 420 500 496 426 c 0,2,3
 566 357 566 357 567 246 c 256,4,5
 566 136 566 136 496 66 c 0,6,7
 420 -9 420 -9 283 -9 c 256,8,9
 146 -9 146 -9 70 66 c 0,10,11
 0 136 0 136 0 246 c 256,12,13
 0 358 0 358 70 426 c 0,14,15
 146 500 146 500 283 501 c 256,0,1
283 73 m 256,16,17
 356 73 356 73 406 123 c 0,18,19
 457 174 457 174 457 246 c 256,20,21
 457 320 457 320 406 369 c 0,22,23
 357 420 357 420 283 420 c 256,24,25
 210 420 210 420 161 369 c 0,26,27
 110 320 110 320 110 246 c 256,28,29
 110 174 110 174 161 123 c 0,30,31
 211 73 211 73 283 73 c 256,16,17
278 671 m 1,32,-1
 278 654 l 1,33,34
 267 653 267 653 267 647 c 0,35,36
 267 645 267 645 268 643 c 1,37,38
 268 644 268 644 278.5 622 c 128,-1,39
 289 600 289 600 298 581 c 128,-1,40
 307 562 307 562 324 562 c 1,41,-1
 324 545 l 1,42,-1
 237 545 l 1,43,-1
 237 562 l 1,44,45
 242 562 242 562 245.5 565.5 c 128,-1,46
 249 569 249 569 244 574 c 2,47,-1
 181 643 l 2,48,49
 172 654 172 654 157 654 c 1,50,-1
 157 671 l 1,51,-1
 278 671 l 1,32,-1
EndSplineSet
Validated: 1
EndChar

StartChar: oacute
Encoding: 243 243 77
Width: 638
GlyphClass: 1
Flags: W
LayerCount: 3
Fore
SplineSet
283 501 m 256,0,1
 420 500 420 500 496 426 c 0,2,3
 566 357 566 357 567 246 c 256,4,5
 566 136 566 136 496 66 c 0,6,7
 420 -9 420 -9 283 -9 c 256,8,9
 146 -9 146 -9 70 66 c 0,10,11
 0 136 0 136 0 246 c 256,12,13
 0 358 0 358 70 426 c 0,14,15
 146 500 146 500 283 501 c 256,0,1
283 73 m 256,16,17
 356 73 356 73 406 123 c 0,18,19
 457 174 457 174 457 246 c 256,20,21
 457 320 457 320 406 369 c 0,22,23
 357 420 357 420 283 420 c 256,24,25
 210 420 210 420 161 369 c 0,26,27
 110 320 110 320 110 246 c 256,28,29
 110 174 110 174 161 123 c 0,30,31
 211 73 211 73 283 73 c 256,16,17
410 671 m 1,32,-1
 410 654 l 1,33,34
 395 654 395 654 386 643 c 2,35,-1
 323 574 l 2,36,37
 318 569 318 569 321.5 565.5 c 128,-1,38
 325 562 325 562 330 562 c 1,39,-1
 330 545 l 1,40,-1
 243 545 l 1,41,-1
 243 562 l 1,42,43
 260 562 260 562 266 576 c 0,44,45
 278 600 278 600 284 614 c 0,46,47
 290 628 290 628 294 634 c 2,48,49
 294 634 294 634 300 647 c 1,50,51
 300 653 300 653 289 654 c 1,52,-1
 289 671 l 1,53,-1
 410 671 l 1,32,-1
EndSplineSet
Validated: 1
EndChar

StartChar: odieresis
Encoding: 246 246 78
Width: 638
GlyphClass: 1
Flags: W
LayerCount: 3
Fore
SplineSet
283 501 m 256,0,1
 420 500 420 500 496 426 c 0,2,3
 566 357 566 357 567 246 c 256,4,5
 566 136 566 136 496 66 c 0,6,7
 420 -9 420 -9 283 -9 c 257,8,9
 146 -9 146 -9 70 66 c 0,10,11
 0 136 0 136 0 246 c 256,12,13
 0 358 0 358 70 426 c 0,14,15
 146 500 146 500 283 501 c 256,0,1
457 246 m 256,16,17
 457 320 457 320 406 369 c 0,18,19
 357 420 357 420 283 420 c 256,20,21
 210 420 210 420 161 369 c 0,22,23
 110 320 110 320 110 246 c 256,24,25
 110 174 110 174 161 123 c 0,26,27
 211 73 211 73 283 73 c 256,28,29
 356 73 356 73 406 123 c 0,30,31
 457 174 457 174 457 246 c 256,16,17
237 643 m 128,-1,33
 254 626 254 626 254 602.5 c 128,-1,34
 254 579 254 579 237 562 c 128,-1,35
 220 545 220 545 196.5 545 c 128,-1,36
 173 545 173 545 156 562 c 128,-1,37
 139 579 139 579 139 602.5 c 128,-1,38
 139 626 139 626 156 643 c 128,-1,39
 173 660 173 660 196.5 660 c 128,-1,32
 220 660 220 660 237 643 c 128,-1,33
411 643 m 128,-1,41
 428 626 428 626 428 602.5 c 128,-1,42
 428 579 428 579 411 562 c 128,-1,43
 394 545 394 545 370.5 545 c 128,-1,44
 347 545 347 545 330 562 c 128,-1,45
 313 579 313 579 313 602.5 c 128,-1,46
 313 626 313 626 330 643 c 128,-1,47
 347 660 347 660 370.5 660 c 128,-1,40
 394 660 394 660 411 643 c 128,-1,41
EndSplineSet
Validated: 1
EndChar

StartChar: otilde
Encoding: 245 245 79
Width: 638
GlyphClass: 1
Flags: W
LayerCount: 3
Fore
SplineSet
283 501 m 256,0,1
 420 500 420 500 496 426 c 0,2,3
 566 357 566 357 567 246 c 256,4,5
 566 136 566 136 496 66 c 0,6,7
 420 -9 420 -9 283 -9 c 257,8,9
 146 -9 146 -9 70 66 c 0,10,11
 0 136 0 136 0 246 c 256,12,13
 0 358 0 358 70 426 c 0,14,15
 146 500 146 500 283 501 c 256,0,1
457 246 m 256,16,17
 457 320 457 320 406 369 c 0,18,19
 357 420 357 420 283 420 c 256,20,21
 210 420 210 420 161 369 c 0,22,23
 110 320 110 320 110 246 c 256,24,25
 110 174 110 174 161 123 c 0,26,27
 211 73 211 73 283 73 c 256,28,29
 356 73 356 73 406 123 c 0,30,31
 457 174 457 174 457 246 c 256,16,17
443 615 m 1,32,-1
 430 600 l 1,33,34
 423 604 423 604 417 604 c 0,35,36
 407 604 407 604 399 594 c 0,37,38
 372 560 372 560 333 560 c 0,39,40
 319 560 319 560 297 568 c 2,41,-1
 284 573 l 1,42,-1
 241 590 l 1,43,44
 231 593 231 593 223 593 c 0,45,46
 212 593 212 593 205 587 c 0,47,48
 192 576 192 576 203 560 c 1,49,-1
 190 545 l 1,50,-1
 125 604 l 1,51,-1
 138 619 l 1,52,53
 145 615 145 615 151 615 c 0,54,55
 161 615 161 615 169 625 c 0,56,57
 196 659 196 659 235 659 c 0,58,59
 249 659 249 659 271 651 c 2,60,-1
 284 646 l 1,61,-1
 327 629 l 1,62,63
 337 626 337 626 345 626 c 0,64,65
 356 626 356 626 363 632 c 0,66,67
 376 643 376 643 365 659 c 1,68,-1
 378 674 l 1,69,-1
 443 615 l 1,32,-1
EndSplineSet
Validated: 1
EndChar

StartChar: ocircumflex
Encoding: 244 244 80
Width: 638
GlyphClass: 1
Flags: W
LayerCount: 3
Fore
SplineSet
283 501 m 256,0,1
 420 500 420 500 496 426 c 0,2,3
 566 357 566 357 567 246 c 256,4,5
 566 136 566 136 496 66 c 0,6,7
 420 -9 420 -9 283 -9 c 257,8,9
 146 -9 146 -9 70 66 c 0,10,11
 0 136 0 136 0 246 c 256,12,13
 0 358 0 358 70 426 c 0,14,15
 146 500 146 500 283 501 c 256,0,1
457 246 m 256,16,17
 457 320 457 320 406 369 c 0,18,19
 357 420 357 420 283 420 c 256,20,21
 210 420 210 420 161 369 c 0,22,23
 110 320 110 320 110 246 c 256,24,25
 110 174 110 174 161 123 c 0,26,27
 211 73 211 73 283 73 c 256,28,29
 356 73 356 73 406 123 c 0,30,31
 457 174 457 174 457 246 c 256,16,17
149 545 m 1,32,-1
 149 562 l 1,33,34
 161 562 161 562 169 570 c 2,35,-1
 229 637 l 2,36,37
 236 645 236 645 233 649.5 c 128,-1,38
 230 654 230 654 221 654 c 1,39,-1
 221 671 l 1,40,-1
 345 671 l 1,41,-1
 345 654 l 1,42,43
 334 652 334 652 334 646.5 c 128,-1,44
 334 641 334 641 340 635 c 2,45,-1
 399 570 l 2,46,47
 405 562 405 562 417 562 c 1,48,-1
 417 545 l 1,49,-1
 304 545 l 1,50,-1
 304 562 l 1,51,52
 312 562 312 562 314 566.5 c 128,-1,53
 316 571 316 571 311 577 c 2,54,-1
 277 616 l 1,55,-1
 243 577 l 2,56,57
 238 571 238 571 240 566.5 c 128,-1,58
 242 562 242 562 250 562 c 1,59,-1
 250 545 l 1,60,-1
 149 545 l 1,32,-1
EndSplineSet
Validated: 1
EndChar

StartChar: q
Encoding: 113 113 81
Width: 638
GlyphClass: 1
Flags: W
LayerCount: 3
Fore
SplineSet
489 59 m 1,0,-1
 519 24 l 1,1,2
 527 14 527 14 537 14 c 0,3,4
 544 14 544 14 553 19 c 1,5,-1
 567 1 l 1,6,-1
 470 -80 l 1,7,-1
 455 -63 l 1,8,9
 463 -54 463 -54 463 -44 c 0,10,11
 463 -36 463 -36 457 -28 c 1,12,-1
 420 16 l 1,13,14
 363 -8 363 -8 288 -8 c 128,-1,15
 213 -8 213 -8 160 12 c 0,16,17
 108 32 108 32 72 66 c 0,18,19
 0 135 0 135 0 247 c 0,20,21
 0 357 0 357 70 427 c 0,22,23
 146 502 146 502 284 502 c 0,24,25
 421 502 421 502 496 427 c 0,26,27
 567 356 567 356 567 242.5 c 128,-1,28
 567 129 567 129 489 59 c 1,0,-1
421 140 m 1,29,30
 457 187 457 187 457 252.5 c 128,-1,31
 457 318 457 318 406 369 c 0,32,33
 357 420 357 420 283.5 420 c 128,-1,34
 210 420 210 420 161 369 c 0,35,36
 110 318 110 318 110 246 c 128,-1,37
 110 174 110 174 161 123 c 0,38,39
 210 72 210 72 284 72 c 0,40,41
 321 72 321 72 358 89 c 1,42,-1
 340 110 l 1,43,44
 332 120 332 120 322 120 c 0,45,46
 315 120 315 120 306 115 c 1,47,-1
 291 132 l 1,48,-1
 389 214 l 1,49,-1
 403 196 l 1,50,51
 394 187 394 187 394 178 c 0,52,53
 394 170 394 170 402 162 c 1,54,-1
 421 140 l 1,29,30
EndSplineSet
Validated: 1
EndChar

StartChar: a
Encoding: 97 97 82
Width: 633
GlyphClass: 1
Flags: W
LayerCount: 3
Fore
SplineSet
548 48 m 2,0,1
 556 32 556 32 562.5 28.5 c 128,-1,2
 569 25 569 25 583 22 c 1,3,-1
 583 0 l 1,4,-1
 430 0 l 1,5,-1
 430 22 l 1,6,7
 439 24 439 24 442 31.5 c 128,-1,8
 445 39 445 39 440 48 c 2,9,-1
 410 112 l 1,10,-1
 173 112 l 1,11,-1
 143 48 l 2,12,13
 139 40 139 40 141.5 32 c 128,-1,14
 144 24 144 24 154 22 c 1,15,-1
 154 0 l 1,16,-1
 0 0 l 1,17,-1
 0 22 l 1,18,19
 14 25 14 25 20.5 28.5 c 128,-1,20
 27 32 27 32 35 48 c 2,21,-1
 221 445 l 2,22,23
 226 456 226 456 221.5 463 c 128,-1,24
 217 470 217 470 210 472 c 1,25,-1
 210 493 l 1,26,-1
 373 493 l 1,27,-1
 373 472 l 1,28,29
 366 470 366 470 361.5 463 c 128,-1,30
 357 456 357 456 362 445 c 2,31,-1
 548 48 l 2,0,1
372 193 m 1,32,-1
 291 365 l 1,33,-1
 211 193 l 1,34,-1
 372 193 l 1,32,-1
EndSplineSet
Validated: 1
EndChar

StartChar: aring
Encoding: 229 229 83
Width: 633
GlyphClass: 1
Flags: W
LayerCount: 3
Fore
SplineSet
346 653 m 0,0,1
 368 634 368 634 368 608 c 0,2,3
 368 581 368 581 346 563 c 0,4,5
 322 545 322 545 291 545 c 0,6,7
 259 545 259 545 237 564 c 0,8,9
 215 582 215 582 215 609 c 0,10,11
 215 635 215 635 236 653 c 0,12,13
 258 671 258 671 291 671 c 0,14,15
 323 671 323 671 346 653 c 0,0,1
318 585 m 0,16,17
 330 595 330 595 330 608 c 0,18,19
 330 622 330 622 319 631 c 0,20,21
 307 641 307 641 291 641 c 256,22,23
 275 641 275 641 263 632 c 0,24,25
 252 623 252 623 252 608 c 0,26,27
 252 595 252 595 264 585 c 0,28,29
 274 576 274 576 291 576 c 0,30,31
 307 576 307 576 318 585 c 0,16,17
362 445 m 2,32,33
 362 445 362 445 548 48 c 2,34,35
 556 32 556 32 562.5 28.5 c 128,-1,36
 569 25 569 25 583 22 c 1,37,38
 583 22 583 22 583 0 c 1,39,-1
 430 0 l 1,40,-1
 430 22 l 1,41,42
 439 24 439 24 442 31.5 c 128,-1,43
 445 39 445 39 440 48 c 2,44,45
 440 48 440 48 410 112 c 1,46,-1
 173 112 l 1,47,-1
 143 48 l 2,48,49
 139 40 139 40 141.5 32 c 128,-1,50
 144 24 144 24 154 22 c 1,51,52
 154 22 154 22 154 0 c 1,53,-1
 0 0 l 1,54,-1
 0 22 l 1,55,56
 14 25 14 25 20.5 28.5 c 128,-1,57
 27 32 27 32 35 48 c 2,58,59
 35 48 35 48 221 445 c 2,60,61
 226 456 226 456 221.5 463 c 128,-1,62
 217 470 217 470 210 472 c 1,63,64
 210 472 210 472 210 493 c 1,65,-1
 373 493 l 1,66,-1
 373 472 l 1,67,68
 366 470 366 470 361.5 463 c 128,-1,69
 357 456 357 456 362 445 c 2,32,33
211 193 m 1,70,-1
 372 193 l 1,71,-1
 291 365 l 1,72,-1
 211 193 l 1,70,-1
EndSplineSet
Validated: 1
EndChar

StartChar: atilde
Encoding: 227 227 84
Width: 633
GlyphClass: 1
Flags: W
LayerCount: 3
Fore
SplineSet
450 615 m 1,0,-1
 437 600 l 1,1,2
 430 604 430 604 424 604 c 0,3,4
 414 604 414 604 406 594 c 0,5,6
 379 560 379 560 340 560 c 0,7,8
 326 560 326 560 304 568 c 2,9,-1
 291 573 l 1,10,-1
 248 590 l 2,11,12
 238 593 238 593 230 593 c 0,13,14
 219 593 219 593 212 587 c 0,15,16
 199 576 199 576 210 560 c 1,17,-1
 197 545 l 1,18,-1
 132 604 l 1,19,-1
 145 619 l 1,20,21
 152 615 152 615 158 615 c 0,22,23
 168 615 168 615 176 625 c 0,24,25
 203 659 203 659 242 659 c 0,26,27
 256 659 256 659 278 651 c 2,28,-1
 291 646 l 1,29,-1
 334 629 l 2,30,31
 344 626 344 626 352 626 c 0,32,33
 363 626 363 626 370 632 c 0,34,35
 383 643 383 643 372 659 c 1,36,-1
 385 674 l 1,37,-1
 450 615 l 1,0,-1
362 445 m 2,38,39
 362 445 362 445 548 48 c 2,40,41
 556 32 556 32 562.5 28.5 c 128,-1,42
 569 25 569 25 583 22 c 1,43,44
 583 22 583 22 583 0 c 1,45,-1
 430 0 l 1,46,-1
 430 22 l 1,47,48
 439 24 439 24 442 31.5 c 128,-1,49
 445 39 445 39 440 48 c 2,50,51
 440 48 440 48 410 112 c 1,52,-1
 173 112 l 1,53,-1
 143 48 l 2,54,55
 139 40 139 40 141.5 32 c 128,-1,56
 144 24 144 24 154 22 c 1,57,58
 154 22 154 22 154 0 c 1,59,-1
 0 0 l 1,60,-1
 0 22 l 1,61,62
 14 25 14 25 20.5 28.5 c 128,-1,63
 27 32 27 32 35 48 c 2,64,65
 35 48 35 48 221 445 c 2,66,67
 226 456 226 456 221.5 463 c 128,-1,68
 217 470 217 470 210 472 c 1,69,70
 210 472 210 472 210 493 c 1,71,-1
 373 493 l 1,72,-1
 373 472 l 1,73,74
 366 470 366 470 361.5 463 c 128,-1,75
 357 456 357 456 362 445 c 2,38,39
211 193 m 1,76,-1
 372 193 l 1,77,-1
 291 365 l 1,78,-1
 211 193 l 1,76,-1
EndSplineSet
Validated: 1
EndChar

StartChar: adieresis
Encoding: 228 228 85
Width: 633
GlyphClass: 1
Flags: W
LayerCount: 3
Fore
SplineSet
261 602 m 0,0,1
 261 579 261 579 244.5 562 c 128,-1,2
 228 545 228 545 204 545 c 0,3,4
 181 545 181 545 164 562 c 128,-1,5
 147 579 147 579 147 602 c 0,6,7
 147 626 147 626 164 643 c 128,-1,8
 181 660 181 660 204 660 c 0,9,10
 228 660 228 660 244.5 643 c 128,-1,11
 261 626 261 626 261 602 c 0,0,1
435 602 m 0,12,13
 435 579 435 579 418.5 562 c 128,-1,14
 402 545 402 545 378 545 c 0,15,16
 355 545 355 545 338 562 c 128,-1,17
 321 579 321 579 321 602 c 0,18,19
 321 626 321 626 338 643 c 128,-1,20
 355 660 355 660 378 660 c 0,21,22
 402 660 402 660 418.5 643 c 128,-1,23
 435 626 435 626 435 602 c 0,12,13
362 445 m 2,24,25
 362 445 362 445 548 48 c 2,26,27
 556 32 556 32 562.5 28.5 c 128,-1,28
 569 25 569 25 583 22 c 1,29,30
 583 22 583 22 583 0 c 1,31,-1
 430 0 l 1,32,-1
 430 22 l 1,33,34
 439 24 439 24 442 31.5 c 128,-1,35
 445 39 445 39 440 48 c 2,36,37
 440 48 440 48 410 112 c 1,38,-1
 173 112 l 1,39,-1
 143 48 l 2,40,41
 139 40 139 40 141.5 32 c 128,-1,42
 144 24 144 24 154 22 c 1,43,44
 154 22 154 22 154 0 c 1,45,-1
 0 0 l 1,46,-1
 0 22 l 1,47,48
 14 25 14 25 20.5 28.5 c 128,-1,49
 27 32 27 32 35 48 c 2,50,51
 35 48 35 48 221 445 c 2,52,53
 226 456 226 456 221.5 463 c 128,-1,54
 217 470 217 470 210 472 c 1,55,56
 210 472 210 472 210 493 c 1,57,-1
 373 493 l 1,58,-1
 373 472 l 1,59,60
 366 470 366 470 361.5 463 c 128,-1,61
 357 456 357 456 362 445 c 2,24,25
211 193 m 1,62,-1
 372 193 l 1,63,-1
 291 365 l 1,64,-1
 211 193 l 1,62,-1
EndSplineSet
Validated: 1
EndChar

StartChar: acircumflex
Encoding: 226 226 86
Width: 633
GlyphClass: 1
Flags: W
LayerCount: 3
Fore
SplineSet
157 545 m 1,0,-1
 157 562 l 1,1,2
 165 562 165 562 169 564 c 128,-1,3
 173 566 173 566 177 570 c 2,4,-1
 237 637 l 2,5,6
 244 645 244 645 241 649.5 c 128,-1,7
 238 654 238 654 229 654 c 1,8,-1
 229 671 l 1,9,-1
 353 671 l 1,10,-1
 353 654 l 1,11,12
 342 652 342 652 342 646.5 c 128,-1,13
 342 641 342 641 348 635 c 2,14,-1
 407 570 l 2,15,16
 413 562 413 562 425 562 c 1,17,-1
 425 545 l 1,18,-1
 312 545 l 1,19,-1
 312 562 l 1,20,21
 320 562 320 562 322 566.5 c 128,-1,22
 324 571 324 571 319 577 c 2,23,-1
 285 616 l 1,24,-1
 251 577 l 2,25,26
 246 571 246 571 248 566.5 c 128,-1,27
 250 562 250 562 258 562 c 1,28,-1
 258 545 l 1,29,-1
 157 545 l 1,0,-1
362 445 m 2,30,31
 362 445 362 445 548 48 c 2,32,33
 556 32 556 32 562.5 28.5 c 128,-1,34
 569 25 569 25 583 22 c 1,35,36
 583 22 583 22 583 0 c 1,37,-1
 430 0 l 1,38,-1
 430 22 l 1,39,40
 439 24 439 24 442 31.5 c 128,-1,41
 445 39 445 39 440 48 c 2,42,43
 440 48 440 48 410 112 c 1,44,-1
 173 112 l 1,45,-1
 143 48 l 2,46,47
 139 40 139 40 141.5 32 c 128,-1,48
 144 24 144 24 154 22 c 1,49,50
 154 22 154 22 154 0 c 1,51,-1
 0 0 l 1,52,-1
 0 22 l 1,53,54
 14 25 14 25 20.5 28.5 c 128,-1,55
 27 32 27 32 35 48 c 2,56,57
 35 48 35 48 221 445 c 2,58,59
 226 456 226 456 221.5 463 c 128,-1,60
 217 470 217 470 210 472 c 1,61,62
 210 472 210 472 210 493 c 1,63,-1
 373 493 l 1,64,-1
 373 472 l 1,65,66
 366 470 366 470 361.5 463 c 128,-1,67
 357 456 357 456 362 445 c 2,30,31
211 193 m 1,68,-1
 372 193 l 1,69,-1
 291 365 l 1,70,-1
 211 193 l 1,68,-1
EndSplineSet
Validated: 1
EndChar

StartChar: aacute
Encoding: 225 225 87
Width: 633
GlyphClass: 1
Flags: W
LayerCount: 3
Fore
SplineSet
401 671 m 1,0,-1
 401 654 l 1,1,2
 386 654 386 654 377 643 c 2,3,-1
 314 574 l 2,4,5
 309 569 309 569 312.5 565.5 c 128,-1,6
 316 562 316 562 321 562 c 1,7,-1
 321 545 l 1,8,-1
 234 545 l 1,9,-1
 234 562 l 1,10,11
 251 562 251 562 257 576 c 0,12,13
 269 600 269 600 275.5 613.5 c 128,-1,14
 282 627 282 627 285.5 634 c 128,-1,15
 289 641 289 641 290 643 c 128,-1,16
 291 645 291 645 291 647 c 0,17,18
 291 653 291 653 280 654 c 1,19,-1
 280 671 l 1,20,-1
 401 671 l 1,0,-1
548 48 m 2,21,22
 556 32 556 32 562.5 28.5 c 128,-1,23
 569 25 569 25 583 22 c 1,24,-1
 583 0 l 1,25,-1
 430 0 l 1,26,-1
 430 22 l 1,27,28
 439 24 439 24 442 31.5 c 128,-1,29
 445 39 445 39 440 48 c 2,30,-1
 410 112 l 1,31,-1
 173 112 l 1,32,-1
 143 48 l 2,33,34
 139 40 139 40 141.5 32 c 128,-1,35
 144 24 144 24 154 22 c 1,36,-1
 154 0 l 1,37,-1
 0 0 l 1,38,-1
 0 22 l 1,39,40
 14 25 14 25 20.5 28.5 c 128,-1,41
 27 32 27 32 35 48 c 2,42,-1
 221 445 l 2,43,44
 226 456 226 456 221.5 463 c 128,-1,45
 217 470 217 470 210 472 c 1,46,-1
 210 493 l 1,47,-1
 373 493 l 1,48,-1
 373 472 l 1,49,50
 366 470 366 470 361.5 463 c 128,-1,51
 357 456 357 456 362 445 c 2,52,-1
 548 48 l 2,21,22
372 193 m 1,53,-1
 291 365 l 1,54,-1
 211 193 l 1,55,-1
 372 193 l 1,53,-1
EndSplineSet
Validated: 1
EndChar

StartChar: agrave
Encoding: 224 224 88
Width: 633
GlyphClass: 1
Flags: W
LayerCount: 3
Fore
SplineSet
302 671 m 1,0,-1
 302 654 l 1,1,2
 291 653 291 653 291 647 c 0,3,4
 291 645 291 645 292 643 c 128,-1,5
 293 641 293 641 296.5 634 c 128,-1,6
 300 627 300 627 306.5 613.5 c 128,-1,7
 313 600 313 600 325 576 c 0,8,9
 331 562 331 562 348 562 c 1,10,-1
 348 545 l 1,11,-1
 261 545 l 1,12,-1
 261 562 l 1,13,14
 266 562 266 562 269.5 565.5 c 128,-1,15
 273 569 273 569 268 574 c 2,16,-1
 205 643 l 2,17,18
 196 654 196 654 181 654 c 1,19,-1
 181 671 l 1,20,-1
 302 671 l 1,0,-1
362 445 m 2,21,22
 362 445 362 445 548 48 c 2,23,24
 556 32 556 32 562.5 28.5 c 128,-1,25
 569 25 569 25 583 22 c 1,26,27
 583 22 583 22 583 0 c 1,28,-1
 430 0 l 1,29,-1
 430 22 l 1,30,31
 439 24 439 24 442 31.5 c 128,-1,32
 445 39 445 39 440 48 c 2,33,34
 440 48 440 48 410 112 c 1,35,-1
 173 112 l 1,36,-1
 143 48 l 2,37,38
 139 40 139 40 141.5 32 c 128,-1,39
 144 24 144 24 154 22 c 1,40,41
 154 22 154 22 154 0 c 1,42,-1
 0 0 l 1,43,-1
 0 22 l 1,44,45
 14 25 14 25 20.5 28.5 c 128,-1,46
 27 32 27 32 35 48 c 2,47,48
 35 48 35 48 221 445 c 2,49,50
 226 456 226 456 221.5 463 c 128,-1,51
 217 470 217 470 210 472 c 1,52,53
 210 472 210 472 210 493 c 1,54,-1
 373 493 l 1,55,-1
 373 472 l 1,56,57
 366 470 366 470 361.5 463 c 128,-1,58
 357 456 357 456 362 445 c 2,21,22
211 193 m 1,59,-1
 372 193 l 1,60,-1
 291 365 l 1,61,-1
 211 193 l 1,59,-1
EndSplineSet
Validated: 1
EndChar

StartChar: idieresis
Encoding: 239 239 89
Width: 299
GlyphClass: 1
Flags: W
LayerCount: 3
Fore
SplineSet
114 602 m 0,0,1
 114 579 114 579 97.5 562 c 128,-1,2
 81 545 81 545 57 545 c 0,3,4
 34 545 34 545 17 562 c 128,-1,5
 0 579 0 579 0 602 c 0,6,7
 0 626 0 626 17 643 c 128,-1,8
 34 660 34 660 57 660 c 0,9,10
 81 660 81 660 97.5 643 c 128,-1,11
 114 626 114 626 114 602 c 0,0,1
288 602 m 0,12,13
 288 579 288 579 271.5 562 c 128,-1,14
 255 545 255 545 231 545 c 0,15,16
 208 545 208 545 191 562 c 128,-1,17
 174 579 174 579 174 602 c 0,18,19
 174 626 174 626 191 643 c 128,-1,20
 208 660 208 660 231 660 c 0,21,22
 255 660 255 660 271.5 643 c 128,-1,23
 288 626 288 626 288 602 c 0,12,13
198 48 m 2,24,25
 198 38 198 38 204.5 31 c 128,-1,26
 211 24 211 24 221 22 c 1,27,-1
 221 0 l 1,28,-1
 67 0 l 1,29,-1
 67 22 l 1,30,31
 77 24 77 24 83.5 31 c 128,-1,32
 90 38 90 38 90 48 c 2,33,-1
 90 445 l 2,34,35
 90 456 90 456 82.5 463 c 128,-1,36
 75 470 75 470 67 470 c 1,37,-1
 67 493 l 1,38,-1
 221 493 l 1,39,-1
 221 470 l 1,40,41
 213 470 213 470 205.5 463 c 128,-1,42
 198 456 198 456 198 445 c 2,43,-1
 198 48 l 2,24,25
EndSplineSet
Validated: 1
EndChar

StartChar: iacute
Encoding: 237 237 90
Width: 244
GlyphClass: 1
Flags: W
LayerCount: 3
Fore
SplineSet
131 48 m 2,0,1
 131 38 131 38 137.5 31 c 128,-1,2
 144 24 144 24 154 22 c 1,3,-1
 154 0 l 1,4,-1
 0 0 l 1,5,-1
 0 22 l 1,6,7
 10 24 10 24 16.5 31 c 128,-1,8
 23 38 23 38 23 48 c 2,9,-1
 23 445 l 2,10,11
 23 456 23 456 15.5 463 c 128,-1,12
 8 470 8 470 0 470 c 1,13,-1
 0 493 l 1,14,-1
 154 493 l 1,15,-1
 154 470 l 1,16,17
 146 470 146 470 138.5 463 c 128,-1,18
 131 456 131 456 131 445 c 2,19,-1
 131 48 l 2,0,1
197 671 m 1,20,-1
 197 654 l 1,21,22
 182 654 182 654 173 643 c 2,23,-1
 110 574 l 2,24,25
 105 569 105 569 108.5 565.5 c 128,-1,26
 112 562 112 562 117 562 c 1,27,-1
 117 545 l 1,28,-1
 30 545 l 1,29,-1
 30 562 l 1,30,31
 47 562 47 562 53 576 c 0,32,33
 65 600 65 600 71.5 613.5 c 128,-1,34
 78 627 78 627 81.5 634 c 128,-1,35
 85 641 85 641 86 643 c 128,-1,36
 87 645 87 645 87 647 c 0,37,38
 87 653 87 653 76 654 c 1,39,-1
 76 671 l 1,40,-1
 197 671 l 1,20,-1
EndSplineSet
Validated: 1
EndChar

StartChar: igrave
Encoding: 236 236 91
Width: 242
GlyphClass: 1
Flags: W
LayerCount: 3
Fore
SplineSet
175 48 m 2,0,1
 175 38 175 38 181.5 31 c 128,-1,2
 188 24 188 24 198 22 c 1,3,-1
 198 0 l 1,4,-1
 44 0 l 1,5,-1
 44 22 l 1,6,7
 54 24 54 24 60.5 31 c 128,-1,8
 67 38 67 38 67 48 c 2,9,-1
 67 445 l 2,10,11
 67 456 67 456 59.5 463 c 128,-1,12
 52 470 52 470 44 470 c 1,13,-1
 44 493 l 1,14,-1
 198 493 l 1,15,-1
 198 470 l 1,16,17
 190 470 190 470 182.5 463 c 128,-1,18
 175 456 175 456 175 445 c 2,19,-1
 175 48 l 2,0,1
121 671 m 1,20,-1
 121 654 l 1,21,22
 110 653 110 653 110 647 c 0,23,24
 110 645 110 645 111 643 c 128,-1,25
 112 641 112 641 115.5 634 c 128,-1,26
 119 627 119 627 125.5 613.5 c 128,-1,27
 132 600 132 600 144 576 c 0,28,29
 150 562 150 562 167 562 c 1,30,-1
 167 545 l 1,31,-1
 80 545 l 1,32,-1
 80 562 l 1,33,34
 85 562 85 562 88.5 565.5 c 128,-1,35
 92 569 92 569 87 574 c 2,36,-1
 24 643 l 2,37,38
 15 654 15 654 0 654 c 1,39,-1
 0 671 l 1,40,-1
 121 671 l 1,20,-1
EndSplineSet
Validated: 1
EndChar

StartChar: icircumflex
Encoding: 238 238 92
Width: 275
GlyphClass: 1
Flags: W
LayerCount: 3
Fore
SplineSet
188 48 m 2,0,1
 188 38 188 38 194.5 31 c 128,-1,2
 201 24 201 24 211 22 c 1,3,-1
 211 0 l 1,4,-1
 57 0 l 1,5,-1
 57 22 l 1,6,7
 67 24 67 24 73.5 31 c 128,-1,8
 80 38 80 38 80 48 c 2,9,-1
 80 445 l 2,10,11
 80 456 80 456 72.5 463 c 128,-1,12
 65 470 65 470 57 470 c 1,13,-1
 57 493 l 1,14,-1
 211 493 l 1,15,-1
 211 470 l 1,16,17
 203 470 203 470 195.5 463 c 128,-1,18
 188 456 188 456 188 445 c 2,19,-1
 188 48 l 2,0,1
0 545 m 1,20,-1
 0 562 l 1,21,22
 8 562 8 562 12 564 c 128,-1,23
 16 566 16 566 20 570 c 2,24,-1
 80 637 l 2,25,26
 87 645 87 645 84 649.5 c 128,-1,27
 81 654 81 654 72 654 c 1,28,-1
 72 671 l 1,29,-1
 196 671 l 1,30,-1
 196 654 l 1,31,32
 185 652 185 652 185 646.5 c 128,-1,33
 185 641 185 641 191 635 c 2,34,-1
 250 570 l 2,35,36
 256 562 256 562 268 562 c 1,37,-1
 268 545 l 1,38,-1
 155 545 l 1,39,-1
 155 562 l 1,40,41
 163 562 163 562 165 566.5 c 128,-1,42
 167 571 167 571 162 577 c 2,43,-1
 128 616 l 1,44,-1
 94 577 l 2,45,46
 89 571 89 571 91 566.5 c 128,-1,47
 93 562 93 562 101 562 c 1,48,-1
 101 545 l 1,49,-1
 0 545 l 1,20,-1
EndSplineSet
Validated: 1
EndChar

StartChar: n
Encoding: 110 110 93
Width: 632
GlyphClass: 1
Flags: W
LayerCount: 3
Fore
SplineSet
521 445 m 2,0,-1
 521 48 l 2,1,2
 521 37 521 37 527.5 30 c 128,-1,3
 534 23 534 23 544 22 c 1,4,-1
 544 0 l 1,5,-1
 380 0 l 1,6,-1
 380 21 l 1,7,8
 395 25 395 25 395 38 c 0,9,10
 395 45 395 45 385 57 c 2,11,-1
 122 331 l 1,12,-1
 122 48 l 2,13,14
 122 38 122 38 128.5 31 c 128,-1,15
 135 24 135 24 145 22 c 1,16,-1
 145 0 l 1,17,-1
 0 0 l 1,18,-1
 0 22 l 1,19,20
 10 24 10 24 16.5 31 c 128,-1,21
 23 38 23 38 23 48 c 2,22,-1
 23 445 l 2,23,24
 23 456 23 456 15.5 463 c 128,-1,25
 8 470 8 470 0 470 c 1,26,-1
 0 493 l 1,27,-1
 164 493 l 1,28,-1
 164 471 l 1,29,30
 149 468 149 468 149 455 c 0,31,32
 149 445 149 445 159 436 c 2,33,-1
 422 162 l 1,34,-1
 422 445 l 2,35,36
 422 457 422 457 414.5 463.5 c 128,-1,37
 407 470 407 470 399 470 c 1,38,-1
 399 493 l 1,39,-1
 544 493 l 1,40,-1
 544 470 l 1,41,42
 536 470 536 470 528.5 463.5 c 128,-1,43
 521 457 521 457 521 445 c 2,0,-1
EndSplineSet
Validated: 1
EndChar

StartChar: w
Encoding: 119 119 94
Width: 927
GlyphClass: 1
Flags: W
LayerCount: 3
Fore
SplineSet
877 493 m 1,0,-1
 877 470 l 1,1,2
 854 470 854 470 843 445 c 2,3,-1
 683 48 l 2,4,5
 678 37 678 37 683 30 c 128,-1,6
 688 23 688 23 696 22 c 1,7,-1
 696 0 l 1,8,-1
 541 0 l 1,9,-1
 541 22 l 1,10,11
 549 23 549 23 554 30 c 128,-1,12
 559 37 559 37 554 48 c 2,13,-1
 438 335 l 1,14,-1
 322 48 l 2,15,16
 318 37 318 37 323 30 c 128,-1,17
 328 23 328 23 336 22 c 1,18,-1
 336 0 l 1,19,-1
 181 0 l 1,20,-1
 181 22 l 1,21,22
 189 23 189 23 194 30 c 128,-1,23
 199 37 199 37 194 48 c 2,24,-1
 34 445 l 2,25,26
 23 470 23 470 0 470 c 1,27,-1
 0 493 l 1,28,-1
 154 493 l 1,29,-1
 154 470 l 1,30,31
 146 470 146 470 141 463.5 c 128,-1,32
 136 457 136 457 141 445 c 2,33,-1
 258 155 l 1,34,-1
 375 445 l 2,35,36
 380 457 380 457 375.5 463.5 c 128,-1,37
 371 470 371 470 363 470 c 1,38,-1
 363 493 l 1,39,-1
 514 493 l 1,40,-1
 514 470 l 1,41,42
 506 470 506 470 501.5 463.5 c 128,-1,43
 497 457 497 457 502 445 c 2,44,-1
 618 155 l 1,45,-1
 735 445 l 2,46,47
 740 457 740 457 735.5 463.5 c 128,-1,48
 731 470 731 470 723 470 c 1,49,-1
 723 493 l 1,50,-1
 877 493 l 1,0,-1
EndSplineSet
Validated: 1
EndChar

StartChar: ntilde
Encoding: 241 241 95
Width: 632
GlyphClass: 1
Flags: W
LayerCount: 3
Fore
SplineSet
521 445 m 2,0,-1
 521 48 l 2,1,2
 521 37 521 37 527.5 30 c 128,-1,3
 534 23 534 23 544 22 c 1,4,-1
 544 0 l 1,5,-1
 380 0 l 1,6,-1
 380 21 l 1,7,8
 395 25 395 25 395 38 c 0,9,10
 395 45 395 45 385 57 c 2,11,-1
 122 331 l 1,12,-1
 122 48 l 2,13,14
 122 38 122 38 128.5 31 c 128,-1,15
 135 24 135 24 145 22 c 1,16,-1
 145 0 l 1,17,-1
 0 0 l 1,18,-1
 0 22 l 1,19,20
 10 24 10 24 16.5 31 c 128,-1,21
 23 38 23 38 23 48 c 2,22,-1
 23 445 l 2,23,24
 23 456 23 456 15.5 463 c 128,-1,25
 8 470 8 470 0 470 c 1,26,-1
 0 493 l 1,27,-1
 164 493 l 1,28,-1
 164 471 l 1,29,30
 149 468 149 468 149 455 c 0,31,32
 149 445 149 445 159 436 c 2,33,-1
 422 162 l 1,34,-1
 422 445 l 2,35,36
 422 457 422 457 414.5 463.5 c 128,-1,37
 407 470 407 470 399 470 c 1,38,-1
 399 493 l 1,39,-1
 544 493 l 1,40,-1
 544 470 l 1,41,42
 536 470 536 470 528.5 463.5 c 128,-1,43
 521 457 521 457 521 445 c 2,0,-1
431 615 m 1,44,-1
 418 600 l 1,45,46
 411 604 411 604 405 604 c 0,47,48
 395 604 395 604 387 594 c 0,49,50
 360 560 360 560 321 560 c 0,51,52
 307 560 307 560 285 568 c 2,53,-1
 272 573 l 1,54,-1
 229 590 l 2,55,56
 219 593 219 593 211 593 c 0,57,58
 200 593 200 593 193 587 c 0,59,60
 180 576 180 576 191 560 c 1,61,-1
 178 545 l 1,62,-1
 113 604 l 1,63,-1
 126 619 l 1,64,65
 133 615 133 615 139 615 c 0,66,67
 149 615 149 615 157 625 c 0,68,69
 184 659 184 659 223 659 c 0,70,71
 237 659 237 659 259 651 c 2,72,-1
 272 646 l 1,73,-1
 315 629 l 2,74,75
 325 626 325 626 333 626 c 0,76,77
 344 626 344 626 351 632 c 0,78,79
 364 643 364 643 353 659 c 1,80,-1
 366 674 l 1,81,-1
 431 615 l 1,44,-1
EndSplineSet
Validated: 1
EndChar

StartChar: y
Encoding: 121 121 96
Width: 571
GlyphClass: 1
Flags: W
LayerCount: 3
Fore
SplineSet
521 493 m 1,0,-1
 521 470 l 1,1,2
 510 468 510 468 498.5 462.5 c 128,-1,3
 487 457 487 457 478 445 c 2,4,-1
 314 235 l 1,5,-1
 314 48 l 2,6,7
 314 37 314 37 321 30 c 128,-1,8
 328 23 328 23 337 22 c 1,9,-1
 337 0 l 1,10,-1
 183 0 l 1,11,-1
 183 22 l 1,12,13
 191 23 191 23 198.5 30.5 c 128,-1,14
 206 38 206 38 206 48 c 2,15,-1
 206 235 l 1,16,-1
 43 445 l 2,17,18
 33 457 33 457 22 462.5 c 128,-1,19
 11 468 11 468 0 470 c 1,20,-1
 0 493 l 1,21,-1
 170 493 l 1,22,-1
 170 470 l 1,23,24
 162 470 162 470 160 463.5 c 128,-1,25
 158 457 158 457 167 445 c 2,26,-1
 260 325 l 1,27,-1
 353 445 l 2,28,29
 363 457 363 457 361 463.5 c 128,-1,30
 359 470 359 470 351 470 c 1,31,-1
 351 493 l 1,32,-1
 521 493 l 1,0,-1
EndSplineSet
Validated: 1
EndChar

StartChar: x
Encoding: 120 120 97
Width: 571
GlyphClass: 1
Flags: W
LayerCount: 3
Fore
SplineSet
478 445 m 2,0,-1
 323 246 l 1,1,-1
 478 48 l 2,2,3
 487 36 487 36 498.5 30 c 128,-1,4
 510 24 510 24 521 22 c 1,5,-1
 521 0 l 1,6,-1
 351 0 l 1,7,-1
 351 22 l 1,8,9
 359 23 359 23 361 29.5 c 128,-1,10
 363 36 363 36 353 48 c 2,11,-1
 260 167 l 1,12,-1
 167 48 l 2,13,14
 158 36 158 36 160 29.5 c 128,-1,15
 162 23 162 23 170 22 c 1,16,-1
 170 0 l 1,17,-1
 0 0 l 1,18,-1
 0 22 l 1,19,20
 11 24 11 24 22 30 c 128,-1,21
 33 36 33 36 43 48 c 2,22,-1
 198 246 l 1,23,-1
 43 445 l 2,24,25
 33 457 33 457 22 462.5 c 128,-1,26
 11 468 11 468 0 470 c 1,27,-1
 0 493 l 1,28,-1
 170 493 l 1,29,-1
 170 470 l 1,30,31
 162 470 162 470 160 463.5 c 128,-1,32
 158 457 158 457 167 445 c 2,33,-1
 260 325 l 1,34,-1
 353 445 l 2,35,36
 363 457 363 457 361 463.5 c 128,-1,37
 359 470 359 470 351 470 c 1,38,-1
 351 493 l 1,39,-1
 521 493 l 1,40,-1
 521 470 l 1,41,42
 510 468 510 468 498.5 462.5 c 128,-1,43
 487 457 487 457 478 445 c 2,0,-1
EndSplineSet
Validated: 1
EndChar

StartChar: yacute
Encoding: 253 253 98
Width: 571
GlyphClass: 1
Flags: W
LayerCount: 3
Fore
SplineSet
521 493 m 1,0,-1
 521 470 l 1,1,2
 510 468 510 468 498.5 462.5 c 128,-1,3
 487 457 487 457 478 445 c 2,4,-1
 314 235 l 1,5,-1
 314 48 l 2,6,7
 314 37 314 37 321 30 c 128,-1,8
 328 23 328 23 337 22 c 1,9,-1
 337 0 l 1,10,-1
 183 0 l 1,11,-1
 183 22 l 1,12,13
 191 23 191 23 198.5 30.5 c 128,-1,14
 206 38 206 38 206 48 c 2,15,-1
 206 235 l 1,16,-1
 43 445 l 2,17,18
 33 457 33 457 22 462.5 c 128,-1,19
 11 468 11 468 0 470 c 1,20,-1
 0 493 l 1,21,-1
 170 493 l 1,22,-1
 170 470 l 1,23,24
 162 470 162 470 160 463.5 c 128,-1,25
 158 457 158 457 167 445 c 2,26,-1
 260 325 l 1,27,-1
 353 445 l 2,28,29
 363 457 363 457 361 463.5 c 128,-1,30
 359 470 359 470 351 470 c 1,31,-1
 351 493 l 1,32,-1
 521 493 l 1,0,-1
343 671 m 1,33,-1
 343 654 l 1,34,35
 328 654 328 654 319 643 c 2,36,-1
 256 574 l 2,37,38
 251 569 251 569 254.5 565.5 c 128,-1,39
 258 562 258 562 263 562 c 1,40,-1
 263 545 l 1,41,-1
 176 545 l 1,42,-1
 176 562 l 1,43,44
 193 562 193 562 199 576 c 0,45,46
 211 600 211 600 217.5 613.5 c 128,-1,47
 224 627 224 627 227.5 634 c 128,-1,48
 231 641 231 641 232 643 c 128,-1,49
 233 645 233 645 233 647 c 0,50,51
 233 653 233 653 222 654 c 1,52,-1
 222 671 l 1,53,-1
 343 671 l 1,33,-1
EndSplineSet
Validated: 1
EndChar

StartChar: ydieresis
Encoding: 255 255 99
Width: 571
GlyphClass: 1
Flags: W
LayerCount: 3
Fore
SplineSet
230 602 m 0,0,1
 230 579 230 579 213.5 562 c 128,-1,2
 197 545 197 545 173 545 c 256,3,4
 149 545 149 545 132.5 562 c 128,-1,5
 116 579 116 579 116 602 c 0,6,7
 116 626 116 626 132.5 643 c 128,-1,8
 149 660 149 660 173 660 c 256,9,10
 197 660 197 660 213.5 643 c 128,-1,11
 230 626 230 626 230 602 c 0,0,1
404 602 m 0,12,13
 404 579 404 579 387.5 562 c 128,-1,14
 371 545 371 545 347 545 c 256,15,16
 323 545 323 545 306.5 562 c 128,-1,17
 290 579 290 579 290 602 c 0,18,19
 290 626 290 626 306.5 643 c 128,-1,20
 323 660 323 660 347 660 c 256,21,22
 371 660 371 660 387.5 643 c 128,-1,23
 404 626 404 626 404 602 c 0,12,13
521 493 m 1,24,-1
 521 470 l 1,25,26
 510 468 510 468 498.5 462.5 c 128,-1,27
 487 457 487 457 478 445 c 2,28,-1
 314 235 l 1,29,-1
 314 48 l 2,30,31
 314 37 314 37 321 30 c 128,-1,32
 328 23 328 23 337 22 c 1,33,-1
 337 0 l 1,34,-1
 183 0 l 1,35,-1
 183 22 l 1,36,37
 191 23 191 23 198.5 30.5 c 128,-1,38
 206 38 206 38 206 48 c 2,39,-1
 206 235 l 1,40,-1
 43 445 l 2,41,42
 33 457 33 457 22 462.5 c 128,-1,43
 11 468 11 468 0 470 c 1,44,-1
 0 493 l 1,45,-1
 170 493 l 1,46,-1
 170 470 l 1,47,48
 162 470 162 470 160 463.5 c 128,-1,49
 158 457 158 457 167 445 c 2,50,-1
 260 325 l 1,51,-1
 353 445 l 2,52,53
 363 457 363 457 361 463.5 c 128,-1,54
 359 470 359 470 351 470 c 1,55,-1
 351 493 l 1,56,-1
 521 493 l 1,24,-1
EndSplineSet
Validated: 1
EndChar

StartChar: f
Encoding: 102 102 100
Width: 545
GlyphClass: 1
Flags: W
LayerCount: 3
Fore
SplineSet
473 516 m 1,0,-1
 473 389 l 1,1,-1
 451 389 l 1,2,3
 449 399 449 399 442.5 405.5 c 128,-1,4
 436 412 436 412 425 412 c 2,5,-1
 131 412 l 1,6,-1
 131 287 l 1,7,-1
 299 287 l 2,8,9
 310 287 310 287 316 293.5 c 128,-1,10
 322 300 322 300 324 310 c 1,11,-1
 346 310 l 1,12,-1
 346 183 l 1,13,-1
 324 183 l 1,14,15
 323 192 323 192 316.5 199 c 128,-1,16
 310 206 310 206 299 206 c 2,17,-1
 131 206 l 1,18,-1
 131 48 l 2,19,20
 131 38 131 38 137.5 31 c 128,-1,21
 144 24 144 24 154 22 c 1,22,-1
 154 0 l 1,23,-1
 0 0 l 1,24,-1
 0 22 l 1,25,26
 10 24 10 24 16.5 31 c 128,-1,27
 23 38 23 38 23 48 c 2,28,-1
 23 445 l 2,29,30
 23 456 23 456 15.5 463.5 c 128,-1,31
 8 471 8 471 0 471 c 1,32,-1
 0 493 l 1,33,-1
 425 493 l 2,34,35
 436 493 436 493 442.5 500 c 128,-1,36
 449 507 449 507 451 516 c 1,37,-1
 473 516 l 1,0,-1
EndSplineSet
Validated: 1
EndChar

StartChar: u
Encoding: 117 117 101
Width: 627
GlyphClass: 1
Flags: W
LayerCount: 3
Fore
SplineSet
539 493 m 5,0,-1
 539 471 l 5,1,2
 531 471 531 471 523.5 463.5 c 132,-1,3
 516 456 516 456 516 445 c 6,4,-1
 516 237 l 6,5,6
 516 128 516 128 461 64 c 4,7,8
 422 18 422 18 352 1 c 4,9,10
 317 -8 317 -8 269 -8 c 260,11,12
 90 -8 90 -8 38 134 c 4,13,14
 23 176 23 176 23 237 c 6,15,-1
 23 445 l 6,16,17
 23 456 23 456 15.5 463.5 c 132,-1,18
 8 471 8 471 0 471 c 5,19,-1
 0 493 l 5,20,-1
 154 493 l 5,21,-1
 154 471 l 5,22,23
 146 471 146 471 138.5 463.5 c 132,-1,24
 131 456 131 456 131 445 c 6,25,-1
 131 235 l 6,26,27
 131 233 131 233 131 231 c 4,28,29
 131 133 131 133 186 96 c 4,30,31
 219 73 219 73 265 73 c 4,32,33
 267 73 267 73 269 73 c 4,34,35
 319 73 319 73 346.5 92.5 c 132,-1,36
 374 112 374 112 391 144.5 c 132,-1,37
 408 177 408 177 408 235 c 6,38,-1
 408 445 l 6,39,40
 408 456 408 456 400.5 463.5 c 132,-1,41
 393 471 393 471 385 471 c 5,42,-1
 385 493 l 5,43,-1
 539 493 l 5,0,-1
EndSplineSet
Validated: 1
EndChar

StartChar: uacute
Encoding: 250 250 102
Width: 627
GlyphClass: 1
Flags: W
LayerCount: 3
Fore
SplineSet
539 493 m 5,0,-1
 539 471 l 5,1,2
 531 471 531 471 523.5 463.5 c 132,-1,3
 516 456 516 456 516 445 c 6,4,-1
 516 237 l 6,5,6
 516 128 516 128 461 64 c 4,7,8
 422 18 422 18 352 1 c 4,9,10
 317 -8 317 -8 269 -8 c 260,11,12
 90 -8 90 -8 38 134 c 4,13,14
 23 176 23 176 23 237 c 6,15,-1
 23 445 l 6,16,17
 23 456 23 456 15.5 463.5 c 132,-1,18
 8 471 8 471 0 471 c 5,19,-1
 0 493 l 5,20,-1
 154 493 l 5,21,-1
 154 471 l 5,22,23
 146 471 146 471 138.5 463.5 c 132,-1,24
 131 456 131 456 131 445 c 6,25,-1
 131 235 l 6,26,27
 131 233 131 233 131 231 c 4,28,29
 131 133 131 133 186 96 c 4,30,31
 219 73 219 73 265 73 c 4,32,33
 267 73 267 73 269 73 c 4,34,35
 319 73 319 73 346.5 92.5 c 132,-1,36
 374 112 374 112 391 144.5 c 132,-1,37
 408 177 408 177 408 235 c 6,38,-1
 408 445 l 6,39,40
 408 456 408 456 400.5 463.5 c 132,-1,41
 393 471 393 471 385 471 c 5,42,-1
 385 493 l 5,43,-1
 539 493 l 5,0,-1
396 671 m 5,44,-1
 396 654 l 5,45,46
 381 654 381 654 372 643 c 6,47,-1
 309 574 l 6,48,49
 306 571 306 571 306 569 c 4,50,51
 306 568 306 568 308 566 c 4,52,53
 312 562 312 562 316 562 c 5,54,-1
 316 545 l 5,55,-1
 229 545 l 5,56,-1
 229 562 l 5,57,58
 246 562 246 562 252 576 c 4,59,60
 264 600 264 600 270 614 c 132,-1,61
 276 628 276 628 280 634 c 6,62,63
 280 634 280 634 286 647 c 5,64,65
 286 653 286 653 275 654 c 5,66,-1
 275 671 l 5,67,-1
 396 671 l 5,44,-1
EndSplineSet
Validated: 1
EndChar

StartChar: ugrave
Encoding: 249 249 103
Width: 627
GlyphClass: 1
Flags: W
LayerCount: 3
Fore
SplineSet
264 671 m 1,0,-1
 264 654 l 1,1,2
 253 653 253 653 253 647 c 0,3,4
 253 645 253 645 254 643 c 2,5,-1
 264 622 l 2,6,7
 274 600 274 600 283.5 581 c 128,-1,8
 293 562 293 562 310 562 c 1,9,-1
 310 545 l 1,10,-1
 223 545 l 1,11,-1
 223 562 l 1,12,13
 228 562 228 562 232 566 c 0,14,15
 233 567 233 567 233 569 c 128,-1,16
 233 571 233 571 230 574 c 2,17,-1
 167 643 l 2,18,19
 158 654 158 654 143 654 c 1,20,-1
 143 671 l 1,21,-1
 264 671 l 1,0,-1
539 493 m 1,22,-1
 539 471 l 1,23,24
 531 471 531 471 523.5 463.5 c 128,-1,25
 516 456 516 456 516 445 c 2,26,-1
 516 237 l 2,27,28
 516 128 516 128 461 64 c 0,29,30
 422 18 422 18 352 1 c 0,31,32
 317 -8 317 -8 269 -8 c 0,33,34
 90 -8 90 -8 38 134 c 0,35,36
 23 176 23 176 23 237 c 2,37,-1
 23 445 l 2,38,39
 23 456 23 456 15.5 463.5 c 128,-1,40
 8 471 8 471 0 471 c 1,41,-1
 0 493 l 1,42,-1
 154 493 l 1,43,-1
 154 471 l 1,44,45
 146 471 146 471 138.5 463.5 c 128,-1,46
 131 456 131 456 131 445 c 2,47,-1
 131 235 l 2,48,49
 131 233 131 233 131 231 c 0,50,51
 131 133 131 133 186 96 c 0,52,53
 219 73 219 73 265 73 c 0,54,55
 267 73 267 73 269 73 c 0,56,57
 319 73 319 73 346.5 92.5 c 128,-1,58
 374 112 374 112 391 144.5 c 128,-1,59
 408 177 408 177 408 235 c 2,60,-1
 408 445 l 2,61,62
 408 456 408 456 400.5 463.5 c 128,-1,63
 393 471 393 471 385 471 c 1,64,-1
 385 493 l 1,65,-1
 539 493 l 1,22,-1
EndSplineSet
Validated: 1
EndChar

StartChar: ucircumflex
Encoding: 251 251 104
Width: 627
GlyphClass: 1
Flags: W
LayerCount: 3
Fore
SplineSet
539 493 m 5,0,-1
 539 471 l 5,1,2
 531 471 531 471 523.5 463.5 c 132,-1,3
 516 456 516 456 516 445 c 6,4,-1
 516 237 l 6,5,6
 516 128 516 128 461 64 c 4,7,8
 422 18 422 18 352 1 c 4,9,10
 317 -8 317 -8 269 -8 c 260,11,12
 90 -8 90 -8 38 134 c 4,13,14
 23 176 23 176 23 237 c 6,15,-1
 23 445 l 6,16,17
 23 456 23 456 15.5 463.5 c 132,-1,18
 8 471 8 471 0 471 c 5,19,-1
 0 493 l 5,20,-1
 154 493 l 5,21,-1
 154 471 l 5,22,23
 146 471 146 471 138.5 463.5 c 132,-1,24
 131 456 131 456 131 445 c 6,25,-1
 131 235 l 6,26,27
 131 233 131 233 131 231 c 4,28,29
 131 133 131 133 186 96 c 4,30,31
 219 73 219 73 265 73 c 4,32,33
 267 73 267 73 269 73 c 4,34,35
 319 73 319 73 346.5 92.5 c 132,-1,36
 374 112 374 112 391 144.5 c 132,-1,37
 408 177 408 177 408 235 c 6,38,-1
 408 445 l 6,39,40
 408 456 408 456 400.5 463.5 c 132,-1,41
 393 471 393 471 385 471 c 5,42,-1
 385 493 l 5,43,-1
 539 493 l 5,0,-1
135 545 m 5,44,-1
 135 562 l 5,45,46
 147 562 147 562 155 570 c 6,47,-1
 215 637 l 6,48,49
 220 643 220 643 220 646 c 4,50,51
 220 648 220 648 219 650 c 4,52,53
 216 654 216 654 207 654 c 5,54,-1
 207 671 l 5,55,-1
 331 671 l 5,56,-1
 331 654 l 5,57,58
 320 652 320 652 320 646.5 c 132,-1,59
 320 641 320 641 326 635 c 6,60,-1
 385 570 l 6,61,62
 391 562 391 562 403 562 c 5,63,-1
 403 545 l 5,64,-1
 290 545 l 5,65,-1
 290 562 l 5,66,67
 298 562 298 562 300 566 c 4,68,69
 301 567 301 567 301 569 c 4,70,71
 301 573 301 573 297 577 c 6,72,-1
 263 616 l 5,73,-1
 229 577 l 6,74,75
 225 573 225 573 225 569 c 4,76,77
 225 568 225 568 226 566 c 4,78,79
 228 562 228 562 236 562 c 5,80,-1
 236 545 l 5,81,-1
 135 545 l 5,44,-1
EndSplineSet
Validated: 1
EndChar

StartChar: udieresis
Encoding: 252 252 105
Width: 627
GlyphClass: 1
Flags: W
LayerCount: 3
Fore
SplineSet
223 643 m 132,-1,1
 240 626 240 626 240 602.5 c 132,-1,2
 240 579 240 579 223 562 c 132,-1,3
 206 545 206 545 182.5 545 c 132,-1,4
 159 545 159 545 142 562 c 132,-1,5
 125 579 125 579 125 602.5 c 132,-1,6
 125 626 125 626 142 643 c 132,-1,7
 159 660 159 660 182.5 660 c 132,-1,0
 206 660 206 660 223 643 c 132,-1,1
397 643 m 132,-1,9
 414 626 414 626 414 602.5 c 132,-1,10
 414 579 414 579 397 562 c 132,-1,11
 380 545 380 545 356.5 545 c 132,-1,12
 333 545 333 545 316 562 c 132,-1,13
 299 579 299 579 299 602.5 c 132,-1,14
 299 626 299 626 316 643 c 132,-1,15
 333 660 333 660 356.5 660 c 132,-1,8
 380 660 380 660 397 643 c 132,-1,9
539 493 m 5,16,-1
 539 471 l 5,17,18
 531 471 531 471 523.5 463.5 c 132,-1,19
 516 456 516 456 516 445 c 6,20,-1
 516 237 l 6,21,22
 516 128 516 128 461 64 c 4,23,24
 422 18 422 18 352 1 c 4,25,26
 317 -8 317 -8 269 -8 c 260,27,28
 90 -8 90 -8 38 134 c 4,29,30
 23 176 23 176 23 237 c 6,31,-1
 23 445 l 6,32,33
 23 456 23 456 15.5 463.5 c 132,-1,34
 8 471 8 471 0 471 c 5,35,-1
 0 493 l 5,36,-1
 154 493 l 5,37,-1
 154 471 l 5,38,39
 146 471 146 471 138.5 463.5 c 132,-1,40
 131 456 131 456 131 445 c 6,41,-1
 131 235 l 6,42,43
 131 233 131 233 131 231 c 4,44,45
 131 133 131 133 186 96 c 4,46,47
 219 73 219 73 265 73 c 4,48,49
 267 73 267 73 269 73 c 4,50,51
 319 73 319 73 346.5 92.5 c 132,-1,52
 374 112 374 112 391 144.5 c 132,-1,53
 408 177 408 177 408 235 c 6,54,-1
 408 445 l 6,55,56
 408 456 408 456 400.5 463.5 c 132,-1,57
 393 471 393 471 385 471 c 5,58,-1
 385 493 l 5,59,-1
 539 493 l 5,16,-1
EndSplineSet
Validated: 1
EndChar

StartChar: eth
Encoding: 273 273 106
Width: 654
GlyphClass: 1
Flags: W
LayerCount: 3
Fore
SplineSet
48 215 m 6,0,1
 27 215 27 215 22 192 c 5,2,-1
 0 192 l 5,3,-1
 0 318 l 5,4,-1
 22 318 l 5,5,6
 24 309 24 309 31 302 c 132,-1,7
 38 295 38 295 48 295 c 6,8,-1
 66 295 l 5,9,-1
 66 445 l 6,10,11
 66 457 66 457 58.5 464 c 132,-1,12
 51 471 51 471 43 471 c 5,13,-1
 43 493 l 5,14,-1
 313 493 l 6,15,16
 463 493 463 493 532 408 c 4,17,18
 583 345 583 345 583 247 c 260,19,20
 582 86 582 86 450 24 c 4,21,22
 398 0 398 0 313 0 c 6,23,-1
 43 0 l 5,24,-1
 43 22 l 5,25,26
 53 23 53 23 59.5 30 c 132,-1,27
 66 37 66 37 66 48 c 6,28,-1
 66 215 l 5,29,-1
 48 215 l 6,0,1
286 192 m 5,30,31
 281 215 281 215 261 215 c 6,32,-1
 174 215 l 5,33,-1
 174 81 l 5,34,-1
 309 81 l 6,35,36
 412 81 412 81 452 147 c 4,37,38
 475 183 475 183 475 242 c 0,39,40
 475 309 475 309 456 341 c 132,-1,41
 437 373 437 373 403.5 392.5 c 132,-1,42
 370 412 370 412 309 412 c 6,43,-1
 174 412 l 5,44,-1
 174 295 l 5,45,-1
 261 295 l 6,46,47
 271 295 271 295 277.5 302 c 132,-1,48
 284 309 284 309 286 318 c 5,49,-1
 309 318 l 5,50,-1
 309 192 l 5,51,-1
 286 192 l 5,30,31
EndSplineSet
Validated: 1
EndChar

StartChar: l
Encoding: 108 108 107
Width: 545
GlyphClass: 1
Flags: W
LayerCount: 3
Fore
SplineSet
473 105 m 1,0,-1
 473 -23 l 1,1,-1
 451 -23 l 1,2,3
 449 -13 449 -13 442 -6.5 c 128,-1,4
 435 0 435 0 425 0 c 2,5,-1
 0 0 l 1,6,-1
 0 22 l 1,7,8
 10 24 10 24 16.5 31.5 c 128,-1,9
 23 39 23 39 23 48 c 2,10,-1
 23 445 l 2,11,12
 23 456 23 456 15.5 463.5 c 128,-1,13
 8 471 8 471 0 471 c 1,14,-1
 0 493 l 1,15,-1
 154 493 l 1,16,-1
 154 471 l 1,17,18
 146 471 146 471 138.5 463.5 c 128,-1,19
 131 456 131 456 131 445 c 2,20,-1
 131 82 l 1,21,-1
 425 82 l 2,22,23
 436 82 436 82 443 88.5 c 128,-1,24
 450 95 450 95 451 105 c 1,25,-1
 473 105 l 1,0,-1
EndSplineSet
Validated: 1
EndChar

StartChar: t
Encoding: 116 116 108
Width: 556
GlyphClass: 1
Flags: W
LayerCount: 3
Fore
SplineSet
484 516 m 1,0,-1
 484 389 l 1,1,-1
 461 389 l 1,2,3
 459 399 459 399 452.5 405.5 c 128,-1,4
 446 412 446 412 436 412 c 2,5,-1
 295 412 l 1,6,-1
 295 48 l 2,7,8
 295 37 295 37 302.5 30 c 128,-1,9
 310 23 310 23 318 22 c 1,10,-1
 318 0 l 1,11,-1
 165 0 l 1,12,-1
 165 22 l 1,13,14
 173 23 173 23 180.5 30 c 128,-1,15
 188 37 188 37 188 48 c 2,16,-1
 188 412 l 1,17,-1
 48 412 l 2,18,19
 37 412 37 412 30.5 405.5 c 128,-1,20
 24 399 24 399 22 389 c 1,21,-1
 0 389 l 1,22,-1
 0 516 l 1,23,-1
 22 516 l 1,24,25
 23 506 23 506 30 499.5 c 128,-1,26
 37 493 37 493 48 493 c 2,27,-1
 436 493 l 2,28,29
 446 493 446 493 453.5 499.5 c 128,-1,30
 461 506 461 506 461 516 c 1,31,-1
 484 516 l 1,0,-1
EndSplineSet
Validated: 1
EndChar

StartChar: e
Encoding: 101 101 109
Width: 552
GlyphClass: 1
Flags: W
LayerCount: 3
Fore
SplineSet
481 104 m 1,0,-1
 481 -23 l 1,1,-1
 459 -23 l 1,2,3
 457 -13 457 -13 450 -6.5 c 128,-1,4
 443 0 443 0 433 0 c 2,5,-1
 0 0 l 1,6,-1
 0 22 l 1,7,8
 10 24 10 24 16.5 31 c 128,-1,9
 23 38 23 38 23 48 c 2,10,-1
 23 445 l 2,11,12
 23 456 23 456 15.5 463 c 128,-1,13
 8 470 8 470 0 470 c 1,14,-1
 0 493 l 1,15,-1
 425 493 l 2,16,17
 435 493 435 493 442 499.5 c 128,-1,18
 449 506 449 506 451 516 c 1,19,-1
 473 516 l 1,20,-1
 473 389 l 1,21,-1
 451 389 l 1,22,23
 449 399 449 399 442 405.5 c 128,-1,24
 435 412 435 412 425 412 c 2,25,-1
 131 412 l 1,26,-1
 131 287 l 1,27,-1
 299 287 l 2,28,29
 310 287 310 287 316 293.5 c 128,-1,30
 322 300 322 300 324 310 c 1,31,-1
 346 310 l 1,32,-1
 346 183 l 1,33,-1
 324 183 l 1,34,35
 323 192 323 192 316.5 199 c 128,-1,36
 310 206 310 206 299 206 c 2,37,-1
 131 206 l 1,38,-1
 131 81 l 1,39,-1
 433 81 l 2,40,41
 444 81 444 81 451 88 c 128,-1,42
 458 95 458 95 459 104 c 1,43,-1
 481 104 l 1,0,-1
EndSplineSet
Validated: 1
EndChar

StartChar: eacute
Encoding: 233 233 110
Width: 552
GlyphClass: 1
Flags: W
LayerCount: 3
Fore
SplineSet
481 104 m 1,0,-1
 481 -23 l 1,1,-1
 459 -23 l 1,2,3
 457 -13 457 -13 450 -6.5 c 128,-1,4
 443 0 443 0 433 0 c 2,5,-1
 0 0 l 1,6,-1
 0 22 l 1,7,8
 10 24 10 24 16.5 31 c 128,-1,9
 23 38 23 38 23 48 c 2,10,-1
 23 445 l 2,11,12
 23 456 23 456 15.5 463 c 128,-1,13
 8 470 8 470 0 470 c 1,14,-1
 0 493 l 1,15,-1
 425 493 l 2,16,17
 435 493 435 493 442 499.5 c 128,-1,18
 449 506 449 506 451 516 c 1,19,-1
 473 516 l 1,20,-1
 473 389 l 1,21,-1
 451 389 l 1,22,23
 449 399 449 399 442 405.5 c 128,-1,24
 435 412 435 412 425 412 c 2,25,-1
 131 412 l 1,26,-1
 131 287 l 1,27,-1
 299 287 l 2,28,29
 310 287 310 287 316 293.5 c 128,-1,30
 322 300 322 300 324 310 c 1,31,-1
 346 310 l 1,32,-1
 346 183 l 1,33,-1
 324 183 l 1,34,35
 323 192 323 192 316.5 199 c 128,-1,36
 310 206 310 206 299 206 c 2,37,-1
 131 206 l 1,38,-1
 131 81 l 1,39,-1
 433 81 l 2,40,41
 444 81 444 81 451 88 c 128,-1,42
 458 95 458 95 459 104 c 1,43,-1
 481 104 l 1,0,-1
365 671 m 1,44,-1
 365 654 l 1,45,46
 350 654 350 654 341 643 c 2,47,-1
 278 574 l 2,48,49
 273 569 273 569 276.5 565.5 c 128,-1,50
 280 562 280 562 285 562 c 1,51,-1
 285 545 l 1,52,-1
 198 545 l 1,53,-1
 198 562 l 1,54,55
 215 562 215 562 221 576 c 0,56,57
 233 600 233 600 239.5 613.5 c 128,-1,58
 246 627 246 627 249.5 634 c 128,-1,59
 253 641 253 641 254 643 c 128,-1,60
 255 645 255 645 255 647 c 0,61,62
 255 653 255 653 244 654 c 1,63,-1
 244 671 l 1,64,-1
 365 671 l 1,44,-1
EndSplineSet
Validated: 1
EndChar

StartChar: edieresis
Encoding: 235 235 111
Width: 552
GlyphClass: 1
Flags: W
LayerCount: 3
Fore
SplineSet
211 602 m 0,0,1
 211 579 211 579 194 562 c 128,-1,2
 177 545 177 545 154 545 c 0,3,4
 130 545 130 545 113 562 c 128,-1,5
 96 579 96 579 96 602 c 0,6,7
 96 626 96 626 113 643 c 128,-1,8
 130 660 130 660 154 660 c 0,9,10
 177 660 177 660 194 643 c 128,-1,11
 211 626 211 626 211 602 c 0,0,1
385 602 m 0,12,13
 385 579 385 579 368 562 c 128,-1,14
 351 545 351 545 328 545 c 0,15,16
 304 545 304 545 287 562 c 128,-1,17
 270 579 270 579 270 602 c 0,18,19
 270 626 270 626 287 643 c 128,-1,20
 304 660 304 660 328 660 c 0,21,22
 351 660 351 660 368 643 c 128,-1,23
 385 626 385 626 385 602 c 0,12,13
481 104 m 1,24,-1
 481 -23 l 1,25,-1
 459 -23 l 1,26,27
 457 -13 457 -13 450 -6.5 c 128,-1,28
 443 0 443 0 433 0 c 2,29,-1
 0 0 l 1,30,-1
 0 22 l 1,31,32
 10 24 10 24 16.5 31 c 128,-1,33
 23 38 23 38 23 48 c 2,34,-1
 23 445 l 2,35,36
 23 456 23 456 15.5 463 c 128,-1,37
 8 470 8 470 0 470 c 1,38,-1
 0 493 l 1,39,-1
 425 493 l 2,40,41
 435 493 435 493 442 499.5 c 128,-1,42
 449 506 449 506 451 516 c 1,43,-1
 473 516 l 1,44,-1
 473 389 l 1,45,-1
 451 389 l 1,46,47
 449 399 449 399 442 405.5 c 128,-1,48
 435 412 435 412 425 412 c 2,49,-1
 131 412 l 1,50,-1
 131 287 l 1,51,-1
 299 287 l 2,52,53
 310 287 310 287 316 293.5 c 128,-1,54
 322 300 322 300 324 310 c 1,55,-1
 346 310 l 1,56,-1
 346 183 l 1,57,-1
 324 183 l 1,58,59
 323 192 323 192 316.5 199 c 128,-1,60
 310 206 310 206 299 206 c 2,61,-1
 131 206 l 1,62,-1
 131 81 l 1,63,-1
 433 81 l 2,64,65
 444 81 444 81 451 88 c 128,-1,66
 458 95 458 95 459 104 c 1,67,-1
 481 104 l 1,24,-1
EndSplineSet
Validated: 1
EndChar

StartChar: ecircumflex
Encoding: 234 234 112
Width: 552
GlyphClass: 1
Flags: W
LayerCount: 3
Fore
SplineSet
481 104 m 1,0,-1
 481 -23 l 1,1,-1
 459 -23 l 1,2,3
 457 -13 457 -13 450 -6.5 c 128,-1,4
 443 0 443 0 433 0 c 2,5,-1
 0 0 l 1,6,-1
 0 22 l 1,7,8
 10 24 10 24 16.5 31 c 128,-1,9
 23 38 23 38 23 48 c 2,10,-1
 23 445 l 2,11,12
 23 456 23 456 15.5 463 c 128,-1,13
 8 470 8 470 0 470 c 1,14,-1
 0 493 l 1,15,-1
 425 493 l 2,16,17
 435 493 435 493 442 499.5 c 128,-1,18
 449 506 449 506 451 516 c 1,19,-1
 473 516 l 1,20,-1
 473 389 l 1,21,-1
 451 389 l 1,22,23
 449 399 449 399 442 405.5 c 128,-1,24
 435 412 435 412 425 412 c 2,25,-1
 131 412 l 1,26,-1
 131 287 l 1,27,-1
 299 287 l 2,28,29
 310 287 310 287 316 293.5 c 128,-1,30
 322 300 322 300 324 310 c 1,31,-1
 346 310 l 1,32,-1
 346 183 l 1,33,-1
 324 183 l 1,34,35
 323 192 323 192 316.5 199 c 128,-1,36
 310 206 310 206 299 206 c 2,37,-1
 131 206 l 1,38,-1
 131 81 l 1,39,-1
 433 81 l 2,40,41
 444 81 444 81 451 88 c 128,-1,42
 458 95 458 95 459 104 c 1,43,-1
 481 104 l 1,0,-1
112 545 m 1,44,-1
 112 562 l 1,45,46
 120 562 120 562 124 564 c 128,-1,47
 128 566 128 566 132 570 c 2,48,-1
 192 637 l 2,49,50
 199 645 199 645 196 649.5 c 128,-1,51
 193 654 193 654 184 654 c 1,52,-1
 184 671 l 1,53,-1
 308 671 l 1,54,-1
 308 654 l 1,55,56
 297 652 297 652 297 646.5 c 128,-1,57
 297 641 297 641 303 635 c 2,58,-1
 362 570 l 2,59,60
 368 562 368 562 380 562 c 1,61,-1
 380 545 l 1,62,-1
 267 545 l 1,63,-1
 267 562 l 1,64,65
 275 562 275 562 277 566.5 c 128,-1,66
 279 571 279 571 274 577 c 2,67,-1
 240 616 l 1,68,-1
 206 577 l 2,69,70
 201 571 201 571 203 566.5 c 128,-1,71
 205 562 205 562 213 562 c 1,72,-1
 213 545 l 1,73,-1
 112 545 l 1,44,-1
EndSplineSet
Validated: 1
EndChar

StartChar: egrave
Encoding: 232 232 113
Width: 552
GlyphClass: 1
Flags: W
LayerCount: 3
Fore
SplineSet
481 104 m 1,0,-1
 481 -23 l 1,1,-1
 459 -23 l 1,2,3
 457 -13 457 -13 450 -6.5 c 128,-1,4
 443 0 443 0 433 0 c 2,5,-1
 0 0 l 1,6,-1
 0 22 l 1,7,8
 10 24 10 24 16.5 31 c 128,-1,9
 23 38 23 38 23 48 c 2,10,-1
 23 445 l 2,11,12
 23 456 23 456 15.5 463 c 128,-1,13
 8 470 8 470 0 470 c 1,14,-1
 0 493 l 1,15,-1
 425 493 l 2,16,17
 435 493 435 493 442 499.5 c 128,-1,18
 449 506 449 506 451 516 c 1,19,-1
 473 516 l 1,20,-1
 473 389 l 1,21,-1
 451 389 l 1,22,23
 449 399 449 399 442 405.5 c 128,-1,24
 435 412 435 412 425 412 c 2,25,-1
 131 412 l 1,26,-1
 131 287 l 1,27,-1
 299 287 l 2,28,29
 310 287 310 287 316 293.5 c 128,-1,30
 322 300 322 300 324 310 c 1,31,-1
 346 310 l 1,32,-1
 346 183 l 1,33,-1
 324 183 l 1,34,35
 323 192 323 192 316.5 199 c 128,-1,36
 310 206 310 206 299 206 c 2,37,-1
 131 206 l 1,38,-1
 131 81 l 1,39,-1
 433 81 l 2,40,41
 444 81 444 81 451 88 c 128,-1,42
 458 95 458 95 459 104 c 1,43,-1
 481 104 l 1,0,-1
240 671 m 1,44,-1
 240 654 l 1,45,46
 229 653 229 653 229 647 c 0,47,48
 229 645 229 645 230 643 c 128,-1,49
 231 641 231 641 234.5 634 c 128,-1,50
 238 627 238 627 244.5 613.5 c 128,-1,51
 251 600 251 600 263 576 c 0,52,53
 269 562 269 562 286 562 c 1,54,-1
 286 545 l 1,55,-1
 199 545 l 1,56,-1
 199 562 l 1,57,58
 204 562 204 562 207.5 565.5 c 128,-1,59
 211 569 211 569 206 574 c 2,60,-1
 143 643 l 2,61,62
 134 654 134 654 119 654 c 1,63,-1
 119 671 l 1,64,-1
 240 671 l 1,44,-1
EndSplineSet
Validated: 1
EndChar

StartChar: z
Encoding: 122 122 114
Width: 540
GlyphClass: 1
Flags: W
LayerCount: 3
Fore
SplineSet
468 105 m 1,0,-1
 468 -23 l 1,1,-1
 446 -23 l 1,2,3
 444 -13 444 -13 437 -6.5 c 128,-1,4
 430 0 430 0 420 0 c 2,5,-1
 0 0 l 1,6,-1
 0 31 l 1,7,-1
 287 412 l 1,8,-1
 48 412 l 2,9,10
 37 412 37 412 30.5 405.5 c 128,-1,11
 24 399 24 399 22 389 c 1,12,-1
 0 389 l 1,13,-1
 0 516 l 1,14,-1
 22 516 l 1,15,16
 23 506 23 506 30 499.5 c 128,-1,17
 37 493 37 493 48 493 c 2,18,-1
 460 493 l 1,19,-1
 460 462 l 1,20,-1
 173 82 l 1,21,-1
 420 82 l 2,22,23
 431 82 431 82 438 88.5 c 128,-1,24
 445 95 445 95 446 105 c 1,25,-1
 468 105 l 1,0,-1
EndSplineSet
Validated: 1
EndChar

StartChar: ccedilla
Encoding: 231 231 115
Width: 594
GlyphClass: 1
Flags: W
LayerCount: 3
Fore
SplineSet
210 -113 m 1,0,-1
 233 -69 l 2,1,2
 243 -50 243 -50 251 -50 c 0,3,4
 302 -50 302 -50 340.5 -69 c 128,-1,5
 379 -88 379 -88 379 -127 c 0,6,7
 378 -189 378 -189 314 -202 c 0,8,9
 288 -207 288 -207 259 -207 c 0,10,11
 216 -207 216 -207 168 -196 c 1,12,-1
 179 -173 l 1,13,14
 203 -180 203 -180 230 -180 c 128,-1,15
 257 -180 257 -180 275.5 -169.5 c 128,-1,16
 294 -159 294 -159 294 -142.5 c 128,-1,17
 294 -126 294 -126 286.5 -117.5 c 128,-1,18
 279 -109 279 -109 268 -106 c 0,19,20
 262 -104 262 -104 256 -104 c 0,21,22
 237 -104 237 -104 223 -122 c 1,23,-1
 210 -113 l 1,0,-1
522 455 m 1,24,25
 492 403 492 403 457 345 c 1,26,-1
 438 357 l 1,27,28
 445 368 445 368 439 378 c 0,29,30
 433 388 433 388 414 398 c 0,31,32
 375 417 375 417 303 420 c 1,33,-1
 300 420 l 2,34,35
 212 420 212 420 160.5 370.5 c 128,-1,36
 109 321 109 321 109 245 c 0,37,38
 109 172 109 172 160 123 c 0,39,40
 213 71 213 71 300 71 c 2,41,-1
 303 71 l 1,42,43
 376 73 376 73 420 96 c 0,44,45
 433 102 433 102 439 112.5 c 128,-1,46
 445 123 445 123 438 135 c 1,47,-1
 457 146 l 1,48,49
 501 73 501 73 522 37 c 1,50,-1
 503 25 l 1,51,52
 491 38 491 38 479 34 c 0,53,54
 466 30 466 30 446 19 c 0,55,56
 394 -9 394 -9 312 -9 c 1,57,58
 229 -9 229 -9 173.5 10 c 128,-1,59
 118 29 118 29 80 63 c 0,60,61
 0 133 0 133 0 248 c 256,62,63
 0 363 0 363 80 431 c 0,64,65
 162 501 162 501 300 501 c 0,66,67
 392 501 392 501 458 466 c 0,68,69
 467 461 467 461 479 456.5 c 128,-1,70
 491 452 491 452 503 466 c 1,71,-1
 522 455 l 1,24,25
EndSplineSet
Validated: 1
EndChar

StartChar: c
Encoding: 99 99 116
Width: 594
GlyphClass: 1
Flags: W
LayerCount: 3
Fore
SplineSet
522 455 m 1,0,1
 492 403 492 403 457 345 c 1,2,-1
 438 357 l 1,3,4
 445 368 445 368 439 378 c 0,5,6
 433 388 433 388 414 398 c 0,7,8
 375 417 375 417 303 420 c 1,9,-1
 300 420 l 2,10,11
 212 420 212 420 160.5 370.5 c 128,-1,12
 109 321 109 321 109 245 c 0,13,14
 109 172 109 172 160 123 c 0,15,16
 213 71 213 71 300 71 c 2,17,-1
 303 71 l 1,18,19
 376 73 376 73 420 96 c 0,20,21
 433 102 433 102 439 112.5 c 128,-1,22
 445 123 445 123 438 135 c 1,23,-1
 457 146 l 1,24,25
 501 73 501 73 522 37 c 1,26,-1
 503 25 l 1,27,28
 491 38 491 38 479 34 c 0,29,30
 466 30 466 30 446 19 c 0,31,32
 394 -9 394 -9 312 -9 c 1,33,34
 229 -9 229 -9 173.5 10 c 128,-1,35
 118 29 118 29 80 63 c 0,36,37
 0 133 0 133 0 248 c 256,38,39
 0 363 0 363 80 431 c 0,40,41
 162 501 162 501 300 501 c 0,42,43
 392 501 392 501 458 466 c 0,44,45
 467 461 467 461 479 456.5 c 128,-1,46
 491 452 491 452 503 466 c 1,47,-1
 522 455 l 1,0,1
EndSplineSet
Validated: 1
EndChar

StartChar: scaron
Encoding: 353 353 117
Width: 549
GlyphClass: 1
Flags: W
LayerCount: 3
Fore
SplineSet
388 356 m 5,0,1
 390 362 390 362 391 368 c 0,2,3
 391 393 391 393 345 407 c 4,4,5
 303 420 303 420 257 420 c 0,6,7
 240 420 240 420 223 418 c 4,8,9
 157 412 157 412 133 385 c 4,10,11
 123 374 123 374 123 358 c 4,12,13
 123 327 123 327 159 313 c 4,14,15
 185 303 185 303 205 300 c 4,16,17
 240 294 240 294 248 293 c 4,18,19
 272 289 272 289 280 288 c 4,20,21
 354 275 354 275 405 251 c 4,22,23
 436 237 436 237 455 209 c 0,24,25
 473 181 473 181 473 147 c 0,26,27
 473 71 473 71 403 30 c 0,28,29
 345 -4 345 -4 246 -9 c 0,30,31
 236 -9 236 -9 227 -9 c 0,32,33
 139 -9 139 -9 68 25 c 0,34,35
 40 38 40 38 32 39 c 0,36,37
 32 38 32 38 32 38 c 0,38,39
 24 38 24 38 18 30 c 1,40,-1
 0 42 l 1,41,-1
 64 150 l 1,42,-1
 83 140 l 1,43,44
 82 135 82 135 82 131 c 0,45,46
 82 117 82 117 94 107 c 0,47,48
 124 82 124 82 196 75 c 0,49,50
 214 73 214 73 231 73 c 0,51,52
 244 73 244 73 256 74 c 0,53,54
 365 82 365 82 365 138 c 0,55,56
 365 172 365 172 310 188 c 0,57,58
 281 197 281 197 242 202 c 0,59,60
 203 208 203 208 190 211 c 0,61,62
 110 226 110 226 70 250 c 0,63,64
 16 283 16 283 16 346 c 0,65,66
 16 387 16 387 37.5 420 c 128,-1,67
 59 453 59 453 97 472 c 4,68,69
 159 502 159 502 243 502 c 0,70,71
 265 502 265 502 289 500 c 4,72,73
 344 495 344 495 376 482 c 4,74,75
 405 470 405 470 418 464 c 4,76,77
 427 460 427 460 436 457 c 4,78,79
 445 454 445 454 453 466 c 5,80,-1
 472 454 l 5,81,-1
 407 345 l 5,82,-1
 388 356 l 5,0,1
386 671 m 5,83,-1
 386 654 l 5,84,85
 378 654 378 654 374 652 c 4,86,87
 369 650 369 650 366 646 c 6,88,-1
 306 579 l 6,89,90
 299 571 299 571 302 566.5 c 132,-1,91
 305 562 305 562 314 562 c 5,92,-1
 314 545 l 5,93,-1
 190 545 l 5,94,-1
 190 562 l 5,95,96
 201 564 201 564 201 570 c 4,97,98
 201 575 201 575 195 581 c 6,99,-1
 136 646 l 6,100,101
 129 654 129 654 118 654 c 5,102,-1
 118 671 l 5,103,-1
 231 671 l 5,104,-1
 231 654 l 5,105,106
 223 654 223 654 221 649.5 c 132,-1,107
 219 645 219 645 224 639 c 6,108,-1
 258 600 l 5,109,-1
 292 639 l 6,110,111
 297 645 297 645 295 649.5 c 132,-1,112
 293 654 293 654 285 654 c 5,113,-1
 285 671 l 5,114,-1
 386 671 l 5,83,-1
EndSplineSet
Validated: 1
EndChar

StartChar: s
Encoding: 115 115 118
Width: 549
GlyphClass: 1
Flags: W
LayerCount: 3
Fore
SplineSet
388 356 m 5,0,1
 390 362 390 362 391 368 c 0,2,3
 391 393 391 393 345 407 c 4,4,5
 303 420 303 420 257 420 c 0,6,7
 240 420 240 420 223 418 c 4,8,9
 157 412 157 412 133 385 c 4,10,11
 123 374 123 374 123 358 c 4,12,13
 123 327 123 327 159 313 c 4,14,15
 185 303 185 303 205 300 c 4,16,17
 240 294 240 294 248 293 c 4,18,19
 272 289 272 289 280 288 c 4,20,21
 354 275 354 275 405 251 c 4,22,23
 436 237 436 237 455 209 c 4,24,25
 473 181 473 181 473 147 c 4,26,27
 473 71 473 71 403 30 c 4,28,29
 345 -4 345 -4 246 -9 c 4,30,31
 236 -9 236 -9 227 -9 c 0,32,33
 139 -9 139 -9 68 25 c 4,34,35
 40 38 40 38 32 39 c 0,36,37
 32 38 32 38 32 38 c 4,38,39
 24 38 24 38 18 30 c 5,40,-1
 0 42 l 5,41,-1
 64 150 l 5,42,-1
 83 140 l 5,43,44
 82 135 82 135 82 131 c 0,45,46
 82 117 82 117 94 107 c 4,47,48
 124 82 124 82 196 75 c 4,49,50
 214 73 214 73 231 73 c 0,51,52
 244 73 244 73 256 74 c 4,53,54
 365 82 365 82 365 138 c 0,55,56
 365 172 365 172 310 188 c 4,57,58
 281 197 281 197 242 202 c 4,59,60
 203 208 203 208 190 211 c 4,61,62
 110 226 110 226 70 250 c 4,63,64
 16 283 16 283 16 346 c 4,65,66
 16 387 16 387 37.5 420 c 132,-1,67
 59 453 59 453 97 472 c 4,68,69
 159 502 159 502 243 502 c 0,70,71
 265 502 265 502 289 500 c 4,72,73
 344 495 344 495 376 482 c 4,74,75
 405 470 405 470 418 464 c 4,76,77
 427 460 427 460 436 457 c 132,-1,78
 445 454 445 454 453 466 c 5,79,-1
 472 454 l 5,80,-1
 407 345 l 5,81,-1
 388 356 l 5,0,1
EndSplineSet
Validated: 1
EndChar

StartChar: j
Encoding: 106 106 119
Width: 502
GlyphClass: 1
Flags: W
LayerCount: 3
Fore
SplineSet
19 26 m 1052,0,-1
288 492 m 1,1,-1
 442 492 l 1,2,-1
 442 470 l 1,3,4
 433 470 433 470 426 462 c 128,-1,5
 419 454 419 454 419 444 c 2,6,-1
 419 236 l 2,7,8
 419 164 419 164 406 124 c 0,9,10
 395 90 395 90 371 61 c 0,11,12
 346 33 346 33 314 16 c 0,13,14
 270 -7 270 -7 212 -7 c 0,15,16
 188 -7 188 -7 162 -3 c 0,17,18
 101 6 101 6 54 32 c 0,19,20
 47 36 47 36 40 36 c 0,21,22
 29 36 29 36 19 26 c 1,23,-1
 0 38 l 1,24,-1
 65 147 l 1,25,-1
 84 136 l 1,26,27
 82 131 82 131 82 127 c 0,28,29
 82 117 82 117 90 107 c 0,30,31
 113 80 113 80 167 74 c 0,32,33
 177 73 177 73 187 72 c 0,34,35
 225 72 225 72 255 91 c 0,36,37
 283 109 283 109 298 144 c 0,38,39
 311 174 311 174 311 234 c 2,40,-1
 311 444 l 2,41,42
 311 454 311 454 304 462 c 128,-1,43
 297 470 297 470 288 470 c 1,44,-1
 288 492 l 1,1,-1
EndSplineSet
Validated: 1
EndChar

StartChar: g
Encoding: 103 103 120
Width: 639
GlyphClass: 1
Flags: W
LayerCount: 3
Fore
SplineSet
300 71 m 129,-1,1
 387 71 387 71 436 106 c 1,2,-1
 436 177 l 1,3,-1
 361 177 l 2,4,5
 348 177 348 177 341.5 169.5 c 128,-1,6
 335 162 335 162 335 154 c 1,7,-1
 313 154 l 1,8,-1
 313 270 l 1,9,-1
 335 270 l 1,10,11
 335 262 335 262 342.5 254.5 c 128,-1,12
 350 247 350 247 361 247 c 2,13,-1
 566 247 l 1,14,-1
 566 225 l 1,15,16
 543 221 543 221 543 200 c 2,17,-1
 543 128 l 2,18,19
 543 107 543 107 566 103 c 1,20,-1
 566 80 l 1,21,22
 445 -9 445 -9 300 -9 c 0,23,24
 162 -8 162 -8 80 62 c 0,25,26
 0 131 0 131 0 246 c 256,27,28
 0 360 0 360 80 430 c 0,29,30
 160 501 160 501 300 501 c 0,31,32
 392 501 392 501 458 466 c 0,33,34
 467 461 467 461 479 456.5 c 128,-1,35
 491 452 491 452 503 466 c 1,36,-1
 522 455 l 1,37,38
 492 403 492 403 457 345 c 1,39,-1
 438 357 l 1,40,41
 444 368 444 368 438 378 c 128,-1,42
 432 388 432 388 414 398 c 0,43,44
 376 417 376 417 300 420 c 0,45,46
 214 420 214 420 160 370 c 0,47,48
 108 321 108 321 108 246 c 256,49,50
 108 172 108 172 160 122 c 0,51,0
 213 71 213 71 300 71 c 129,-1,1
EndSplineSet
Validated: 1
EndChar

StartChar: Oslash
Encoding: 216 216 121
Width: 760
GlyphClass: 1
Flags: W
LayerCount: 3
Fore
SplineSet
347 610 m 0,0,1
 436 610 436 610 507 581 c 1,2,-1
 523 601 l 2,3,4
 531 612 531 612 531 619 c 0,5,6
 531 629 531 629 515 632 c 1,7,-1
 515 659 l 1,8,-1
 673 659 l 1,9,-1
 673 632 l 1,10,11
 642 628 642 628 621 601 c 2,12,-1
 576 542 l 1,13,14
 689 457 689 457 689 300 c 0,15,16
 689 164 689 164 603 80 c 0,17,18
 511 -10 511 -10 345 -10 c 0,19,20
 252 -10 252 -10 182 18 c 1,21,-1
 167 -2 l 2,22,23
 158 -13 158 -13 158 -21 c 0,24,25
 158 -31 158 -31 174 -33 c 1,26,-1
 174 -60 l 1,27,-1
 17 -60 l 1,28,-1
 17 -33 l 1,29,30
 48 -29 48 -29 68 -2 c 2,31,-1
 113 57 l 1,32,33
 0 142 0 142 0 300 c 0,34,35
 0 435 0 435 86 519 c 0,36,37
 178 610 178 610 347 610 c 0,0,1
195 449 m 128,-1,39
 133 387 133 387 133 301 c 0,40,41
 133 218 133 218 188 157 c 1,42,-1
 438 489 l 1,43,44
 397 511 397 511 345 511 c 0,45,38
 257 511 257 511 195 449 c 128,-1,39
345 88 m 0,46,47
 432 88 432 88 494 150 c 128,-1,48
 556 212 556 212 556 297 c 128,-1,49
 556 382 556 382 501 442 c 1,50,-1
 251 110 l 1,51,52
 297 88 297 88 345 88 c 0,46,47
EndSplineSet
Validated: 1
EndChar

StartChar: oslash
Encoding: 248 248 122
Width: 638
GlyphClass: 1
Flags: W
LayerCount: 3
Fore
SplineSet
93 47 m 1,0,1
 0 115 0 115 0 247 c 0,2,3
 0 360 0 360 70 428 c 0,4,5
 147 502 147 502 284 502 c 0,6,7
 361 502 361 502 417 478 c 1,8,-1
 430 494 l 2,9,10
 437 503 437 503 437 509 c 0,11,12
 437 517 437 517 424 520 c 1,13,-1
 424 542 l 1,14,-1
 554 542 l 1,15,-1
 554 520 l 1,16,17
 527 515 527 515 511 494 c 2,18,-1
 474 446 l 1,19,20
 567 377 567 377 567 247 c 0,21,22
 567 136 567 136 496 66 c 0,23,24
 420 -8 420 -8 284 -8 c 1,25,26
 205 -8 205 -8 150 15 c 1,27,-1
 137 -2 l 2,28,29
 130 -11 130 -11 130 -17 c 0,30,31
 130 -25 130 -25 143 -27 c 1,32,-1
 143 -49 l 1,33,-1
 14 -49 l 1,34,-1
 14 -27 l 1,35,36
 39 -24 39 -24 56 -2 c 2,37,-1
 93 47 l 1,0,1
360 402 m 1,38,39
 329 420 329 420 288.5 420 c 128,-1,40
 248 420 248 420 216 406 c 128,-1,41
 184 392 184 392 160 368 c 0,42,43
 109 318 109 318 109 247 c 0,44,45
 109 179 109 179 155 129 c 1,46,-1
 360 402 l 1,38,39
412 364 m 1,47,-1
 206 91 l 1,48,49
 244 72 244 72 282.5 72 c 128,-1,50
 321 72 321 72 352.5 86.5 c 128,-1,51
 384 101 384 101 407 125 c 0,52,53
 457 177 457 177 457 245.5 c 128,-1,54
 457 314 457 314 412 364 c 1,47,-1
EndSplineSet
Validated: 1
EndChar

StartChar: florin
Encoding: 402 402 123
Width: 761
GlyphClass: 1
Flags: W
LayerCount: 3
Fore
SplineSet
710 615 m 1,0,-1
 626 485 l 1,1,-1
 603 499 l 1,2,3
 612 517 612 517 604.5 527 c 128,-1,4
 597 537 597 537 581.5 544.5 c 128,-1,5
 566 552 566 552 546 554 c 0,6,7
 538 555 538 555 531 555 c 0,8,9
 492 555 492 555 469 528 c 0,10,11
 451 505 451 505 442 448 c 2,12,-1
 435 407 l 1,13,-1
 503 407 l 2,14,15
 529 407 529 407 539 435 c 1,16,-1
 566 435 l 1,17,-1
 539 280 l 1,18,-1
 512 280 l 1,19,20
 509 309 509 309 486 309 c 2,21,-1
 418 309 l 1,22,-1
 383 109 l 2,23,24
 364 -1 364 -1 284 -35 c 0,25,26
 243 -54 243 -54 197 -54 c 0,27,28
 190 -54 190 -54 182 -54 c 0,29,30
 128 -50 128 -50 80 -28 c 0,31,32
 60 -19 60 -19 46 -19 c 0,33,34
 31 -19 31 -19 23 -30 c 1,35,-1
 0 -15 l 1,36,-1
 18 13 l 1,37,-1
 74 99 l 1,38,-1
 84 115 l 1,39,-1
 106 100 l 1,40,41
 102 93 102 93 102 86 c 0,42,43
 102 73 102 73 115 62 c 0,44,45
 135 45 135 45 178 43 c 0,46,47
 250 43 250 43 264 136 c 1,48,-1
 294 309 l 1,49,-1
 267 309 l 2,50,51
 241 309 241 309 231 280 c 1,52,-1
 204 280 l 1,53,-1
 231 435 l 1,54,-1
 258 435 l 1,55,56
 261 407 261 407 285 407 c 2,57,-1
 312 407 l 1,58,-1
 326 490 l 2,59,60
 345 597 345 597 425 634 c 0,61,62
 468 653 468 653 515 653 c 0,63,64
 570 653 570 653 630 627 c 0,65,66
 650 618 650 618 664 618 c 0,67,68
 679 618 679 618 687 629 c 1,69,-1
 710 615 l 1,0,-1
EndSplineSet
Validated: 1
EndChar

StartChar: AE
Encoding: 198 198 124
Width: 1025
GlyphClass: 1
Flags: W
LayerCount: 3
Fore
SplineSet
953 127 m 1,0,-1
 953 -28 l 1,1,-1
 926 -28 l 1,2,3
 924 -16 924 -16 916 -8 c 128,-1,4
 908 0 908 0 895 0 c 2,5,-1
 368 0 l 1,6,-1
 368 27 l 1,7,8
 380 29 380 29 388 38 c 128,-1,9
 396 47 396 47 396 58 c 2,10,-1
 396 136 l 1,11,-1
 209 136 l 1,12,-1
 173 58 l 2,13,14
 169 50 169 50 169 43 c 0,15,16
 169 29 169 29 189 27 c 1,17,-1
 189 0 l 1,18,-1
 0 0 l 1,19,-1
 0 27 l 1,20,21
 28 31 28 31 42 58 c 2,22,-1
 267 541 l 2,23,24
 271 549 271 549 271 555 c 0,25,26
 271 570 271 570 250 572 c 1,27,-1
 250 599 l 1,28,-1
 884 599 l 2,29,30
 897 599 897 599 905.5 607.5 c 128,-1,31
 914 616 914 616 916 627 c 1,32,-1
 943 627 l 1,33,-1
 943 473 l 1,34,-1
 916 473 l 1,35,36
 914 485 914 485 905.5 493 c 128,-1,37
 897 501 897 501 884 501 c 2,38,-1
 527 501 l 1,39,-1
 527 349 l 1,40,-1
 731 349 l 2,41,42
 744 349 744 349 752 357 c 128,-1,43
 760 365 760 365 762 377 c 1,44,-1
 789 377 l 1,45,-1
 789 222 l 1,46,-1
 762 222 l 1,47,48
 761 233 761 233 752.5 241.5 c 128,-1,49
 744 250 744 250 731 250 c 2,50,-1
 527 250 l 1,51,-1
 527 99 l 1,52,-1
 895 99 l 2,53,54
 908 99 908 99 916 107.5 c 128,-1,55
 924 116 924 116 926 127 c 1,56,-1
 953 127 l 1,0,-1
396 501 m 1,57,-1
 379 501 l 1,58,-1
 255 235 l 1,59,-1
 396 235 l 1,60,-1
 396 501 l 1,57,-1
EndSplineSet
Validated: 1
EndChar

StartChar: ampersand
Encoding: 38 38 125
Width: 668
GlyphClass: 1
Flags: W
LayerCount: 3
Fore
SplineSet
586 356 m 1,0,-1
 586 329 l 1,1,2
 575 328 575 328 567 320 c 128,-1,3
 559 312 559 312 557 298 c 0,4,5
 550 200 550 200 479 126 c 0,6,7
 429 73 429 73 360.5 39.5 c 128,-1,8
 292 6 292 6 222 1 c 0,9,10
 210 0 210 0 198 -0 c 0,11,12
 142 0 142 0 98 19 c 0,13,14
 44 42 44 42 18 89 c 0,15,16
 1 122 1 122 1 161 c 0,17,18
 1 165 1 165 1 168 c 0,19,20
 4 237 4 237 56 304 c 0,21,22
 78 333 78 333 107 358 c 1,23,24
 83 401 83 401 83 458 c 0,25,26
 83 513 83 513 129 560 c 0,27,28
 188 620 188 620 297 620 c 0,29,30
 344 620 344 620 375 612 c 0,31,32
 393 607 393 607 404 607 c 0,33,34
 412 607 412 607 415 609 c 0,35,36
 425 615 425 615 430 625 c 1,37,-1
 456 617 l 1,38,-1
 446 585 l 1,39,40
 446 584 446 584 418 486 c 1,41,-1
 412 469 l 1,42,-1
 386 476 l 1,43,44
 388 489 388 489 384 497 c 0,45,46
 371 521 371 521 319 521 c 0,47,48
 318 521 318 521 318 521 c 0,49,50
 265 521 265 521 240 499 c 0,51,52
 217 479 217 479 217 452 c 0,53,54
 217 442 217 442 220 433 c 0,55,56
 222 426 222 426 231.5 417 c 128,-1,57
 241 408 241 408 254.5 408 c 128,-1,58
 268 408 268 408 276 416 c 0,59,60
 284 424 284 424 286 436 c 1,61,-1
 314 436 l 1,62,-1
 314 282 l 1,63,-1
 286 282 l 1,64,65
 285 293 285 293 277.5 300.5 c 128,-1,66
 270 308 270 308 248 310 c 0,67,68
 246 310 246 310 245 310 c 0,69,70
 225 310 225 310 199 293 c 0,71,72
 170 274 170 274 147 233 c 0,73,74
 131 205 131 205 131 178 c 0,75,76
 131 166 131 166 134 154 c 0,77,78
 144 115 144 115 178 105 c 0,79,80
 198 99 198 99 220 98 c 0,81,82
 235 98 235 98 251 101 c 0,83,84
 348 119 348 119 417 192 c 0,85,86
 452 230 452 230 461 265 c 0,87,88
 463 276 463 276 463 285 c 0,89,90
 463 307 463 307 449 320 c 0,91,92
 441 328 441 328 431 329 c 1,93,-1
 431 356 l 1,94,-1
 586 356 l 1,0,-1
EndSplineSet
Validated: 1
EndChar

StartChar: yen
Encoding: 165 165 126
Width: 683
GlyphClass: 1
Flags: W
LayerCount: 3
Fore
SplineSet
581 541 m 2,0,-1
 508 447 l 1,1,-1
 578 447 l 2,2,3
 600 447 600 447 605 472 c 1,4,-1
 627 472 l 1,5,-1
 627 342 l 1,6,-1
 605 342 l 1,7,8
 600 367 600 367 578 367 c 2,9,-1
 445 367 l 1,10,-1
 382 286 l 1,11,-1
 522 286 l 2,12,13
 544 286 544 286 549 311 c 1,14,-1
 571 311 l 1,15,-1
 571 181 l 1,16,-1
 549 181 l 1,17,18
 544 206 544 206 522 206 c 2,19,-1
 382 206 l 1,20,-1
 382 58 l 2,21,22
 382 45 382 45 390.5 36.5 c 128,-1,23
 399 28 399 28 410 27 c 1,24,-1
 410 0 l 1,25,-1
 223 0 l 1,26,-1
 223 27 l 1,27,28
 233 28 233 28 242 37 c 128,-1,29
 251 46 251 46 251 58 c 2,30,-1
 251 206 l 1,31,-1
 111 206 l 2,32,33
 88 204 88 204 85 181 c 1,34,-1
 62 181 l 1,35,-1
 62 311 l 1,36,-1
 85 311 l 1,37,38
 90 286 90 286 111 286 c 2,39,-1
 251 286 l 1,40,-1
 188 367 l 1,41,-1
 54 367 l 2,42,43
 31 365 31 365 28 342 c 1,44,-1
 5 342 l 1,45,-1
 5 472 l 1,46,-1
 28 472 l 1,47,48
 33 447 33 447 54 447 c 2,49,-1
 125 447 l 1,50,-1
 52 541 l 2,51,52
 41 555 41 555 27 562.5 c 128,-1,53
 13 570 13 570 0 572 c 1,54,-1
 0 599 l 1,55,-1
 206 599 l 1,56,-1
 206 572 l 1,57,58
 196 571 196 571 194 563 c 128,-1,59
 192 555 192 555 203 541 c 2,60,-1
 316 396 l 1,61,-1
 430 541 l 2,62,63
 441 555 441 555 439 563 c 128,-1,64
 437 571 437 571 427 572 c 1,65,-1
 427 599 l 1,66,-1
 633 599 l 1,67,-1
 633 572 l 1,68,69
 620 570 620 570 606 562.5 c 128,-1,70
 592 555 592 555 581 541 c 2,0,-1
EndSplineSet
Validated: 1
EndChar

StartChar: OE
Encoding: 338 338 127
Width: 1037
GlyphClass: 1
Flags: W
LayerCount: 3
Fore
SplineSet
339 603 m 5,0,1
 339 603 339 603 407 599 c 5,2,-1
 896 599 l 6,3,4
 908 599 908 599 916.5 607.5 c 132,-1,5
 925 616 925 616 927 627 c 5,6,-1
 954 627 l 5,7,-1
 954 473 l 5,8,-1
 927 473 l 5,9,10
 925 485 925 485 916.5 493 c 132,-1,11
 908 501 908 501 896 501 c 6,12,-1
 538 501 l 5,13,-1
 538 349 l 5,14,-1
 742 349 l 6,15,16
 755 349 755 349 763 357 c 132,-1,17
 771 365 771 365 773 377 c 5,18,-1
 800 377 l 5,19,-1
 800 222 l 5,20,-1
 773 222 l 5,21,22
 772 233 772 233 763.5 241.5 c 132,-1,23
 755 250 755 250 742 250 c 6,24,-1
 538 250 l 5,25,-1
 538 99 l 5,26,-1
 906 99 l 6,27,28
 919 99 919 99 927.5 107.5 c 132,-1,29
 936 116 936 116 937 127 c 5,30,-1
 964 127 l 5,31,-1
 964 -28 l 5,32,-1
 937 -28 l 5,33,34
 935 -16 935 -16 926 -8 c 132,-1,35
 917 0 917 0 906 0 c 6,36,-1
 407 0 l 5,37,38
 407 0 407 0 339 -4 c 5,39,40
 176 -4 176 -4 86 84 c 4,41,42
 0 167 0 167 0 299 c 260,43,44
 0 430 0 430 86 514 c 4,45,46
 176 602 176 602 339 603 c 5,0,1
407 501 m 5,47,48
 392 504 392 504 342 507 c 5,49,-1
 339 507 l 6,50,51
 240 507 240 507 182 442 c 4,52,53
 131 384 131 384 131 302 c 4,54,55
 131 300 131 300 131 299 c 260,56,57
 131 297 131 297 131 296 c 4,58,59
 131 215 131 215 182 157 c 4,60,61
 239 92 239 92 339 92 c 6,62,-1
 342 92 l 6,63,64
 377 92 377 92 407 98 c 5,65,-1
 407 501 l 5,47,48
EndSplineSet
Validated: 1
EndChar

StartChar: oe
Encoding: 339 339 128
Width: 879
GlyphClass: 1
Flags: W
LayerCount: 3
Fore
SplineSet
621 292 m 2,0,1
 642 292 642 292 647 315 c 1,2,-1
 670 315 l 1,3,-1
 670 186 l 1,4,-1
 647 186 l 1,5,6
 646 195 646 195 639 202 c 128,-1,7
 632 209 632 209 621 209 c 2,8,-1
 450 209 l 1,9,-1
 450 83 l 1,10,-1
 759 83 l 2,11,12
 770 83 770 83 777 90 c 128,-1,13
 784 97 784 97 784 106 c 1,14,-1
 807 106 l 1,15,-1
 807 -24 l 1,16,-1
 784 -24 l 1,17,18
 782 -13 782 -13 775 -6.5 c 128,-1,19
 768 0 768 0 759 0 c 2,20,-1
 341 0 l 1,21,22
 341 0 341 0 284 -4 c 1,23,24
 148 -4 148 -4 72 70 c 0,25,26
 0 139 0 139 0 250 c 256,27,28
 0 360 0 360 72 430 c 0,29,30
 149 504 149 504 284 505 c 1,31,32
 284 505 284 505 341 501 c 5,33,-1
 750 501 l 6,34,35
 771 501 771 501 776 525 c 1,36,-1
 799 525 l 1,37,-1
 799 396 l 1,38,-1
 776 396 l 1,39,40
 771 419 771 419 750 419 c 2,41,-1
 450 419 l 1,42,-1
 450 292 l 1,43,-1
 621 292 l 2,0,1
286 77 m 2,44,45
 301 77 301 77 314.5 78 c 128,-1,46
 328 79 328 79 341 82 c 1,47,-1
 341 419 l 1,48,49
 328 422 328 422 314.5 422.5 c 128,-1,50
 301 423 301 423 286 424 c 1,51,-1
 284 424 l 2,52,53
 240 424 240 424 207.5 409 c 128,-1,54
 175 394 175 394 153 369.5 c 128,-1,55
 131 345 131 345 120.5 314 c 128,-1,56
 110 283 110 283 110 250 c 0,57,58
 110 218 110 218 120.5 187 c 128,-1,59
 131 156 131 156 153 131.5 c 128,-1,60
 175 107 175 107 207.5 92 c 128,-1,61
 240 77 240 77 284 77 c 2,62,-1
 286 77 l 2,44,45
EndSplineSet
Validated: 1
EndChar

StartChar: dollar
Encoding: 36 36 129
Width: 674
GlyphClass: 1
Flags: W
LayerCount: 3
Fore
SplineSet
554 252 m 4,0,1
 575 220 575 220 575 179 c 4,2,3
 575 87 575 87 490 36 c 4,4,5
 424 -4 424 -4 320 -10 c 5,6,-1
 320 -31 l 6,7,8
 320 -42 320 -42 328 -50 c 4,9,10
 336 -57 336 -57 345 -58 c 5,11,-1
 345 -81 l 5,12,-1
 230 -81 l 5,13,-1
 230 -58 l 5,14,15
 239 -57 239 -57 247 -50 c 4,16,17
 255 -42 255 -42 255 -31 c 6,18,-1
 255 -10 l 5,19,20
 158 -6 158 -6 82 31 c 4,21,22
 67 38 67 38 56 42 c 4,23,24
 44 47 44 47 38 47 c 4,25,26
 29 47 29 47 22 37 c 5,27,-1
 0 51 l 5,28,-1
 78 183 l 5,29,-1
 101 170 l 5,30,31
 100 170 100 170 100 168 c 6,32,33
 97 155 97 155 101 146 c 4,34,35
 104 138 104 138 114 130 c 4,36,37
 150 100 150 100 238 91 c 4,38,39
 246 90 246 90 255 90 c 5,40,-1
 255 252 l 5,41,42
 240 255 240 255 231 256 c 4,43,44
 133 274 133 274 85 304 c 4,45,46
 19 344 19 344 19 421 c 4,47,48
 19 471 19 471 45 510.5 c 132,-1,49
 71 550 71 550 118 573 c 4,50,51
 178 602 178 602 255 608 c 5,52,-1
 255 631 l 6,53,54
 255 642 255 642 247 650 c 4,55,56
 240 655 240 655 230 657 c 5,57,-1
 230 680 l 5,58,-1
 345 680 l 5,59,-1
 345 657 l 5,60,61
 335 656 335 656 328 650 c 4,62,63
 320 642 320 642 320 631 c 6,64,-1
 320 609 l 5,65,66
 334 608 334 608 351 607 c 4,67,68
 418 601 418 601 468 580 c 4,69,70
 492 570 492 570 510 563 c 4,71,72
 519 559 519 559 525 557 c 4,73,74
 535 554 535 554 540 556 c 132,-1,75
 545 558 545 558 551 566 c 5,76,-1
 574 552 l 5,77,-1
 495 419 l 5,78,-1
 472 433 l 5,79,80
 475 441 475 441 475 448 c 0,81,82
 475 478 475 478 423 494 c 132,-1,83
 371 510 371 510 320 510 c 5,84,-1
 320 354 l 5,85,86
 334 352 334 352 340 350 c 4,87,88
 353 348 353 348 375 344 c 4,89,90
 398 340 398 340 414 335 c 4,91,92
 429 331 429 331 448 324 c 4,93,94
 467 318 467 318 483 310 c 4,95,96
 530 288 530 288 554 252 c 4,0,1
229 369 m 4,97,98
 241 366 241 366 255 364 c 5,99,-1
 255 506 l 5,100,101
 187 496 187 496 162 468 c 4,102,103
 150 454 150 454 150 436 c 4,104,105
 150 417 150 417 161 403 c 132,-1,106
 172 389 172 389 193 381 c 132,-1,107
 214 373 214 373 229 369 c 4,97,98
320 91 m 5,108,109
 444 102 444 102 444 168 c 0,110,111
 444 208 444 208 377 228 c 4,112,113
 356 234 356 234 332 239 c 4,114,115
 330 239 330 239 325.5 240 c 132,-1,116
 321 241 321 241 320 241 c 5,117,-1
 320 91 l 5,108,109
EndSplineSet
Validated: 1
EndChar

StartChar: equal
Encoding: 61 61 130
Width: 613
GlyphClass: 1
Flags: W
LayerCount: 3
Fore
SplineSet
434 446 m 2,0,1
 456 446 456 446 461 471 c 1,2,-1
 483 471 l 1,3,-1
 483 333 l 1,4,-1
 461 333 l 1,5,6
 456 358 456 358 434 358 c 2,7,-1
 49 358 l 2,8,9
 26 356 26 356 23 333 c 1,10,-1
 0 333 l 1,11,-1
 0 471 l 1,12,-1
 23 471 l 1,13,14
 28 446 28 446 49 446 c 2,15,-1
 434 446 l 2,0,1
434 242 m 2,16,17
 456 242 456 242 461 267 c 1,18,-1
 483 267 l 1,19,-1
 483 129 l 1,20,-1
 461 129 l 1,21,22
 456 154 456 154 434 154 c 2,23,-1
 49 154 l 2,24,25
 26 152 26 152 23 129 c 1,26,-1
 0 129 l 1,27,-1
 0 267 l 1,28,-1
 23 267 l 1,29,30
 28 242 28 242 49 242 c 2,31,-1
 434 242 l 2,16,17
EndSplineSet
Validated: 1
EndChar

StartChar: less
Encoding: 60 60 131
Width: 461
GlyphClass: 1
Flags: W
LayerCount: 3
Fore
SplineSet
367 57 m 5,0,1
 364 71 364 71 360 77 c 4,2,3
 357 82 357 82 347 88 c 6,4,-1
 48 228 l 6,5,6
 42 231 42 231 38 231 c 4,7,8
 33 230 33 230 30 228 c 4,9,10
 23 224 23 224 21 218 c 5,11,-1
 0 218 l 5,12,-1
 0 380 l 5,13,-1
 21 380 l 5,14,15
 23 373 23 373 30 369 c 4,16,17
 33 368 33 368 37 368 c 4,18,19
 42 368 42 368 48 370 c 6,20,-1
 348 511 l 6,21,22
 358 517 358 517 360 522 c 4,23,24
 363 529 363 529 367 542 c 5,25,-1
 389 542 l 5,26,-1
 389 389 l 5,27,-1
 367 389 l 5,28,29
 366 398 366 398 358 401 c 4,30,31
 355 402 355 402 352 402 c 4,32,33
 347 402 347 402 341 399 c 6,34,35
 341 399 341 399 341 399 c 4,36,37
 339 399 339 399 128 300 c 5,38,-1
 341 200 l 6,39,40
 347 197 347 197 352 197 c 4,41,42
 355 197 355 197 358 198 c 4,43,44
 366 201 366 201 367 210 c 5,45,-1
 389 210 l 5,46,-1
 389 57 l 5,47,-1
 367 57 l 5,0,1
EndSplineSet
Validated: 1
EndChar

StartChar: greater
Encoding: 62 62 132
Width: 461
GlyphClass: 1
Flags: W
LayerCount: 3
Fore
SplineSet
368 380 m 5,0,-1
 389 380 l 5,1,-1
 389 218 l 5,2,-1
 368 218 l 5,3,4
 366 225 366 225 359 229 c 4,5,6
 356 230 356 230 352 230 c 4,7,8
 347 230 347 230 341 228 c 6,9,-1
 42 88 l 6,10,11
 32 82 32 82 28 77 c 4,12,13
 25 70 25 70 22 57 c 5,14,-1
 0 57 l 5,15,-1
 0 210 l 5,16,-1
 22 210 l 5,17,18
 24 201 24 201 32 198 c 4,19,20
 35 197 35 197 37 197 c 4,21,22
 42 197 42 197 48 200 c 6,23,-1
 261 300 l 5,24,-1
 48 399 l 6,25,26
 42 402 42 402 37 402 c 4,27,28
 35 402 35 402 32 401 c 4,29,30
 24 398 24 398 22 389 c 5,31,-1
 0 389 l 5,32,-1
 0 542 l 5,33,-1
 22 542 l 5,34,35
 25 528 25 528 29 522 c 4,36,37
 32 517 32 517 42 511 c 4,38,39
 44 511 44 511 341 370 c 4,40,41
 347 367 347 367 351 367 c 6,42,-1
 352 367 l 5,43,-1
 353 367 l 6,44,45
 356 367 356 367 359 369 c 4,46,47
 366 373 366 373 368 380 c 5,0,-1
EndSplineSet
Validated: 1
EndChar

StartChar: onesuperior
Encoding: 185 185 133
Width: 374
GlyphClass: 1
Flags: W
LayerCount: 3
Fore
SplineSet
209 564 m 2,0,-1
 209 275 l 2,1,2
 209 258 209 258 225 256 c 1,3,-1
 225 240 l 1,4,-1
 113 240 l 1,5,-1
 113 256 l 1,6,7
 119 257 119 257 124.5 262 c 128,-1,8
 130 267 130 267 130 275 c 2,9,-1
 130 486 l 1,10,-1
 79 433 l 2,11,12
 69 422 69 422 78 408 c 1,13,-1
 66 395 l 1,14,-1
 0 460 l 1,15,-1
 11 472 l 1,16,17
 25 463 25 463 34 472 c 2,18,-1
 114 555 l 2,19,20
 124 565 124 565 124 572 c 0,21,22
 124 579 124 579 113 583 c 1,23,-1
 113 599 l 1,24,-1
 225 599 l 1,25,-1
 225 583 l 1,26,27
 220 583 220 583 214.5 578 c 128,-1,28
 209 573 209 573 209 564 c 2,0,-1
EndSplineSet
Validated: 1
EndChar

StartChar: twosuperior
Encoding: 178 178 134
Width: 400
GlyphClass: 1
Flags: W
LayerCount: 3
Fore
SplineSet
339 321 m 1,0,-1
 339 228 l 1,1,-1
 323 228 l 1,2,3
 320 245 320 245 305 245 c 2,4,-1
 35 245 l 2,5,6
 19 245 19 245 16 228 c 1,7,-1
 0 228 l 1,8,-1
 0 250 l 2,9,10
 0 327 0 327 65 375 c 0,11,12
 92 394 92 394 168 426 c 0,13,14
 240 456 240 456 240 498 c 0,15,16
 240 549 240 549 176 549 c 0,17,18
 138 549 138 549 112 534 c 0,19,20
 75 512 75 512 75 496 c 0,21,22
 75 491 75 491 78 487 c 1,23,-1
 66 477 l 1,24,-1
 3 544 l 1,25,-1
 14 555 l 1,26,27
 28 546 28 546 41 557 c 0,28,29
 100 610 100 610 186 610 c 0,30,31
 321 605 321 605 321 498 c 0,32,33
 321 416 321 416 209.5 371 c 128,-1,34
 98 326 98 326 91 304 c 1,35,-1
 305 304 l 2,36,37
 320 304 320 304 323 321 c 1,38,-1
 339 321 l 1,0,-1
EndSplineSet
Validated: 1
EndChar

StartChar: threesuperior
Encoding: 179 179 135
Width: 404
GlyphClass: 1
Flags: W
LayerCount: 3
Fore
SplineSet
269 436 m 1,0,1
 345 409 345 409 345 344 c 0,2,3
 345 299 345 299 303 268.5 c 128,-1,4
 261 238 261 238 175.5 238 c 128,-1,5
 90 238 90 238 41 266 c 0,6,7
 23 276 23 276 14 263 c 1,8,-1
 0 271 l 1,9,-1
 47 351 l 1,10,-1
 61 343 l 1,11,12
 56 327 56 327 70 318 c 0,13,14
 84 308 84 308 103 304 c 0,15,16
 132 297 132 297 161 297 c 0,17,18
 165 297 165 297 168 297 c 0,19,20
 266 297 266 297 266 352 c 0,21,22
 266 373 266 373 251 385 c 0,23,24
 225 408 225 408 173 408 c 0,25,26
 157 408 157 408 154 391 c 1,27,-1
 138 391 l 1,28,-1
 138 478 l 1,29,-1
 154 478 l 1,30,31
 157 461 157 461 173 461 c 0,32,33
 220 461 220 461 239 480 c 0,34,35
 251 490 251 490 251 505 c 256,36,37
 250 520 250 520 242 528 c 0,38,39
 219 550 219 550 165 550 c 128,-1,40
 111 550 111 550 77 530 c 0,41,42
 65 523 65 523 65 515 c 128,-1,43
 65 507 65 507 67 504 c 1,44,-1
 53 496 l 1,45,-1
 6 576 l 1,46,-1
 20 584 l 1,47,48
 32 572 32 572 47 581 c 0,49,50
 100 610 100 610 176.5 610 c 128,-1,51
 253 610 253 610 291 582 c 128,-1,52
 329 554 329 554 329 515 c 0,53,54
 329 461 329 461 269 436 c 1,0,1
EndSplineSet
Validated: 1
EndChar

StartChar: onequarter
Encoding: 188 188 136
Width: 1074
GlyphClass: 1
Flags: W
LayerCount: 3
Fore
SplineSet
209 564 m 2,0,-1
 209 275 l 2,1,2
 209 258 209 258 225 256 c 1,3,-1
 225 240 l 1,4,-1
 113 240 l 1,5,-1
 113 256 l 1,6,7
 119 257 119 257 124.5 262 c 128,-1,8
 130 267 130 267 130 275 c 2,9,-1
 130 486 l 1,10,-1
 79 433 l 2,11,12
 69 422 69 422 78 408 c 1,13,-1
 66 395 l 1,14,-1
 0 460 l 1,15,-1
 11 472 l 1,16,17
 25 463 25 463 34 472 c 2,18,-1
 114 555 l 2,19,20
 124 565 124 565 124 572 c 0,21,22
 124 579 124 579 113 583 c 1,23,-1
 113 599 l 1,24,-1
 225 599 l 1,25,-1
 225 583 l 1,26,27
 220 583 220 583 214.5 578 c 128,-1,28
 209 573 209 573 209 564 c 2,0,-1
732 599 m 1,29,-1
 732 572 l 1,30,31
 701 568 701 568 685 541 c 2,32,-1
 395 58 l 2,33,34
 388 46 388 46 391 37.5 c 128,-1,35
 394 29 394 29 404 27 c 1,36,-1
 404 0 l 1,37,-1
 250 0 l 1,38,-1
 250 27 l 1,39,40
 281 31 281 31 296 58 c 2,41,-1
 587 541 l 2,42,43
 594 553 594 553 590.5 561.5 c 128,-1,44
 587 570 587 570 577 572 c 1,45,-1
 577 599 l 1,46,-1
 732 599 l 1,29,-1
1024 137 m 1,47,-1
 1024 44 l 1,48,-1
 1008 44 l 1,49,50
 1005 61 1005 61 989 61 c 2,51,-1
 976 61 l 1,52,-1
 976 35 l 2,53,54
 976 28 976 28 981 23 c 128,-1,55
 986 18 986 18 993 16 c 1,56,-1
 993 0 l 1,57,-1
 881 0 l 1,58,-1
 881 16 l 1,59,60
 898 19 898 19 898 35 c 2,61,-1
 898 61 l 1,62,-1
 716 61 l 2,63,64
 700 61 700 61 697 44 c 1,65,-1
 681 44 l 1,66,-1
 681 120 l 1,67,-1
 871 318 l 2,68,69
 878 324 878 324 878 331 c 0,70,71
 878 342 878 342 867 343 c 1,72,-1
 867 359 l 1,73,-1
 993 359 l 1,74,-1
 993 343 l 1,75,76
 987 343 987 343 981.5 337.5 c 128,-1,77
 976 332 976 332 976 324 c 2,78,-1
 976 120 l 1,79,-1
 989 120 l 2,80,81
 997 120 997 120 1002 125 c 128,-1,82
 1007 130 1007 130 1008 137 c 1,83,-1
 1024 137 l 1,47,-1
900 120 m 1,84,-1
 900 262 l 1,85,-1
 763 120 l 1,86,-1
 900 120 l 1,84,-1
EndSplineSet
Validated: 1
EndChar

StartChar: onehalf
Encoding: 189 189 137
Width: 1072
GlyphClass: 1
Flags: W
LayerCount: 3
Fore
SplineSet
209 564 m 2,0,-1
 209 275 l 2,1,2
 209 258 209 258 225 256 c 1,3,-1
 225 240 l 1,4,-1
 113 240 l 1,5,-1
 113 256 l 1,6,7
 119 257 119 257 124.5 262 c 128,-1,8
 130 267 130 267 130 275 c 2,9,-1
 130 486 l 1,10,-1
 79 433 l 2,11,12
 69 422 69 422 78 408 c 1,13,-1
 66 395 l 1,14,-1
 0 460 l 1,15,-1
 11 472 l 1,16,17
 25 463 25 463 34 472 c 2,18,-1
 114 555 l 2,19,20
 124 565 124 565 124 572 c 0,21,22
 124 579 124 579 113 584 c 1,23,-1
 113 599 l 1,24,-1
 225 599 l 1,25,-1
 225 583 l 1,26,27
 220 583 220 583 214.5 578 c 128,-1,28
 209 573 209 573 209 564 c 2,0,-1
732 599 m 1,29,-1
 732 572 l 1,30,31
 701 568 701 568 685 541 c 2,32,-1
 395 58 l 2,33,34
 388 46 388 46 391 37.5 c 128,-1,35
 394 29 394 29 404 27 c 1,36,-1
 404 0 l 1,37,-1
 250 0 l 1,38,-1
 250 27 l 1,39,40
 281 31 281 31 296 58 c 1,41,-1
 587 541 l 2,42,43
 594 553 594 553 590.5 561.5 c 128,-1,44
 587 570 587 570 577 572 c 1,45,-1
 577 599 l 1,46,-1
 732 599 l 1,29,-1
1021 76 m 1,47,-1
 1021 -17 l 1,48,-1
 1005 -17 l 1,49,50
 1004 0 1004 0 987 0 c 2,51,-1
 718 0 l 2,52,53
 702 0 702 0 699 -17 c 1,54,-1
 683 -17 l 1,55,-1
 683 5 l 2,56,57
 683 84 683 84 748 130 c 0,58,59
 771 149 771 149 849 181 c 0,60,61
 923 213 923 213 923 257 c 0,62,63
 923 303 923 303 859 303 c 0,64,65
 810 303 810 303 772 274 c 0,66,67
 757 262 757 262 757 252 c 0,68,69
 757 247 757 247 761 242 c 1,70,-1
 749 231 l 1,71,-1
 686 299 l 1,72,-1
 697 310 l 1,73,74
 710 300 710 300 724 312 c 0,75,76
 782 364 782 364 868 364 c 0,77,78
 1003 361 1003 361 1003 253 c 0,79,80
 1003 171 1003 171 892.5 126 c 128,-1,81
 782 81 782 81 773 59 c 1,82,-1
 987 59 l 2,83,84
 1003 59 1003 59 1005 76 c 1,85,-1
 1021 76 l 1,47,-1
EndSplineSet
Validated: 1
EndChar

StartChar: threequarters
Encoding: 190 190 138
Width: 1082
GlyphClass: 1
Flags: W
LayerCount: 3
Fore
SplineSet
267 432 m 1,0,1
 343 405 343 405 343 341 c 0,2,3
 343 296 343 296 301.5 265.5 c 128,-1,4
 260 235 260 235 175 235 c 128,-1,5
 90 235 90 235 41 263 c 0,6,7
 23 273 23 273 14 260 c 1,8,-1
 0 268 l 1,9,-1
 47 348 l 1,10,-1
 61 339 l 1,11,12
 59 334 59 334 59 330 c 0,13,14
 59 310 59 310 102 300 c 0,15,16
 133 292 133 292 175 292 c 0,17,18
 178 292 178 292 180 292 c 0,19,20
 225 292 225 292 251 316 c 0,21,22
 265 328 265 328 265 348 c 256,23,24
 265 384 265 384 218 398 c 0,25,26
 198 404 198 404 172 404 c 0,27,28
 156 404 156 404 153 387 c 1,29,-1
 137 387 l 1,30,-1
 137 474 l 1,31,-1
 153 474 l 1,32,33
 156 457 156 457 172 457 c 0,34,35
 216 457 216 457 238 475 c 0,36,37
 249 486 249 486 249 502 c 0,38,39
 248 516 248 516 240 524 c 0,40,41
 216 546 216 546 165 546 c 128,-1,42
 114 546 114 546 76 526 c 0,43,44
 64 518 64 518 64 511 c 128,-1,45
 64 504 64 504 67 500 c 1,46,-1
 53 492 l 1,47,-1
 6 571 l 1,48,-1
 20 579 l 1,49,50
 31 568 31 568 47 576 c 0,51,52
 100 605 100 605 175.5 605 c 128,-1,53
 251 605 251 605 289.5 577.5 c 128,-1,54
 328 550 328 550 328 511 c 0,55,56
 328 458 328 458 267 432 c 1,0,1
740 599 m 1,57,-1
 740 572 l 1,58,59
 709 568 709 568 693 541 c 2,60,-1
 403 58 l 2,61,62
 396 46 396 46 399 37.5 c 128,-1,63
 402 29 402 29 412 27 c 1,64,-1
 412 0 l 1,65,-1
 258 0 l 1,66,-1
 258 27 l 1,67,68
 289 31 289 31 304 58 c 1,69,-1
 595 541 l 2,70,71
 602 553 602 553 598.5 561.5 c 128,-1,72
 595 570 595 570 585 572 c 1,73,-1
 585 599 l 1,74,-1
 740 599 l 1,57,-1
997 120 m 2,75,76
 1014 120 1014 120 1016 137 c 1,77,-1
 1032 137 l 1,78,-1
 1032 44 l 1,79,-1
 1016 44 l 1,80,81
 1013 61 1013 61 997 61 c 2,82,-1
 985 61 l 1,83,-1
 985 35 l 2,84,85
 985 20 985 20 1001 16 c 1,86,-1
 1001 0 l 1,87,-1
 889 0 l 1,88,-1
 889 16 l 1,89,90
 906 19 906 19 906 35 c 2,91,-1
 906 61 l 1,92,-1
 724 61 l 2,93,94
 708 61 708 61 705 44 c 1,95,-1
 689 44 l 1,96,-1
 689 120 l 1,97,-1
 879 318 l 2,98,99
 886 324 886 324 886 331 c 0,100,101
 886 342 886 342 875 343 c 1,102,-1
 875 359 l 1,103,-1
 1001 359 l 1,104,-1
 1001 343 l 1,105,106
 996 343 996 343 990.5 337.5 c 128,-1,107
 985 332 985 332 985 324 c 2,108,-1
 985 120 l 1,109,-1
 997 120 l 2,75,76
908 120 m 1,110,-1
 908 262 l 1,111,-1
 771 120 l 1,112,-1
 908 120 l 1,110,-1
EndSplineSet
Validated: 1
EndChar

StartChar: numbersign
Encoding: 35 35 139
Width: 747
GlyphClass: 1
Flags: W
LayerCount: 3
Fore
SplineSet
618 341 m 1,0,1
 619 352 619 352 613 360.5 c 128,-1,2
 607 369 607 369 593 369 c 2,3,-1
 519 369 l 1,4,-1
 492 231 l 1,5,-1
 566 231 l 2,6,7
 592 231 592 231 602 259 c 1,8,-1
 629 259 l 1,9,-1
 599 104 l 1,10,-1
 572 104 l 1,11,12
 573 115 573 115 567 123.5 c 128,-1,13
 561 132 561 132 547 132 c 2,14,-1
 473 132 l 1,15,-1
 459 58 l 2,16,17
 458 54 458 54 458 50 c 0,18,19
 458 31 458 31 481 27 c 1,20,-1
 481 0 l 1,21,-1
 326 0 l 1,22,-1
 326 27 l 1,23,24
 356 32 356 32 360 58 c 2,25,-1
 375 132 l 1,26,-1
 235 132 l 1,27,-1
 221 58 l 2,28,29
 220 54 220 54 220 50 c 0,30,31
 220 31 220 31 243 27 c 1,32,-1
 243 0 l 1,33,-1
 88 0 l 1,34,-1
 88 27 l 1,35,36
 118 32 118 32 122 58 c 2,37,-1
 137 132 l 1,38,-1
 64 132 l 2,39,40
 37 132 37 132 27 104 c 1,41,-1
 0 104 l 1,42,-1
 30 259 l 1,43,-1
 57 259 l 1,44,45
 56 248 56 248 62.5 239.5 c 128,-1,46
 69 231 69 231 83 231 c 2,47,-1
 156 231 l 1,48,-1
 183 369 l 1,49,-1
 110 369 l 2,50,51
 83 369 83 369 73 341 c 1,52,-1
 46 341 l 1,53,-1
 76 496 l 1,54,-1
 103 496 l 1,55,56
 102 485 102 485 108.5 476.5 c 128,-1,57
 115 468 115 468 129 468 c 2,58,-1
 202 468 l 1,59,-1
 216 541 l 2,60,61
 217 545 217 545 217 549 c 0,62,63
 217 568 217 568 194 572 c 1,64,-1
 194 599 l 1,65,-1
 349 599 l 1,66,-1
 349 572 l 1,67,68
 319 567 319 567 315 541 c 2,69,-1
 301 468 l 1,70,-1
 440 468 l 1,71,-1
 454 541 l 2,72,73
 455 545 455 545 455 549 c 0,74,75
 455 568 455 568 432 572 c 1,76,-1
 432 599 l 1,77,-1
 587 599 l 1,78,-1
 587 572 l 1,79,80
 557 567 557 567 553 541 c 2,81,-1
 539 468 l 1,82,-1
 612 468 l 2,83,84
 638 468 638 468 648 496 c 1,85,-1
 675 496 l 1,86,-1
 645 341 l 1,87,-1
 618 341 l 1,0,1
421 369 m 1,88,-1
 281 369 l 1,89,-1
 255 231 l 1,90,-1
 394 231 l 1,91,-1
 421 369 l 1,88,-1
EndSplineSet
Validated: 1
EndChar

StartChar: divide
Encoding: 247 247 140
Width: 613
GlyphClass: 1
Flags: W
LayerCount: 3
Fore
SplineSet
313 485 m 256,0,1
 313 456 313 456 292 435 c 128,-1,2
 271 414 271 414 241.5 414 c 128,-1,3
 212 414 212 414 191.5 435 c 128,-1,4
 171 456 171 456 171 485 c 256,5,6
 171 514 171 514 191.5 535 c 128,-1,7
 212 556 212 556 241.5 556 c 128,-1,8
 271 556 271 556 292 535 c 128,-1,9
 313 514 313 514 313 485 c 256,0,1
313 114 m 256,10,11
 313 85 313 85 292 64 c 128,-1,12
 271 43 271 43 241.5 43 c 128,-1,13
 212 43 212 43 191.5 64 c 128,-1,14
 171 85 171 85 171 114 c 256,15,16
 171 143 171 143 191.5 164 c 128,-1,17
 212 185 212 185 241.5 185 c 128,-1,18
 271 185 271 185 292 164 c 128,-1,19
 313 143 313 143 313 114 c 256,10,11
434 344 m 2,20,21
 456 344 456 344 461 369 c 1,22,-1
 483 369 l 1,23,-1
 483 231 l 1,24,-1
 461 231 l 1,25,26
 456 256 456 256 434 256 c 2,27,-1
 49 256 l 1,28,29
 26 254 26 254 23 231 c 1,30,-1
 0 231 l 1,31,-1
 0 369 l 1,32,-1
 23 369 l 1,33,34
 28 344 28 344 49 344 c 2,35,-1
 434 344 l 2,20,21
EndSplineSet
Validated: 1
EndChar

StartChar: multiply
Encoding: 215 215 141
Width: 570
GlyphClass: 1
Flags: W
LayerCount: 3
Fore
SplineSet
423 194 m 1,0,-1
 440 178 l 1,1,-1
 342 80 l 1,2,-1
 326 96 l 1,3,4
 332 107 332 107 332 115 c 0,5,6
 332 124 332 124 325 132 c 2,7,-1
 220 238 l 1,8,-1
 115 132 l 2,9,10
 108 125 108 125 108 115 c 0,11,12
 108 106 108 106 114 96 c 1,13,-1
 98 80 l 1,14,-1
 0 178 l 1,15,-1
 17 194 l 1,16,17
 27 187 27 187 35.5 187 c 128,-1,18
 44 187 44 187 53 194 c 2,19,-1
 158 300 l 1,20,-1
 53 405 l 2,21,22
 45 412 45 412 35 412 c 0,23,24
 26 412 26 412 16 406 c 1,25,-1
 0 421 l 1,26,-1
 98 519 l 1,27,-1
 114 504 l 1,28,29
 107 494 107 494 107 485 c 0,30,31
 107 475 107 475 115 467 c 2,32,-1
 220 362 l 1,33,-1
 325 467 l 2,34,35
 333 475 333 475 333 485 c 0,36,37
 333 494 333 494 326 504 c 1,38,-1
 342 519 l 1,39,-1
 440 421 l 1,40,-1
 424 406 l 1,41,42
 414 412 414 412 405 412 c 0,43,44
 395 412 395 412 387 405 c 2,45,-1
 282 300 l 1,46,-1
 387 194 l 2,47,48
 395 187 395 187 404 187 c 128,-1,49
 413 187 413 187 423 194 c 1,0,-1
EndSplineSet
Validated: 1
EndChar

StartChar: bracketleft
Encoding: 91 91 142
Width: 250
GlyphClass: 1
Flags: W
LayerCount: 3
Fore
SplineSet
96 11 m 1,0,-1
 150 11 l 2,1,2
 161 11 161 11 168 18.5 c 128,-1,3
 175 26 175 26 177 37 c 1,4,-1
 200 37 l 1,5,-1
 200 -73 l 1,6,-1
 177 -73 l 1,7,8
 175 -62 175 -62 168 -54.5 c 128,-1,9
 161 -47 161 -47 150 -47 c 2,10,-1
 0 -47 l 1,11,-1
 0 647 l 1,12,-1
 150 647 l 2,13,14
 161 647 161 647 168 654.5 c 128,-1,15
 175 662 175 662 177 673 c 1,16,-1
 200 673 l 1,17,-1
 200 563 l 1,18,-1
 177 563 l 1,19,20
 175 574 175 574 168 581.5 c 128,-1,21
 161 589 161 589 150 589 c 2,22,-1
 96 589 l 1,23,-1
 96 11 l 1,0,-1
EndSplineSet
Validated: 1
EndChar

StartChar: bracketright
Encoding: 93 93 143
Width: 288
GlyphClass: 1
Flags: W
LayerCount: 3
Fore
SplineSet
104 589 m 1,0,-1
 50 589 l 2,1,2
 39 589 39 589 32 581.5 c 128,-1,3
 25 574 25 574 23 563 c 1,4,-1
 0 563 l 1,5,-1
 0 673 l 1,6,-1
 23 673 l 1,7,8
 25 662 25 662 32 654.5 c 128,-1,9
 39 647 39 647 50 647 c 2,10,-1
 200 647 l 1,11,-1
 200 -47 l 1,12,-1
 50 -47 l 2,13,14
 39 -47 39 -47 32 -54.5 c 128,-1,15
 25 -62 25 -62 23 -73 c 1,16,-1
 0 -73 l 1,17,-1
 0 37 l 1,18,-1
 23 37 l 1,19,20
 25 26 25 26 32 18.5 c 128,-1,21
 39 11 39 11 50 11 c 2,22,-1
 104 11 l 1,23,-1
 104 589 l 1,0,-1
EndSplineSet
Validated: 1
EndChar

StartChar: parenleft
Encoding: 40 40 144
Width: 284
GlyphClass: 1
Flags: W
LayerCount: 3
Fore
SplineSet
0 300 m 256,0,1
 0 518 0 518 184 671 c 1,2,-1
 234 631 l 1,3,4
 117 511 117 511 117 300 c 256,5,6
 117 89 117 89 234 -32 c 1,7,-1
 184 -72 l 1,8,9
 0 82 0 82 0 300 c 256,0,1
EndSplineSet
Validated: 1
EndChar

StartChar: parenright
Encoding: 41 41 145
Width: 322
GlyphClass: 1
Flags: W
LayerCount: 3
Fore
SplineSet
234 300 m 256,0,1
 234 82 234 82 50 -72 c 1,2,-1
 0 -32 l 1,3,4
 117 89 117 89 117 300 c 256,5,6
 117 511 117 511 0 631 c 1,7,-1
 50 671 l 1,8,9
 234 518 234 518 234 300 c 256,0,1
EndSplineSet
Validated: 1
EndChar

StartChar: braceright
Encoding: 125 125 146
Width: 394
GlyphClass: 1
Flags: W
LayerCount: 3
Fore
SplineSet
289 247 m 1,0,1
 289 266 289 266 268 266 c 2,2,-1
 231 266 l 1,3,-1
 231 24 l 2,4,5
 231 -5 231 -5 210 -28 c 0,6,7
 187 -49 187 -49 158 -49 c 2,8,-1
 37 -49 l 2,9,10
 28 -49 28 -49 22.5 -55 c 128,-1,11
 17 -61 17 -61 17 -68 c 1,12,-1
 0 -68 l 1,13,-1
 0 37 l 1,14,-1
 17 37 l 1,15,16
 17 30 17 30 22.5 24 c 128,-1,17
 28 18 28 18 37 18 c 2,18,-1
 94 18 l 2,19,20
 130 18 130 18 132 56 c 0,21,22
 132 68 132 68 132 81 c 2,23,-1
 132 246 l 2,24,25
 132 272 132 272 168 300 c 1,26,27
 132 327 132 327 132 353 c 2,28,-1
 132 518 l 2,29,30
 132 552 132 552 128 561 c 0,31,32
 120 581 120 581 94 581 c 2,33,-1
 37 581 l 2,34,35
 28 581 28 581 22.5 575 c 128,-1,36
 17 569 17 569 17 562 c 1,37,-1
 0 562 l 1,38,-1
 0 667 l 1,39,-1
 17 667 l 1,40,41
 17 660 17 660 22.5 654 c 128,-1,42
 28 648 28 648 37 648 c 2,43,-1
 158 648 l 2,44,45
 188 648 188 648 209.5 627 c 128,-1,46
 231 606 231 606 231 575 c 2,47,-1
 231 333 l 1,48,-1
 268 333 l 2,49,50
 277 333 277 333 283 339 c 128,-1,51
 289 345 289 345 289 352 c 1,52,-1
 306 352 l 1,53,-1
 306 247 l 1,54,-1
 289 247 l 1,0,1
EndSplineSet
Validated: 1
EndChar

StartChar: braceleft
Encoding: 123 123 147
Width: 356
GlyphClass: 1
Flags: W
LayerCount: 3
Fore
SplineSet
38 266 m 2,0,1
 17 266 17 266 17 247 c 1,2,-1
 0 247 l 1,3,-1
 0 352 l 1,4,-1
 17 352 l 1,5,6
 17 345 17 345 23 339 c 128,-1,7
 29 333 29 333 38 333 c 2,8,-1
 75 333 l 1,9,-1
 75 575 l 2,10,11
 75 606 75 606 96.5 627 c 128,-1,12
 118 648 118 648 148 648 c 2,13,-1
 269 648 l 2,14,15
 278 648 278 648 283.5 654 c 128,-1,16
 289 660 289 660 289 667 c 1,17,-1
 306 667 l 1,18,-1
 306 562 l 1,19,-1
 289 562 l 1,20,21
 289 569 289 569 283.5 575 c 128,-1,22
 278 581 278 581 269 581 c 2,23,-1
 212 581 l 2,24,25
 176 580 176 580 174 542 c 0,26,27
 174 530 174 530 174 518 c 2,28,-1
 174 353 l 2,29,30
 174 327 174 327 138 300 c 1,31,32
 174 272 174 272 174 246 c 2,33,-1
 174 81 l 2,34,35
 174 47 174 47 178 38 c 0,36,37
 186 18 186 18 212 18 c 2,38,-1
 269 18 l 2,39,40
 278 18 278 18 283.5 24 c 128,-1,41
 289 30 289 30 289 37 c 1,42,-1
 306 37 l 1,43,-1
 306 -68 l 1,44,-1
 289 -68 l 1,45,46
 289 -61 289 -61 283.5 -55 c 128,-1,47
 278 -49 278 -49 269 -49 c 2,48,-1
 148 -49 l 2,49,50
 119 -49 119 -49 96 -28 c 0,51,52
 75 -5 75 -5 75 24 c 2,53,-1
 75 266 l 1,54,-1
 38 266 l 2,0,1
EndSplineSet
Validated: 1
EndChar

StartChar: slash
Encoding: 47 47 148
Width: 678
GlyphClass: 1
Flags: W
LayerCount: 3
Fore
SplineSet
0 0 m 1,0,-1
 0 27 l 1,1,2
 31 31 31 31 52 58 c 2,3,-1
 424 541 l 2,4,5
 433 552 433 552 433 559 c 0,6,7
 433 569 433 569 417 572 c 1,8,-1
 417 599 l 1,9,-1
 606 599 l 1,10,-1
 606 572 l 1,11,12
 575 568 575 568 555 541 c 2,13,-1
 183 58 l 2,14,15
 175 47 175 47 175 40 c 0,16,17
 175 30 175 30 191 27 c 1,18,-1
 191 0 l 1,19,-1
 0 0 l 1,0,-1
EndSplineSet
Validated: 1
EndChar

StartChar: backslash
Encoding: 92 92 149
Width: 678
GlyphClass: 1
Flags: W
LayerCount: 3
Fore
SplineSet
415 0 m 1,0,-1
 415 27 l 1,1,2
 431 30 431 30 431 40 c 0,3,4
 431 47 431 47 423 58 c 2,5,-1
 51 541 l 2,6,7
 31 568 31 568 0 572 c 1,8,-1
 0 599 l 1,9,-1
 189 599 l 1,10,-1
 189 572 l 1,11,12
 173 569 173 569 173 559 c 0,13,14
 173 552 173 552 182 541 c 2,15,-1
 554 58 l 2,16,17
 575 31 575 31 606 27 c 1,18,-1
 606 0 l 1,19,-1
 415 0 l 1,0,-1
EndSplineSet
Validated: 1
EndChar

StartChar: plus
Encoding: 43 43 150
Width: 613
GlyphClass: 1
Flags: W
LayerCount: 3
Fore
SplineSet
483 368 m 1,0,-1
 483 230 l 1,1,-1
 461 230 l 1,2,3
 456 255 456 255 434 255 c 2,4,-1
 285 255 l 1,5,-1
 285 107 l 2,6,7
 287 84 287 84 310 81 c 1,8,-1
 310 58 l 1,9,-1
 172 58 l 1,10,-1
 172 81 l 1,11,12
 197 86 197 86 197 107 c 2,13,-1
 197 255 l 1,14,-1
 49 255 l 2,15,16
 26 253 26 253 23 230 c 1,17,-1
 0 230 l 1,18,-1
 0 368 l 1,19,-1
 23 368 l 1,20,21
 28 343 28 343 49 343 c 2,22,-1
 197 343 l 1,23,-1
 197 492 l 2,24,25
 197 514 197 514 172 519 c 1,26,-1
 172 541 l 1,27,-1
 310 541 l 1,28,-1
 310 519 l 1,29,30
 285 514 285 514 285 492 c 2,31,-1
 285 343 l 1,32,-1
 434 343 l 2,33,34
 456 343 456 343 461 368 c 1,35,-1
 483 368 l 1,0,-1
EndSplineSet
Validated: 1
EndChar

StartChar: plusminus
Encoding: 177 177 151
Width: 613
GlyphClass: 1
Flags: W
LayerCount: 3
Fore
SplineSet
434 50 m 2,0,1
 456 50 456 50 461 75 c 1,2,-1
 483 75 l 1,3,-1
 483 -63 l 1,4,-1
 461 -63 l 1,5,6
 456 -38 456 -38 434 -38 c 2,7,-1
 49 -38 l 2,8,9
 26 -40 26 -40 23 -63 c 1,10,-1
 0 -63 l 1,11,-1
 0 75 l 1,12,-1
 23 75 l 1,13,14
 28 50 28 50 49 50 c 2,15,-1
 434 50 l 2,0,1
483 389 m 1,16,-1
 483 251 l 1,17,-1
 461 251 l 1,18,19
 456 276 456 276 434 276 c 2,20,-1
 285 276 l 1,21,-1
 285 157 l 2,22,23
 287 134 287 134 310 131 c 1,24,-1
 310 108 l 1,25,-1
 172 108 l 1,26,-1
 172 131 l 1,27,28
 197 136 197 136 197 157 c 2,29,-1
 197 276 l 1,30,-1
 49 276 l 2,31,32
 26 274 26 274 23 251 c 1,33,-1
 0 251 l 1,34,-1
 0 389 l 1,35,-1
 23 389 l 1,36,37
 28 364 28 364 49 364 c 2,38,-1
 197 364 l 1,39,-1
 197 512 l 2,40,41
 197 534 197 534 172 539 c 1,42,-1
 172 561 l 1,43,-1
 310 561 l 1,44,-1
 310 539 l 1,45,46
 285 534 285 534 285 512 c 2,47,-1
 285 364 l 1,48,-1
 434 364 l 2,49,50
 456 364 456 364 461 389 c 1,51,-1
 483 389 l 1,16,-1
EndSplineSet
Validated: 1
EndChar

StartChar: perthousand
Encoding: 8240 8240 152
Width: 1152
GlyphClass: 1
Flags: W
LayerCount: 3
Fore
SplineSet
1054 266 m 0,0,1
 1102 224 1102 224 1102 148 c 0,2,3
 1102 76 1102 76 1054 33 c 0,4,5
 1011 -5 1011 -5 948 -5 c 256,6,7
 885 -5 885 -5 842 33 c 0,8,9
 794 78 794 78 794 150 c 0,10,11
 794 224 794 224 842 266 c 0,12,13
 884 305 884 305 948 305 c 256,14,15
 1012 305 1012 305 1054 266 c 0,0,1
1005 83 m 0,16,17
 1027 110 1027 110 1027 149 c 0,18,19
 1027 190 1027 190 1005 217 c 0,20,21
 984 243 984 243 948 243 c 0,22,23
 913 243 913 243 891 217 c 0,24,25
 870 191 870 191 870 150 c 0,26,27
 870 108 870 108 891 83 c 0,28,29
 913 56 913 56 948 56 c 0,30,31
 982 56 982 56 1005 83 c 0,16,17
688 266 m 0,32,33
 736 224 736 224 736 148 c 0,34,35
 736 76 736 76 688 33 c 0,36,37
 645 -5 645 -5 582 -5 c 256,38,39
 519 -5 519 -5 476 33 c 0,40,41
 428 78 428 78 428 150 c 0,42,43
 428 224 428 224 476 266 c 0,44,45
 518 305 518 305 581 305 c 0,46,47
 646 305 646 305 688 266 c 0,32,33
638 83 m 0,48,49
 660 108 660 108 660 149 c 0,50,51
 660 191 660 191 639 217 c 256,52,53
 618 243 618 243 582 243 c 0,54,55
 547 243 547 243 525 217 c 0,56,57
 503 190 503 190 503 150 c 256,58,59
 503 110 503 110 525 83 c 256,60,61
 547 56 547 56 582 56 c 256,62,63
 617 56 617 56 638 83 c 0,48,49
260 566 m 0,64,65
 307 523 307 523 307 447 c 0,66,67
 307 376 307 376 260 333 c 0,68,69
 218 294 218 294 154 294 c 256,70,71
 90 294 90 294 48 333 c 0,72,73
 0 376 0 376 0 450 c 256,74,75
 0 524 0 524 48 566 c 0,76,77
 90 603 90 603 153 605 c 0,78,79
 218 605 218 605 260 566 c 0,64,65
210 382 m 0,80,81
 232 407 232 407 232 448 c 0,82,83
 232 490 232 490 211 517 c 0,84,85
 191 541 191 541 154 543 c 0,86,87
 120 543 120 543 97 517 c 0,88,89
 75 490 75 490 75 449 c 0,90,91
 75 409 75 409 97 382 c 0,92,93
 120 356 120 356 154 356 c 0,94,95
 189 356 189 356 210 382 c 0,80,81
659 599 m 1,96,-1
 659 572 l 1,97,98
 627 568 627 568 606 541 c 2,99,-1
 221 58 l 2,100,101
 211 45 211 45 212.5 37 c 128,-1,102
 214 29 214 29 224 27 c 1,103,-1
 224 0 l 1,104,-1
 70 0 l 1,105,-1
 70 27 l 1,106,107
 102 31 102 31 123 58 c 2,108,-1
 508 541 l 2,109,110
 518 554 518 554 516.5 562 c 128,-1,111
 515 570 515 570 505 572 c 1,112,-1
 505 599 l 1,113,-1
 659 599 l 1,96,-1
EndSplineSet
Validated: 1
EndChar

StartChar: section
Encoding: 167 167 153
Width: 547
GlyphClass: 1
Flags: W
LayerCount: 3
Fore
SplineSet
422 191 m 5,0,1
 475 157 475 157 475 94 c 4,2,3
 475 51 475 51 452.5 17 c 132,-1,4
 430 -17 430 -17 391 -36 c 4,5,6
 327 -68 327 -68 239 -68 c 0,7,8
 216 -68 216 -68 192 -66 c 4,9,10
 135 -61 135 -61 101 -47 c 4,11,12
 68 -33 68 -33 58 -29 c 132,-1,13
 48 -25 48 -25 38.5 -21.5 c 132,-1,14
 29 -18 29 -18 20 -30 c 5,15,-1
 1 -18 l 5,16,-1
 68 96 l 5,17,-1
 88 84 l 5,18,19
 85 77 85 77 85 71 c 0,20,21
 85 44 85 44 133 30 c 4,22,23
 176 17 176 17 225 17 c 0,24,25
 242 17 242 17 260 19 c 4,26,27
 328 25 328 25 353 53 c 4,28,29
 363 65 363 65 363 81 c 4,30,31
 363 114 363 114 326 128 c 4,32,33
 300 138 300 138 280 141 c 4,34,35
 280 141 280 141 279 141 c 4,36,37
 278 142 278 142 278 142 c 4,38,39
 276 142 276 142 234 148 c 4,40,41
 210 152 210 152 200 154 c 4,42,43
 136 165 136 165 90 183 c 4,44,45
 80 187 80 187 70 192 c 4,46,47
 38 207 38 207 19 236 c 132,-1,48
 0 265 0 265 0 300 c 4,49,50
 0 367 0 367 53 409 c 5,51,52
 0 443 0 443 0 506 c 4,53,54
 0 549 0 549 22 583 c 132,-1,55
 44 617 44 617 84 636 c 4,56,57
 148 668 148 668 236 668 c 0,58,59
 259 668 259 668 284 666 c 4,60,61
 341 661 341 661 374 647 c 4,62,63
 408 632 408 632 418 628 c 132,-1,64
 428 624 428 624 437 621 c 132,-1,65
 446 618 446 618 455 630 c 5,66,-1
 474 618 l 5,67,-1
 407 504 l 5,68,-1
 387 516 l 5,69,70
 390 523 390 523 390 529 c 0,71,72
 390 556 390 556 342 570 c 4,73,74
 299 583 299 583 250 583 c 0,75,76
 234 583 234 583 216 581 c 4,77,78
 148 575 148 575 122 547 c 4,79,80
 112 535 112 535 112 519 c 4,81,82
 112 486 112 486 149 472 c 4,83,84
 175 462 175 462 195 459 c 4,85,86
 195 459 195 459 196 459 c 4,87,88
 197 458 197 458 197 458 c 4,89,90
 208 456 208 456 241 452 c 4,91,92
 264 448 264 448 274 446 c 4,93,94
 336 435 336 435 384 417 c 4,95,96
 394 413 394 413 404 408 c 4,97,98
 436 393 436 393 455.5 364 c 132,-1,99
 475 335 475 335 475 300 c 4,100,101
 475 232 475 232 422 191 c 5,0,1
294 234 m 4,102,103
 296 234 296 234 299 233.5 c 132,-1,104
 302 233 302 233 304 232 c 4,105,106
 363 248 363 248 363 291 c 0,107,108
 363 326 363 326 306 342 c 4,109,110
 277 351 277 351 235 357 c 4,111,112
 191 364 191 364 181 366 c 4,113,114
 175 367 175 367 171 368 c 4,115,116
 112 352 112 352 112 310 c 0,117,118
 112 276 112 276 169 259 c 4,119,120
 198 250 198 250 240 243 c 4,121,122
 279 237 279 237 294 234 c 4,102,103
EndSplineSet
Validated: 1
EndChar

StartChar: Euro
Encoding: 8364 8364 154
Width: 644
GlyphClass: 1
Flags: W
LayerCount: 3
Fore
SplineSet
475 186 m 1,0,-1
 572 47 l 1,1,-1
 553 34 l 1,2,3
 547 43 547 43 534 43 c 0,4,5
 518 43 518 43 491 27 c 0,6,7
 426 -10 426 -10 347 -10 c 0,8,9
 295 -10 295 -10 253 4.5 c 128,-1,10
 211 19 211 19 179 45.5 c 128,-1,11
 147 72 147 72 124.5 108 c 128,-1,12
 102 144 102 144 90 186 c 1,13,-1
 54 186 l 2,14,15
 33 186 33 186 23 161 c 1,16,-1
 0 161 l 1,17,-1
 21 276 l 1,18,-1
 44 276 l 1,19,20
 45 251 45 251 66 251 c 2,21,-1
 77 251 l 1,22,23
 74 275 74 275 74 300 c 0,24,25
 74 309 74 309 74 318.5 c 128,-1,26
 74 328 74 328 75 337 c 1,27,-1
 54 337 l 2,28,29
 33 337 33 337 23 312 c 1,30,-1
 0 312 l 1,31,-1
 21 427 l 1,32,-1
 44 427 l 1,33,34
 45 404 45 404 66 402 c 2,35,-1
 85 402 l 1,36,37
 96 448 96 448 117.5 486 c 128,-1,38
 139 524 139 524 171.5 551.5 c 128,-1,39
 204 579 204 579 247.5 594.5 c 128,-1,40
 291 610 291 610 347 610 c 0,41,42
 426 610 426 610 491 573 c 0,43,44
 518 557 518 557 534 557 c 0,45,46
 546 557 546 557 553 566 c 1,47,-1
 572 553 l 1,48,-1
 475 414 l 1,49,-1
 456 427 l 1,50,51
 458 433 458 433 458 439 c 0,52,53
 458 449 458 449 452 458 c 0,54,55
 414 512 414 512 347 512 c 0,56,57
 321 512 321 512 301 503 c 128,-1,58
 281 494 281 494 265.5 479 c 128,-1,59
 250 464 250 464 239 444 c 128,-1,60
 228 424 228 424 221 402 c 1,61,-1
 361 402 l 2,62,63
 382 402 382 402 392 427 c 1,64,-1
 415 427 l 1,65,-1
 394 312 l 1,66,-1
 371 312 l 1,67,68
 370 337 370 337 349 337 c 2,69,-1
 207 337 l 1,70,71
 206 327 206 327 205.5 317.5 c 128,-1,72
 205 308 205 308 205 300 c 0,73,74
 205 275 205 275 208 251 c 1,75,-1
 334 251 l 2,76,77
 355 251 355 251 365 276 c 1,78,-1
 388 276 l 1,79,-1
 367 161 l 1,80,-1
 345 161 l 1,81,82
 344 186 344 186 323 186 c 2,83,-1
 223 186 l 1,84,85
 237 145 237 145 267 116.5 c 128,-1,86
 297 88 297 88 347 88 c 0,87,88
 414 88 414 88 452 142 c 0,89,90
 458 150 458 150 458 161 c 0,91,92
 458 167 458 167 456 173 c 1,93,-1
 475 186 l 1,0,-1
EndSplineSet
Validated: 1
EndChar

StartChar: sterling
Encoding: 163 163 155
Width: 675
GlyphClass: 1
Flags: W
LayerCount: 3
Fore
SplineSet
585 92 m 1,0,-1
 603 62 l 1,1,-1
 580 49 l 1,2,3
 574 57 574 57 562 60 c 128,-1,4
 550 63 550 63 534 54 c 0,5,6
 446 7 446 7 371 7 c 0,7,8
 352 7 352 7 294 17.5 c 128,-1,9
 236 28 236 28 178 28 c 128,-1,10
 120 28 120 28 41 0 c 1,11,-1
 0 92 l 1,12,13
 103 154 103 154 103 252 c 0,14,15
 103 262 103 262 102 273 c 1,16,-1
 58 273 l 2,17,18
 47 273 47 273 38 265 c 128,-1,19
 29 257 29 257 27 245 c 1,20,-1
 0 245 l 1,21,-1
 0 381 l 1,22,-1
 27 381 l 1,23,24
 28 370 28 370 36.5 361.5 c 128,-1,25
 45 353 45 353 58 353 c 2,26,-1
 93 353 l 1,27,28
 86 393 86 393 86 426 c 0,29,30
 86 543 86 543 174 587 c 0,31,32
 235 617 235 617 325 617 c 2,33,34
 325 617 325 617 341 617 c 0,35,36
 441 617 441 617 534 569 c 0,37,38
 547 562 547 562 557 562 c 0,39,40
 571 562 571 562 580 574 c 1,41,-1
 603 560 l 1,42,-1
 524 427 l 1,43,-1
 501 441 l 1,44,45
 505 449 505 449 505 455 c 0,46,47
 505 474 505 474 475 488 c 0,48,49
 436 508 436 508 391 514 c 0,50,51
 364 518 364 518 342 518 c 0,52,53
 338 518 338 518 333 518 c 0,54,55
 212 518 212 518 212 420 c 0,56,57
 212 410 212 410 213 399 c 0,58,59
 214 394 214 394 215.5 381.5 c 128,-1,60
 217 369 217 369 219 353 c 1,61,-1
 318 353 l 2,62,63
 331 353 331 353 339.5 361.5 c 128,-1,64
 348 370 348 370 349 381 c 1,65,-1
 376 381 l 1,66,-1
 376 245 l 1,67,-1
 349 245 l 1,68,69
 347 257 347 257 338 265 c 128,-1,70
 329 273 329 273 318 273 c 2,71,-1
 228 273 l 1,72,73
 230 259 230 259 230 245 c 0,74,75
 230 182 230 182 188 129 c 1,76,77
 194 129 194 129 200 129 c 0,78,79
 238 129 238 129 290 119 c 0,80,81
 347 108 347 108 375 108 c 0,82,83
 377 108 377 108 380 108 c 0,84,85
 433 110 433 110 486 140 c 0,86,87
 505 150 505 150 505 166 c 0,88,89
 505 173 505 173 501 182 c 1,90,-1
 524 195 l 1,91,-1
 533 180 l 1,92,-1
 585 92 l 1,0,-1
EndSplineSet
Validated: 1
EndChar

StartChar: at
Encoding: 64 64 156
Width: 708
GlyphClass: 1
Flags: W
LayerCount: 3
Fore
SplineSet
620 358 m 4,0,1
 619 269 619 269 557.5 197 c 132,-1,2
 496 125 496 125 415 125 c 4,3,4
 371 125 371 125 353 150 c 5,5,6
 315 125 315 125 273 125 c 132,-1,7
 231 125 231 125 199 150 c 132,-1,8
 167 175 167 175 153 207 c 4,9,10
 135 248 135 248 135 288 c 4,11,12
 135 314 135 314 143 338 c 4,13,14
 162 402 162 402 204.5 443.5 c 132,-1,15
 247 485 247 485 305 485 c 132,-1,16
 363 485 363 485 399 443 c 5,17,-1
 406 473 l 5,18,-1
 481 473 l 5,19,-1
 424 220 l 6,20,21
 422 213 422 213 422 207 c 4,22,23
 422 193 422 193 435 193 c 4,24,25
 444 193 444 193 458 199 c 4,26,27
 502 218 502 218 528.5 263.5 c 132,-1,28
 555 309 555 309 555 359 c 260,29,30
 555 409 555 409 529 452.5 c 132,-1,31
 503 496 503 496 449 522.5 c 132,-1,32
 395 549 395 549 324.5 549 c 132,-1,33
 254 549 254 549 193.5 516 c 132,-1,34
 133 483 133 483 99 421 c 132,-1,35
 65 359 65 359 65 285 c 4,36,37
 66 211 66 211 100 157 c 4,38,39
 166 53 166 53 338 53 c 4,40,41
 393 53 393 53 433 63 c 4,42,43
 457 69 457 69 457 84 c 4,44,45
 457 85 457 85 457 87 c 5,46,-1
 474 90 l 5,47,-1
 494 -8 l 5,48,-1
 477 -11 l 5,49,50
 472 4 472 4 457 4 c 4,51,52
 453 4 453 4 448 2 c 4,53,54
 398 -10 398 -10 350 -10 c 4,55,56
 148 -10 148 -10 56 104 c 4,57,58
 39 125 39 125 28 150 c 4,59,60
 0 209 0 209 0 284 c 132,-1,61
 0 359 0 359 27 416 c 4,62,63
 76 520 76 520 150 564 c 4,64,65
 228 610 228 610 332 610 c 4,66,67
 457 610 457 610 538.5 539 c 132,-1,68
 620 468 620 468 620 358 c 4,0,1
335 216 m 4,69,70
 362 248 362 248 370 296 c 4,71,72
 372 306 372 306 372 317 c 4,73,74
 372 321 372 321 372 324 c 4,75,76
 372 356 372 356 358 386 c 4,77,78
 338 427 338 427 299 427 c 4,79,80
 298 426 298 426 298 426 c 4,81,82
 258 426 258 426 228 369 c 4,83,84
 208 332 208 332 208 292 c 4,85,86
 208 269 208 269 212 249 c 4,87,88
 226 186 226 186 276 183 c 4,89,90
 309 184 309 184 335 216 c 4,69,70
EndSplineSet
Validated: 1
EndChar

StartChar: cent
Encoding: 162 162 157
Width: 585
GlyphClass: 1
Flags: W
LayerCount: 3
Fore
SplineSet
506 509 m 1,0,1
 476 457 476 457 441 399 c 1,2,-1
 422 411 l 1,3,4
 428 422 428 422 422 432 c 0,5,6
 416 444 416 444 399 452 c 0,7,8
 365 469 365 469 302 473 c 1,9,-1
 302 126 l 1,10,11
 365 130 365 130 404 150 c 0,12,13
 416 156 416 156 422 166.5 c 128,-1,14
 428 177 428 177 422 189 c 1,15,-1
 441 200 l 1,16,17
 485 127 485 127 506 91 c 1,18,-1
 487 79 l 1,19,20
 474 93 474 93 462.5 88.5 c 128,-1,21
 451 84 451 84 442 79 c 0,22,23
 383 48 383 48 302 45 c 1,24,-1
 302 22 l 1,25,26
 304 1 304 1 328 -4 c 1,27,-1
 328 -27 l 1,28,-1
 213 -27 l 1,29,-1
 213 -4 l 1,30,31
 223 -2 223 -2 230.5 5 c 128,-1,32
 238 12 238 12 238 22 c 2,33,-1
 238 47 l 1,34,35
 122 59 122 59 60 131 c 0,36,37
 0 200 0 200 0 300 c 0,38,39
 0 399 0 399 60 468 c 0,40,41
 123 540 123 540 238 552 c 1,42,-1
 238 576 l 1,43,44
 236 598 236 598 213 603 c 1,45,-1
 213 626 l 1,46,-1
 328 626 l 1,47,-1
 328 603 l 1,48,49
 317 601 317 601 309.5 594 c 128,-1,50
 302 587 302 587 302 576 c 2,51,-1
 302 554 l 1,52,53
 383 551 383 551 442 520 c 0,54,55
 451 515 451 515 462.5 510.5 c 128,-1,56
 474 506 474 506 487 520 c 1,57,-1
 506 509 l 1,0,1
109 300 m 256,58,59
 109 205 109 205 181 154 c 0,60,61
 205 137 205 137 238 130 c 1,62,-1
 238 469 l 1,63,64
 177 456 177 456 141 406 c 0,65,66
 109 360 109 360 109 300 c 256,58,59
EndSplineSet
Validated: 1
EndChar

StartChar: ae
Encoding: 230 230 158
Width: 856
GlyphClass: 1
Flags: W
LayerCount: 3
Fore
SplineSet
784 105 m 1,0,-1
 784 -23 l 1,1,-1
 762 -23 l 1,2,3
 760 -13 760 -13 753.5 -6.5 c 128,-1,4
 747 0 747 0 736 0 c 2,5,-1
 303 0 l 1,6,-1
 303 22 l 1,7,8
 313 24 313 24 319.5 31 c 128,-1,9
 326 38 326 38 326 48 c 2,10,-1
 326 112 l 1,11,-1
 172 112 l 1,12,-1
 142 48 l 2,13,14
 139 42 139 42 139 37 c 0,15,16
 139 26 139 26 155 22 c 1,17,-1
 155 0 l 1,18,-1
 0 0 l 1,19,-1
 0 22 l 1,20,21
 24 26 24 26 34 48 c 2,22,-1
 220 445 l 2,23,24
 223 451 223 451 223 456 c 0,25,26
 223 468 223 468 206 471 c 1,27,-1
 206 493 l 1,28,-1
 727 493 l 2,29,30
 738 493 738 493 744.5 499.5 c 128,-1,31
 751 506 751 506 753 516 c 1,32,-1
 776 516 l 1,33,-1
 776 389 l 1,34,-1
 753 389 l 1,35,36
 751 399 751 399 744.5 405.5 c 128,-1,37
 738 412 738 412 727 412 c 2,38,-1
 433 412 l 1,39,-1
 433 287 l 1,40,-1
 601 287 l 2,41,42
 612 287 612 287 618.5 293.5 c 128,-1,43
 625 300 625 300 627 310 c 1,44,-1
 649 310 l 1,45,-1
 649 183 l 1,46,-1
 627 183 l 1,47,48
 626 192 626 192 619 199 c 128,-1,49
 612 206 612 206 601 206 c 2,50,-1
 433 206 l 1,51,-1
 433 82 l 1,52,-1
 736 82 l 2,53,54
 747 82 747 82 753.5 88.5 c 128,-1,55
 760 95 760 95 762 105 c 1,56,-1
 784 105 l 1,0,-1
326 412 m 1,57,-1
 312 412 l 1,58,-1
 210 193 l 1,59,-1
 326 193 l 1,60,-1
 326 412 l 1,57,-1
EndSplineSet
Validated: 1
EndChar

StartChar: dagger
Encoding: 8224 8224 159
Width: 472
GlyphClass: 1
Flags: W
LayerCount: 3
Fore
SplineSet
400 500 m 1,0,-1
 400 362 l 1,1,-1
 378 362 l 1,2,3
 373 387 373 387 351 387 c 2,4,-1
 249 387 l 1,5,-1
 249 -11 l 2,6,7
 251 -34 251 -34 274 -37 c 1,8,-1
 274 -60 l 1,9,-1
 126 -60 l 1,10,-1
 126 -37 l 1,11,12
 151 -32 151 -32 151 -11 c 2,13,-1
 151 387 l 1,14,-1
 49 387 l 2,15,16
 26 385 26 385 23 362 c 1,17,-1
 0 362 l 1,18,-1
 0 500 l 1,19,-1
 23 500 l 1,20,21
 28 475 28 475 49 475 c 2,22,-1
 151 475 l 1,23,-1
 151 610 l 2,24,25
 151 632 151 632 126 637 c 1,26,-1
 126 659 l 1,27,-1
 274 659 l 1,28,-1
 274 637 l 1,29,30
 249 632 249 632 249 610 c 2,31,-1
 249 475 l 1,32,-1
 351 475 l 2,33,34
 373 475 373 475 378 500 c 1,35,-1
 400 500 l 1,0,-1
EndSplineSet
Validated: 1
EndChar

StartChar: currency
Encoding: 164 164 160
Width: 718
GlyphClass: 1
Flags: W
LayerCount: 3
Fore
SplineSet
612 84 m 132,-1,1
 621 84 621 84 631 91 c 5,2,-1
 647 74 l 5,3,-1
 550 -23 l 5,4,-1
 533 -7 l 5,5,6
 541 3 541 3 541 12 c 132,-1,7
 541 21 541 21 533 29 c 6,8,-1
 482 80 l 5,9,10
 418 45 418 45 324 45 c 132,-1,11
 230 45 230 45 166 80 c 5,12,-1
 115 29 l 6,13,14
 107 21 107 21 107 12 c 132,-1,15
 107 3 107 3 115 -7 c 5,16,-1
 98 -23 l 5,17,-1
 1 74 l 1,18,-1
 17 91 l 1,19,20
 27 84 27 84 36 84 c 128,-1,21
 45 84 45 84 53 91 c 2,22,-1
 97 135 l 5,23,24
 40 200 40 200 40 298.5 c 128,-1,25
 40 397 40 397 97 465 c 1,26,-1
 53 509 l 2,27,28
 45 516 45 516 35 516 c 0,29,30
 26 516 26 516 16 510 c 1,31,-1
 1 526 l 1,32,-1
 98 623 l 1,33,-1
 114 608 l 1,34,35
 108 598 108 598 108 589 c 0,36,37
 108 579 108 579 115 571 c 2,38,-1
 166 520 l 1,39,40
 232 555 232 555 323 555 c 2,41,-1
 324 555 l 1,42,-1
 325 555 l 2,43,44
 416 555 416 555 482 520 c 1,45,-1
 533 571 l 2,46,47
 540 579 540 579 540 589 c 0,48,49
 540 598 540 598 534 608 c 1,50,-1
 550 623 l 1,51,-1
 647 526 l 1,52,-1
 632 510 l 1,53,54
 622 516 622 516 613 516 c 0,55,56
 603 516 603 516 595 509 c 2,57,-1
 551 465 l 1,58,59
 608 397 608 397 608 298.5 c 128,-1,60
 608 200 608 200 551 135 c 5,61,-1
 595 91 l 6,62,0
 603 84 603 84 612 84 c 132,-1,1
447 177 m 132,-1,64
 498 228 498 228 498 300 c 0,65,66
 498 371 498 371 447 422.5 c 128,-1,67
 396 474 396 474 324 474 c 128,-1,68
 252 474 252 474 201 423 c 128,-1,69
 150 372 150 372 150 300 c 128,-1,70
 150 228 150 228 201 177 c 132,-1,71
 252 126 252 126 324 126 c 132,-1,63
 396 126 396 126 447 177 c 132,-1,64
EndSplineSet
Validated: 1
EndChar

